M48
; DRILL file {KiCad 7.0.7} date Sat Dec  9 08:33:31 2023
; FORMAT={-:-/ absolute / inch / decimal}
; #@! TF.CreationDate,2023-12-09T08:33:31-03:00
; #@! TF.GenerationSoftware,Kicad,Pcbnew,7.0.7
; #@! TF.FileFunction,Plated,1,2,PTH
FMAT,2
INCH
; #@! TA.AperFunction,Plated,PTH,ComponentDrill
T1C0.0276
; #@! TA.AperFunction,Plated,PTH,ComponentDrill
T2C0.0315
; #@! TA.AperFunction,Plated,PTH,ComponentDrill
T3C0.0354
; #@! TA.AperFunction,Plated,PTH,ComponentDrill
T4C0.0394
; #@! TA.AperFunction,Plated,PTH,ComponentDrill
T5C0.0433
; #@! TA.AperFunction,Plated,PTH,ComponentDrill
T6C0.0598
%
G90
G05
T1
X5.36Y-4.0217
X5.36Y-4.1233
X5.36Y-4.225
X5.56Y-4.0217
X5.56Y-4.1233
X5.56Y-4.225
T2
X5.3639Y-3.92
X5.4624Y-3.92
X5.75Y-3.2185
X5.75Y-3.3169
X5.75Y-4.2808
X5.75Y-4.3792
T3
X5.1Y-3.9479
X5.1Y-4.0464
X5.1Y-4.1448
X5.2299Y-3.9479
X5.2299Y-4.0464
X5.2299Y-4.1448
X5.6388Y-3.7992
X5.7388Y-3.7992
T4
X5.8449Y-2.9331
X5.8449Y-4.6654
X5.9449Y-2.9331
X5.9449Y-4.6654
X6.0449Y-2.9331
X6.0449Y-4.6654
X6.2598Y-2.874
X6.2598Y-2.974
X6.2598Y-4.6244
X6.2598Y-4.7244
T5
X5.5884Y-2.9134
X5.5884Y-3.0134
X5.5884Y-3.1134
X5.6102Y-4.4882
X5.6102Y-4.5882
X5.6102Y-4.6882
T6
X5.0967Y-4.5906
X5.097Y-3.0078
X5.2967Y-4.5906
X5.297Y-3.0078
T4
G00X5.2756Y-3.4859
M15
G01X5.2756Y-3.5647
M16
G05
G00X5.3543Y-3.7103
M15
G01X5.4331Y-3.7103
M16
G05
G00X5.5118Y-3.4859
M15
G01X5.5118Y-3.5647
M16
G05
T0
M30
