%TF.GenerationSoftware,KiCad,Pcbnew,7.0.7*%
%TF.CreationDate,2023-12-09T08:29:27-03:00*%
%TF.ProjectId,bread_board_power_supply,62726561-645f-4626-9f61-72645f706f77,A*%
%TF.SameCoordinates,Original*%
%TF.FileFunction,Legend,Bot*%
%TF.FilePolarity,Positive*%
%FSLAX46Y46*%
G04 Gerber Fmt 4.6, Leading zero omitted, Abs format (unit mm)*
G04 Created by KiCad (PCBNEW 7.0.7) date 2023-12-09 08:29:27*
%MOMM*%
%LPD*%
G01*
G04 APERTURE LIST*
%ADD10C,0.150000*%
%ADD11C,0.010000*%
G04 APERTURE END LIST*
D10*
X141152048Y-109927809D02*
X141009191Y-109975428D01*
X141009191Y-109975428D02*
X140961572Y-110023047D01*
X140961572Y-110023047D02*
X140913953Y-110118285D01*
X140913953Y-110118285D02*
X140913953Y-110261142D01*
X140913953Y-110261142D02*
X140961572Y-110356380D01*
X140961572Y-110356380D02*
X141009191Y-110404000D01*
X141009191Y-110404000D02*
X141104429Y-110451619D01*
X141104429Y-110451619D02*
X141485381Y-110451619D01*
X141485381Y-110451619D02*
X141485381Y-109451619D01*
X141485381Y-109451619D02*
X141152048Y-109451619D01*
X141152048Y-109451619D02*
X141056810Y-109499238D01*
X141056810Y-109499238D02*
X141009191Y-109546857D01*
X141009191Y-109546857D02*
X140961572Y-109642095D01*
X140961572Y-109642095D02*
X140961572Y-109737333D01*
X140961572Y-109737333D02*
X141009191Y-109832571D01*
X141009191Y-109832571D02*
X141056810Y-109880190D01*
X141056810Y-109880190D02*
X141152048Y-109927809D01*
X141152048Y-109927809D02*
X141485381Y-109927809D01*
X140485381Y-110451619D02*
X140485381Y-109784952D01*
X140485381Y-109975428D02*
X140437762Y-109880190D01*
X140437762Y-109880190D02*
X140390143Y-109832571D01*
X140390143Y-109832571D02*
X140294905Y-109784952D01*
X140294905Y-109784952D02*
X140199667Y-109784952D01*
X139485381Y-110404000D02*
X139580619Y-110451619D01*
X139580619Y-110451619D02*
X139771095Y-110451619D01*
X139771095Y-110451619D02*
X139866333Y-110404000D01*
X139866333Y-110404000D02*
X139913952Y-110308761D01*
X139913952Y-110308761D02*
X139913952Y-109927809D01*
X139913952Y-109927809D02*
X139866333Y-109832571D01*
X139866333Y-109832571D02*
X139771095Y-109784952D01*
X139771095Y-109784952D02*
X139580619Y-109784952D01*
X139580619Y-109784952D02*
X139485381Y-109832571D01*
X139485381Y-109832571D02*
X139437762Y-109927809D01*
X139437762Y-109927809D02*
X139437762Y-110023047D01*
X139437762Y-110023047D02*
X139913952Y-110118285D01*
X138580619Y-110451619D02*
X138580619Y-109927809D01*
X138580619Y-109927809D02*
X138628238Y-109832571D01*
X138628238Y-109832571D02*
X138723476Y-109784952D01*
X138723476Y-109784952D02*
X138913952Y-109784952D01*
X138913952Y-109784952D02*
X139009190Y-109832571D01*
X138580619Y-110404000D02*
X138675857Y-110451619D01*
X138675857Y-110451619D02*
X138913952Y-110451619D01*
X138913952Y-110451619D02*
X139009190Y-110404000D01*
X139009190Y-110404000D02*
X139056809Y-110308761D01*
X139056809Y-110308761D02*
X139056809Y-110213523D01*
X139056809Y-110213523D02*
X139009190Y-110118285D01*
X139009190Y-110118285D02*
X138913952Y-110070666D01*
X138913952Y-110070666D02*
X138675857Y-110070666D01*
X138675857Y-110070666D02*
X138580619Y-110023047D01*
X137675857Y-110451619D02*
X137675857Y-109451619D01*
X137675857Y-110404000D02*
X137771095Y-110451619D01*
X137771095Y-110451619D02*
X137961571Y-110451619D01*
X137961571Y-110451619D02*
X138056809Y-110404000D01*
X138056809Y-110404000D02*
X138104428Y-110356380D01*
X138104428Y-110356380D02*
X138152047Y-110261142D01*
X138152047Y-110261142D02*
X138152047Y-109975428D01*
X138152047Y-109975428D02*
X138104428Y-109880190D01*
X138104428Y-109880190D02*
X138056809Y-109832571D01*
X138056809Y-109832571D02*
X137961571Y-109784952D01*
X137961571Y-109784952D02*
X137771095Y-109784952D01*
X137771095Y-109784952D02*
X137675857Y-109832571D01*
X136104428Y-109927809D02*
X135961571Y-109975428D01*
X135961571Y-109975428D02*
X135913952Y-110023047D01*
X135913952Y-110023047D02*
X135866333Y-110118285D01*
X135866333Y-110118285D02*
X135866333Y-110261142D01*
X135866333Y-110261142D02*
X135913952Y-110356380D01*
X135913952Y-110356380D02*
X135961571Y-110404000D01*
X135961571Y-110404000D02*
X136056809Y-110451619D01*
X136056809Y-110451619D02*
X136437761Y-110451619D01*
X136437761Y-110451619D02*
X136437761Y-109451619D01*
X136437761Y-109451619D02*
X136104428Y-109451619D01*
X136104428Y-109451619D02*
X136009190Y-109499238D01*
X136009190Y-109499238D02*
X135961571Y-109546857D01*
X135961571Y-109546857D02*
X135913952Y-109642095D01*
X135913952Y-109642095D02*
X135913952Y-109737333D01*
X135913952Y-109737333D02*
X135961571Y-109832571D01*
X135961571Y-109832571D02*
X136009190Y-109880190D01*
X136009190Y-109880190D02*
X136104428Y-109927809D01*
X136104428Y-109927809D02*
X136437761Y-109927809D01*
X135294904Y-110451619D02*
X135390142Y-110404000D01*
X135390142Y-110404000D02*
X135437761Y-110356380D01*
X135437761Y-110356380D02*
X135485380Y-110261142D01*
X135485380Y-110261142D02*
X135485380Y-109975428D01*
X135485380Y-109975428D02*
X135437761Y-109880190D01*
X135437761Y-109880190D02*
X135390142Y-109832571D01*
X135390142Y-109832571D02*
X135294904Y-109784952D01*
X135294904Y-109784952D02*
X135152047Y-109784952D01*
X135152047Y-109784952D02*
X135056809Y-109832571D01*
X135056809Y-109832571D02*
X135009190Y-109880190D01*
X135009190Y-109880190D02*
X134961571Y-109975428D01*
X134961571Y-109975428D02*
X134961571Y-110261142D01*
X134961571Y-110261142D02*
X135009190Y-110356380D01*
X135009190Y-110356380D02*
X135056809Y-110404000D01*
X135056809Y-110404000D02*
X135152047Y-110451619D01*
X135152047Y-110451619D02*
X135294904Y-110451619D01*
X134104428Y-110451619D02*
X134104428Y-109927809D01*
X134104428Y-109927809D02*
X134152047Y-109832571D01*
X134152047Y-109832571D02*
X134247285Y-109784952D01*
X134247285Y-109784952D02*
X134437761Y-109784952D01*
X134437761Y-109784952D02*
X134532999Y-109832571D01*
X134104428Y-110404000D02*
X134199666Y-110451619D01*
X134199666Y-110451619D02*
X134437761Y-110451619D01*
X134437761Y-110451619D02*
X134532999Y-110404000D01*
X134532999Y-110404000D02*
X134580618Y-110308761D01*
X134580618Y-110308761D02*
X134580618Y-110213523D01*
X134580618Y-110213523D02*
X134532999Y-110118285D01*
X134532999Y-110118285D02*
X134437761Y-110070666D01*
X134437761Y-110070666D02*
X134199666Y-110070666D01*
X134199666Y-110070666D02*
X134104428Y-110023047D01*
X133628237Y-110451619D02*
X133628237Y-109784952D01*
X133628237Y-109975428D02*
X133580618Y-109880190D01*
X133580618Y-109880190D02*
X133532999Y-109832571D01*
X133532999Y-109832571D02*
X133437761Y-109784952D01*
X133437761Y-109784952D02*
X133342523Y-109784952D01*
X132580618Y-110451619D02*
X132580618Y-109451619D01*
X132580618Y-110404000D02*
X132675856Y-110451619D01*
X132675856Y-110451619D02*
X132866332Y-110451619D01*
X132866332Y-110451619D02*
X132961570Y-110404000D01*
X132961570Y-110404000D02*
X133009189Y-110356380D01*
X133009189Y-110356380D02*
X133056808Y-110261142D01*
X133056808Y-110261142D02*
X133056808Y-109975428D01*
X133056808Y-109975428D02*
X133009189Y-109880190D01*
X133009189Y-109880190D02*
X132961570Y-109832571D01*
X132961570Y-109832571D02*
X132866332Y-109784952D01*
X132866332Y-109784952D02*
X132675856Y-109784952D01*
X132675856Y-109784952D02*
X132580618Y-109832571D01*
X141866333Y-112061619D02*
X141866333Y-111061619D01*
X141866333Y-111061619D02*
X141485381Y-111061619D01*
X141485381Y-111061619D02*
X141390143Y-111109238D01*
X141390143Y-111109238D02*
X141342524Y-111156857D01*
X141342524Y-111156857D02*
X141294905Y-111252095D01*
X141294905Y-111252095D02*
X141294905Y-111394952D01*
X141294905Y-111394952D02*
X141342524Y-111490190D01*
X141342524Y-111490190D02*
X141390143Y-111537809D01*
X141390143Y-111537809D02*
X141485381Y-111585428D01*
X141485381Y-111585428D02*
X141866333Y-111585428D01*
X140723476Y-112061619D02*
X140818714Y-112014000D01*
X140818714Y-112014000D02*
X140866333Y-111966380D01*
X140866333Y-111966380D02*
X140913952Y-111871142D01*
X140913952Y-111871142D02*
X140913952Y-111585428D01*
X140913952Y-111585428D02*
X140866333Y-111490190D01*
X140866333Y-111490190D02*
X140818714Y-111442571D01*
X140818714Y-111442571D02*
X140723476Y-111394952D01*
X140723476Y-111394952D02*
X140580619Y-111394952D01*
X140580619Y-111394952D02*
X140485381Y-111442571D01*
X140485381Y-111442571D02*
X140437762Y-111490190D01*
X140437762Y-111490190D02*
X140390143Y-111585428D01*
X140390143Y-111585428D02*
X140390143Y-111871142D01*
X140390143Y-111871142D02*
X140437762Y-111966380D01*
X140437762Y-111966380D02*
X140485381Y-112014000D01*
X140485381Y-112014000D02*
X140580619Y-112061619D01*
X140580619Y-112061619D02*
X140723476Y-112061619D01*
X140056809Y-111394952D02*
X139866333Y-112061619D01*
X139866333Y-112061619D02*
X139675857Y-111585428D01*
X139675857Y-111585428D02*
X139485381Y-112061619D01*
X139485381Y-112061619D02*
X139294905Y-111394952D01*
X138533000Y-112014000D02*
X138628238Y-112061619D01*
X138628238Y-112061619D02*
X138818714Y-112061619D01*
X138818714Y-112061619D02*
X138913952Y-112014000D01*
X138913952Y-112014000D02*
X138961571Y-111918761D01*
X138961571Y-111918761D02*
X138961571Y-111537809D01*
X138961571Y-111537809D02*
X138913952Y-111442571D01*
X138913952Y-111442571D02*
X138818714Y-111394952D01*
X138818714Y-111394952D02*
X138628238Y-111394952D01*
X138628238Y-111394952D02*
X138533000Y-111442571D01*
X138533000Y-111442571D02*
X138485381Y-111537809D01*
X138485381Y-111537809D02*
X138485381Y-111633047D01*
X138485381Y-111633047D02*
X138961571Y-111728285D01*
X138056809Y-112061619D02*
X138056809Y-111394952D01*
X138056809Y-111585428D02*
X138009190Y-111490190D01*
X138009190Y-111490190D02*
X137961571Y-111442571D01*
X137961571Y-111442571D02*
X137866333Y-111394952D01*
X137866333Y-111394952D02*
X137771095Y-111394952D01*
X136723475Y-112014000D02*
X136580618Y-112061619D01*
X136580618Y-112061619D02*
X136342523Y-112061619D01*
X136342523Y-112061619D02*
X136247285Y-112014000D01*
X136247285Y-112014000D02*
X136199666Y-111966380D01*
X136199666Y-111966380D02*
X136152047Y-111871142D01*
X136152047Y-111871142D02*
X136152047Y-111775904D01*
X136152047Y-111775904D02*
X136199666Y-111680666D01*
X136199666Y-111680666D02*
X136247285Y-111633047D01*
X136247285Y-111633047D02*
X136342523Y-111585428D01*
X136342523Y-111585428D02*
X136532999Y-111537809D01*
X136532999Y-111537809D02*
X136628237Y-111490190D01*
X136628237Y-111490190D02*
X136675856Y-111442571D01*
X136675856Y-111442571D02*
X136723475Y-111347333D01*
X136723475Y-111347333D02*
X136723475Y-111252095D01*
X136723475Y-111252095D02*
X136675856Y-111156857D01*
X136675856Y-111156857D02*
X136628237Y-111109238D01*
X136628237Y-111109238D02*
X136532999Y-111061619D01*
X136532999Y-111061619D02*
X136294904Y-111061619D01*
X136294904Y-111061619D02*
X136152047Y-111109238D01*
X135294904Y-111394952D02*
X135294904Y-112061619D01*
X135723475Y-111394952D02*
X135723475Y-111918761D01*
X135723475Y-111918761D02*
X135675856Y-112014000D01*
X135675856Y-112014000D02*
X135580618Y-112061619D01*
X135580618Y-112061619D02*
X135437761Y-112061619D01*
X135437761Y-112061619D02*
X135342523Y-112014000D01*
X135342523Y-112014000D02*
X135294904Y-111966380D01*
X134818713Y-111394952D02*
X134818713Y-112394952D01*
X134818713Y-111442571D02*
X134723475Y-111394952D01*
X134723475Y-111394952D02*
X134532999Y-111394952D01*
X134532999Y-111394952D02*
X134437761Y-111442571D01*
X134437761Y-111442571D02*
X134390142Y-111490190D01*
X134390142Y-111490190D02*
X134342523Y-111585428D01*
X134342523Y-111585428D02*
X134342523Y-111871142D01*
X134342523Y-111871142D02*
X134390142Y-111966380D01*
X134390142Y-111966380D02*
X134437761Y-112014000D01*
X134437761Y-112014000D02*
X134532999Y-112061619D01*
X134532999Y-112061619D02*
X134723475Y-112061619D01*
X134723475Y-112061619D02*
X134818713Y-112014000D01*
X133913951Y-111394952D02*
X133913951Y-112394952D01*
X133913951Y-111442571D02*
X133818713Y-111394952D01*
X133818713Y-111394952D02*
X133628237Y-111394952D01*
X133628237Y-111394952D02*
X133532999Y-111442571D01*
X133532999Y-111442571D02*
X133485380Y-111490190D01*
X133485380Y-111490190D02*
X133437761Y-111585428D01*
X133437761Y-111585428D02*
X133437761Y-111871142D01*
X133437761Y-111871142D02*
X133485380Y-111966380D01*
X133485380Y-111966380D02*
X133532999Y-112014000D01*
X133532999Y-112014000D02*
X133628237Y-112061619D01*
X133628237Y-112061619D02*
X133818713Y-112061619D01*
X133818713Y-112061619D02*
X133913951Y-112014000D01*
X132866332Y-112061619D02*
X132961570Y-112014000D01*
X132961570Y-112014000D02*
X133009189Y-111918761D01*
X133009189Y-111918761D02*
X133009189Y-111061619D01*
X132580617Y-111394952D02*
X132342522Y-112061619D01*
X132104427Y-111394952D02*
X132342522Y-112061619D01*
X132342522Y-112061619D02*
X132437760Y-112299714D01*
X132437760Y-112299714D02*
X132485379Y-112347333D01*
X132485379Y-112347333D02*
X132580617Y-112394952D01*
X140392649Y-97532819D02*
X140725982Y-97056628D01*
X140964077Y-97532819D02*
X140964077Y-96532819D01*
X140964077Y-96532819D02*
X140583125Y-96532819D01*
X140583125Y-96532819D02*
X140487887Y-96580438D01*
X140487887Y-96580438D02*
X140440268Y-96628057D01*
X140440268Y-96628057D02*
X140392649Y-96723295D01*
X140392649Y-96723295D02*
X140392649Y-96866152D01*
X140392649Y-96866152D02*
X140440268Y-96961390D01*
X140440268Y-96961390D02*
X140487887Y-97009009D01*
X140487887Y-97009009D02*
X140583125Y-97056628D01*
X140583125Y-97056628D02*
X140964077Y-97056628D01*
X139583125Y-97485200D02*
X139678363Y-97532819D01*
X139678363Y-97532819D02*
X139868839Y-97532819D01*
X139868839Y-97532819D02*
X139964077Y-97485200D01*
X139964077Y-97485200D02*
X140011696Y-97389961D01*
X140011696Y-97389961D02*
X140011696Y-97009009D01*
X140011696Y-97009009D02*
X139964077Y-96913771D01*
X139964077Y-96913771D02*
X139868839Y-96866152D01*
X139868839Y-96866152D02*
X139678363Y-96866152D01*
X139678363Y-96866152D02*
X139583125Y-96913771D01*
X139583125Y-96913771D02*
X139535506Y-97009009D01*
X139535506Y-97009009D02*
X139535506Y-97104247D01*
X139535506Y-97104247D02*
X140011696Y-97199485D01*
X139202172Y-96866152D02*
X138964077Y-97532819D01*
X138964077Y-97532819D02*
X138725982Y-96866152D01*
X138345029Y-97532819D02*
X138345029Y-96866152D01*
X138345029Y-96532819D02*
X138392648Y-96580438D01*
X138392648Y-96580438D02*
X138345029Y-96628057D01*
X138345029Y-96628057D02*
X138297410Y-96580438D01*
X138297410Y-96580438D02*
X138345029Y-96532819D01*
X138345029Y-96532819D02*
X138345029Y-96628057D01*
X137916458Y-97485200D02*
X137821220Y-97532819D01*
X137821220Y-97532819D02*
X137630744Y-97532819D01*
X137630744Y-97532819D02*
X137535506Y-97485200D01*
X137535506Y-97485200D02*
X137487887Y-97389961D01*
X137487887Y-97389961D02*
X137487887Y-97342342D01*
X137487887Y-97342342D02*
X137535506Y-97247104D01*
X137535506Y-97247104D02*
X137630744Y-97199485D01*
X137630744Y-97199485D02*
X137773601Y-97199485D01*
X137773601Y-97199485D02*
X137868839Y-97151866D01*
X137868839Y-97151866D02*
X137916458Y-97056628D01*
X137916458Y-97056628D02*
X137916458Y-97009009D01*
X137916458Y-97009009D02*
X137868839Y-96913771D01*
X137868839Y-96913771D02*
X137773601Y-96866152D01*
X137773601Y-96866152D02*
X137630744Y-96866152D01*
X137630744Y-96866152D02*
X137535506Y-96913771D01*
X137059315Y-97532819D02*
X137059315Y-96866152D01*
X137059315Y-96532819D02*
X137106934Y-96580438D01*
X137106934Y-96580438D02*
X137059315Y-96628057D01*
X137059315Y-96628057D02*
X137011696Y-96580438D01*
X137011696Y-96580438D02*
X137059315Y-96532819D01*
X137059315Y-96532819D02*
X137059315Y-96628057D01*
X136440268Y-97532819D02*
X136535506Y-97485200D01*
X136535506Y-97485200D02*
X136583125Y-97437580D01*
X136583125Y-97437580D02*
X136630744Y-97342342D01*
X136630744Y-97342342D02*
X136630744Y-97056628D01*
X136630744Y-97056628D02*
X136583125Y-96961390D01*
X136583125Y-96961390D02*
X136535506Y-96913771D01*
X136535506Y-96913771D02*
X136440268Y-96866152D01*
X136440268Y-96866152D02*
X136297411Y-96866152D01*
X136297411Y-96866152D02*
X136202173Y-96913771D01*
X136202173Y-96913771D02*
X136154554Y-96961390D01*
X136154554Y-96961390D02*
X136106935Y-97056628D01*
X136106935Y-97056628D02*
X136106935Y-97342342D01*
X136106935Y-97342342D02*
X136154554Y-97437580D01*
X136154554Y-97437580D02*
X136202173Y-97485200D01*
X136202173Y-97485200D02*
X136297411Y-97532819D01*
X136297411Y-97532819D02*
X136440268Y-97532819D01*
X135678363Y-96866152D02*
X135678363Y-97532819D01*
X135678363Y-96961390D02*
X135630744Y-96913771D01*
X135630744Y-96913771D02*
X135535506Y-96866152D01*
X135535506Y-96866152D02*
X135392649Y-96866152D01*
X135392649Y-96866152D02*
X135297411Y-96913771D01*
X135297411Y-96913771D02*
X135249792Y-97009009D01*
X135249792Y-97009009D02*
X135249792Y-97532819D01*
X134773601Y-97437580D02*
X134725982Y-97485200D01*
X134725982Y-97485200D02*
X134773601Y-97532819D01*
X134773601Y-97532819D02*
X134821220Y-97485200D01*
X134821220Y-97485200D02*
X134773601Y-97437580D01*
X134773601Y-97437580D02*
X134773601Y-97532819D01*
X134773601Y-96913771D02*
X134725982Y-96961390D01*
X134725982Y-96961390D02*
X134773601Y-97009009D01*
X134773601Y-97009009D02*
X134821220Y-96961390D01*
X134821220Y-96961390D02*
X134773601Y-96913771D01*
X134773601Y-96913771D02*
X134773601Y-97009009D01*
X133583125Y-97247104D02*
X133106935Y-97247104D01*
X133678363Y-97532819D02*
X133345030Y-96532819D01*
X133345030Y-96532819D02*
X133011697Y-97532819D01*
%TO.C,TAG1*%
D11*
X132884185Y-86511989D02*
X132909906Y-86527687D01*
X132936557Y-86549267D01*
X132936557Y-87196724D01*
X132909906Y-87218304D01*
X132878546Y-87235779D01*
X132842745Y-87236615D01*
X132811307Y-87216122D01*
X132807431Y-87211456D01*
X132801965Y-87201989D01*
X132797758Y-87188307D01*
X132794646Y-87167788D01*
X132792466Y-87137808D01*
X132791055Y-87095744D01*
X132790250Y-87038972D01*
X132789886Y-86964870D01*
X132789801Y-86870813D01*
X132789801Y-86549267D01*
X132816452Y-86527687D01*
X132840165Y-86512917D01*
X132863179Y-86506107D01*
X132884185Y-86511989D01*
G36*
X132884185Y-86511989D02*
G01*
X132909906Y-86527687D01*
X132936557Y-86549267D01*
X132936557Y-87196724D01*
X132909906Y-87218304D01*
X132878546Y-87235779D01*
X132842745Y-87236615D01*
X132811307Y-87216122D01*
X132807431Y-87211456D01*
X132801965Y-87201989D01*
X132797758Y-87188307D01*
X132794646Y-87167788D01*
X132792466Y-87137808D01*
X132791055Y-87095744D01*
X132790250Y-87038972D01*
X132789886Y-86964870D01*
X132789801Y-86870813D01*
X132789801Y-86549267D01*
X132816452Y-86527687D01*
X132840165Y-86512917D01*
X132863179Y-86506107D01*
X132884185Y-86511989D01*
G37*
X140014916Y-86510503D02*
X140049070Y-86533816D01*
X140076779Y-86561525D01*
X140076779Y-86874577D01*
X140076738Y-86958607D01*
X140076480Y-87032829D01*
X140075809Y-87089581D01*
X140074531Y-87131552D01*
X140072452Y-87161429D01*
X140069378Y-87181901D01*
X140065113Y-87195654D01*
X140059463Y-87205377D01*
X140052234Y-87213757D01*
X140020770Y-87235221D01*
X139985605Y-87236987D01*
X139952601Y-87217307D01*
X139947295Y-87211438D01*
X139941845Y-87202354D01*
X139937679Y-87189013D01*
X139934625Y-87168797D01*
X139932511Y-87139089D01*
X139931165Y-87097272D01*
X139930417Y-87040729D01*
X139930093Y-86966842D01*
X139930024Y-86872996D01*
X139930063Y-86797334D01*
X139930318Y-86719425D01*
X139930962Y-86659415D01*
X139932166Y-86614688D01*
X139934103Y-86582625D01*
X139936943Y-86560611D01*
X139940858Y-86546027D01*
X139946021Y-86536258D01*
X139952601Y-86528685D01*
X139981785Y-86509663D01*
X140014916Y-86510503D01*
G36*
X140014916Y-86510503D02*
G01*
X140049070Y-86533816D01*
X140076779Y-86561525D01*
X140076779Y-86874577D01*
X140076738Y-86958607D01*
X140076480Y-87032829D01*
X140075809Y-87089581D01*
X140074531Y-87131552D01*
X140072452Y-87161429D01*
X140069378Y-87181901D01*
X140065113Y-87195654D01*
X140059463Y-87205377D01*
X140052234Y-87213757D01*
X140020770Y-87235221D01*
X139985605Y-87236987D01*
X139952601Y-87217307D01*
X139947295Y-87211438D01*
X139941845Y-87202354D01*
X139937679Y-87189013D01*
X139934625Y-87168797D01*
X139932511Y-87139089D01*
X139931165Y-87097272D01*
X139930417Y-87040729D01*
X139930093Y-86966842D01*
X139930024Y-86872996D01*
X139930063Y-86797334D01*
X139930318Y-86719425D01*
X139930962Y-86659415D01*
X139932166Y-86614688D01*
X139934103Y-86582625D01*
X139936943Y-86560611D01*
X139940858Y-86546027D01*
X139946021Y-86536258D01*
X139952601Y-86528685D01*
X139981785Y-86509663D01*
X140014916Y-86510503D01*
G37*
X139981499Y-79897429D02*
X140087023Y-79923284D01*
X140187047Y-79969689D01*
X140278421Y-80036651D01*
X140357992Y-80124176D01*
X140422607Y-80232274D01*
X140439930Y-80270354D01*
X140453964Y-80308951D01*
X140461839Y-80347537D01*
X140465290Y-80395263D01*
X140466055Y-80461281D01*
X140465592Y-80516229D01*
X140462806Y-80566728D01*
X140455974Y-80606128D01*
X140443391Y-80643476D01*
X140423351Y-80687821D01*
X140417553Y-80699639D01*
X140349032Y-80807849D01*
X140262852Y-80896881D01*
X140161459Y-80964645D01*
X140047298Y-81009054D01*
X139988721Y-81021446D01*
X139869886Y-81027245D01*
X139754787Y-81008482D01*
X139646799Y-80967080D01*
X139549296Y-80904963D01*
X139465655Y-80824055D01*
X139399250Y-80726280D01*
X139353456Y-80613562D01*
X139336701Y-80521319D01*
X139335192Y-80419525D01*
X139348819Y-80320508D01*
X139376932Y-80234740D01*
X139409417Y-80173421D01*
X139481734Y-80076136D01*
X139567465Y-79999355D01*
X139663460Y-79943086D01*
X139766566Y-79907338D01*
X139873629Y-79892116D01*
X139981499Y-79897429D01*
G36*
X139981499Y-79897429D02*
G01*
X140087023Y-79923284D01*
X140187047Y-79969689D01*
X140278421Y-80036651D01*
X140357992Y-80124176D01*
X140422607Y-80232274D01*
X140439930Y-80270354D01*
X140453964Y-80308951D01*
X140461839Y-80347537D01*
X140465290Y-80395263D01*
X140466055Y-80461281D01*
X140465592Y-80516229D01*
X140462806Y-80566728D01*
X140455974Y-80606128D01*
X140443391Y-80643476D01*
X140423351Y-80687821D01*
X140417553Y-80699639D01*
X140349032Y-80807849D01*
X140262852Y-80896881D01*
X140161459Y-80964645D01*
X140047298Y-81009054D01*
X139988721Y-81021446D01*
X139869886Y-81027245D01*
X139754787Y-81008482D01*
X139646799Y-80967080D01*
X139549296Y-80904963D01*
X139465655Y-80824055D01*
X139399250Y-80726280D01*
X139353456Y-80613562D01*
X139336701Y-80521319D01*
X139335192Y-80419525D01*
X139348819Y-80320508D01*
X139376932Y-80234740D01*
X139409417Y-80173421D01*
X139481734Y-80076136D01*
X139567465Y-79999355D01*
X139663460Y-79943086D01*
X139766566Y-79907338D01*
X139873629Y-79892116D01*
X139981499Y-79897429D01*
G37*
X132184546Y-86506108D02*
X132278669Y-86506198D01*
X132353184Y-86506538D01*
X132410590Y-86507279D01*
X132453390Y-86508575D01*
X132484083Y-86510577D01*
X132505170Y-86513436D01*
X132519152Y-86517306D01*
X132528529Y-86522338D01*
X132535801Y-86528685D01*
X132554607Y-86561402D01*
X132556054Y-86598979D01*
X132539696Y-86632218D01*
X132538336Y-86633671D01*
X132527133Y-86642032D01*
X132510031Y-86647587D01*
X132482861Y-86650880D01*
X132441457Y-86652458D01*
X132381652Y-86652862D01*
X132242290Y-86652862D01*
X132242290Y-86916629D01*
X132242215Y-86992457D01*
X132241807Y-87059123D01*
X132240825Y-87108907D01*
X132239029Y-87144824D01*
X132236178Y-87169890D01*
X132232032Y-87187121D01*
X132226350Y-87199532D01*
X132218893Y-87210140D01*
X132216603Y-87212946D01*
X132185425Y-87235588D01*
X132151045Y-87237152D01*
X132118113Y-87217307D01*
X132111134Y-87209231D01*
X132105662Y-87198633D01*
X132101642Y-87182789D01*
X132098851Y-87158813D01*
X132097067Y-87123814D01*
X132096068Y-87074904D01*
X132095631Y-87009194D01*
X132095535Y-86923796D01*
X132095535Y-86652862D01*
X131949599Y-86652862D01*
X131938499Y-86652861D01*
X131881981Y-86652636D01*
X131843137Y-86651497D01*
X131817744Y-86648697D01*
X131801583Y-86643490D01*
X131790431Y-86635129D01*
X131780068Y-86622866D01*
X131764220Y-86592178D01*
X131767322Y-86558398D01*
X131792966Y-86525862D01*
X131797908Y-86522145D01*
X131808117Y-86517309D01*
X131823543Y-86513546D01*
X131846665Y-86510723D01*
X131879962Y-86508710D01*
X131925916Y-86507373D01*
X131987007Y-86506582D01*
X132065714Y-86506203D01*
X132164519Y-86506107D01*
X132184546Y-86506108D01*
G36*
X132184546Y-86506108D02*
G01*
X132278669Y-86506198D01*
X132353184Y-86506538D01*
X132410590Y-86507279D01*
X132453390Y-86508575D01*
X132484083Y-86510577D01*
X132505170Y-86513436D01*
X132519152Y-86517306D01*
X132528529Y-86522338D01*
X132535801Y-86528685D01*
X132554607Y-86561402D01*
X132556054Y-86598979D01*
X132539696Y-86632218D01*
X132538336Y-86633671D01*
X132527133Y-86642032D01*
X132510031Y-86647587D01*
X132482861Y-86650880D01*
X132441457Y-86652458D01*
X132381652Y-86652862D01*
X132242290Y-86652862D01*
X132242290Y-86916629D01*
X132242215Y-86992457D01*
X132241807Y-87059123D01*
X132240825Y-87108907D01*
X132239029Y-87144824D01*
X132236178Y-87169890D01*
X132232032Y-87187121D01*
X132226350Y-87199532D01*
X132218893Y-87210140D01*
X132216603Y-87212946D01*
X132185425Y-87235588D01*
X132151045Y-87237152D01*
X132118113Y-87217307D01*
X132111134Y-87209231D01*
X132105662Y-87198633D01*
X132101642Y-87182789D01*
X132098851Y-87158813D01*
X132097067Y-87123814D01*
X132096068Y-87074904D01*
X132095631Y-87009194D01*
X132095535Y-86923796D01*
X132095535Y-86652862D01*
X131949599Y-86652862D01*
X131938499Y-86652861D01*
X131881981Y-86652636D01*
X131843137Y-86651497D01*
X131817744Y-86648697D01*
X131801583Y-86643490D01*
X131790431Y-86635129D01*
X131780068Y-86622866D01*
X131764220Y-86592178D01*
X131767322Y-86558398D01*
X131792966Y-86525862D01*
X131797908Y-86522145D01*
X131808117Y-86517309D01*
X131823543Y-86513546D01*
X131846665Y-86510723D01*
X131879962Y-86508710D01*
X131925916Y-86507373D01*
X131987007Y-86506582D01*
X132065714Y-86506203D01*
X132164519Y-86506107D01*
X132184546Y-86506108D01*
G37*
X131508513Y-86528685D02*
X131514145Y-86534875D01*
X131519235Y-86543081D01*
X131523322Y-86554857D01*
X131526500Y-86572316D01*
X131528866Y-86597570D01*
X131530517Y-86632730D01*
X131531548Y-86679909D01*
X131532056Y-86741217D01*
X131532138Y-86818767D01*
X131531888Y-86914671D01*
X131531404Y-87031040D01*
X131531336Y-87045215D01*
X131530750Y-87106977D01*
X131529427Y-87150660D01*
X131526882Y-87180041D01*
X131522627Y-87198895D01*
X131516175Y-87210999D01*
X131507041Y-87220129D01*
X131473583Y-87237546D01*
X131438635Y-87234644D01*
X131407732Y-87210140D01*
X131398723Y-87196937D01*
X131391271Y-87178401D01*
X131386903Y-87152373D01*
X131384848Y-87113827D01*
X131384335Y-87057740D01*
X131384335Y-86935085D01*
X130887624Y-86935085D01*
X130887624Y-87069911D01*
X130887551Y-87105702D01*
X130886788Y-87152032D01*
X130884612Y-87182566D01*
X130880315Y-87201597D01*
X130873191Y-87213414D01*
X130862534Y-87222311D01*
X130830283Y-87237381D01*
X130794996Y-87234713D01*
X130764265Y-87210140D01*
X130759610Y-87203885D01*
X130753674Y-87193361D01*
X130749143Y-87179431D01*
X130745827Y-87159357D01*
X130743538Y-87130400D01*
X130742087Y-87089820D01*
X130741284Y-87034880D01*
X130740941Y-86962839D01*
X130740868Y-86870960D01*
X130740868Y-86561525D01*
X130768577Y-86533816D01*
X130799956Y-86511573D01*
X130833185Y-86508884D01*
X130865046Y-86528685D01*
X130873332Y-86538455D01*
X130880744Y-86554347D01*
X130885081Y-86578315D01*
X130887117Y-86615188D01*
X130887624Y-86669796D01*
X130887624Y-86788329D01*
X131384335Y-86788329D01*
X131384335Y-86672816D01*
X131384773Y-86621118D01*
X131386737Y-86586594D01*
X131391253Y-86564018D01*
X131399346Y-86548166D01*
X131412044Y-86533816D01*
X131443422Y-86511573D01*
X131476651Y-86508884D01*
X131508513Y-86528685D01*
G36*
X131508513Y-86528685D02*
G01*
X131514145Y-86534875D01*
X131519235Y-86543081D01*
X131523322Y-86554857D01*
X131526500Y-86572316D01*
X131528866Y-86597570D01*
X131530517Y-86632730D01*
X131531548Y-86679909D01*
X131532056Y-86741217D01*
X131532138Y-86818767D01*
X131531888Y-86914671D01*
X131531404Y-87031040D01*
X131531336Y-87045215D01*
X131530750Y-87106977D01*
X131529427Y-87150660D01*
X131526882Y-87180041D01*
X131522627Y-87198895D01*
X131516175Y-87210999D01*
X131507041Y-87220129D01*
X131473583Y-87237546D01*
X131438635Y-87234644D01*
X131407732Y-87210140D01*
X131398723Y-87196937D01*
X131391271Y-87178401D01*
X131386903Y-87152373D01*
X131384848Y-87113827D01*
X131384335Y-87057740D01*
X131384335Y-86935085D01*
X130887624Y-86935085D01*
X130887624Y-87069911D01*
X130887551Y-87105702D01*
X130886788Y-87152032D01*
X130884612Y-87182566D01*
X130880315Y-87201597D01*
X130873191Y-87213414D01*
X130862534Y-87222311D01*
X130830283Y-87237381D01*
X130794996Y-87234713D01*
X130764265Y-87210140D01*
X130759610Y-87203885D01*
X130753674Y-87193361D01*
X130749143Y-87179431D01*
X130745827Y-87159357D01*
X130743538Y-87130400D01*
X130742087Y-87089820D01*
X130741284Y-87034880D01*
X130740941Y-86962839D01*
X130740868Y-86870960D01*
X130740868Y-86561525D01*
X130768577Y-86533816D01*
X130799956Y-86511573D01*
X130833185Y-86508884D01*
X130865046Y-86528685D01*
X130873332Y-86538455D01*
X130880744Y-86554347D01*
X130885081Y-86578315D01*
X130887117Y-86615188D01*
X130887624Y-86669796D01*
X130887624Y-86788329D01*
X131384335Y-86788329D01*
X131384335Y-86672816D01*
X131384773Y-86621118D01*
X131386737Y-86586594D01*
X131391253Y-86564018D01*
X131399346Y-86548166D01*
X131412044Y-86533816D01*
X131443422Y-86511573D01*
X131476651Y-86508884D01*
X131508513Y-86528685D01*
G37*
X136213912Y-87117436D02*
X136211942Y-87150215D01*
X136209014Y-87173135D01*
X136204937Y-87188937D01*
X136199522Y-87200359D01*
X136192582Y-87210140D01*
X136169185Y-87239885D01*
X136003493Y-87239291D01*
X135968697Y-87238993D01*
X135870214Y-87235562D01*
X135789252Y-87227879D01*
X135722158Y-87215322D01*
X135665275Y-87197267D01*
X135614948Y-87173092D01*
X135611589Y-87171175D01*
X135553777Y-87134457D01*
X135511423Y-87097491D01*
X135478607Y-87054006D01*
X135449407Y-86997729D01*
X135445125Y-86988113D01*
X135422548Y-86924927D01*
X135416813Y-86879373D01*
X135566058Y-86879373D01*
X135571671Y-86904101D01*
X135577397Y-86919979D01*
X135610327Y-86979887D01*
X135657665Y-87025640D01*
X135721431Y-87058776D01*
X135803640Y-87080830D01*
X135806434Y-87081332D01*
X135852719Y-87087295D01*
X135909115Y-87091523D01*
X135964053Y-87093129D01*
X136057935Y-87093129D01*
X136057935Y-86652862D01*
X135970446Y-86653310D01*
X135903526Y-86655786D01*
X135811128Y-86667038D01*
X135731813Y-86686577D01*
X135669839Y-86713551D01*
X135638899Y-86734280D01*
X135610779Y-86764046D01*
X135587439Y-86806474D01*
X135580312Y-86822440D01*
X135568488Y-86854942D01*
X135566058Y-86879373D01*
X135416813Y-86879373D01*
X135415576Y-86869549D01*
X135424178Y-86814523D01*
X135448320Y-86752391D01*
X135449116Y-86750698D01*
X135489567Y-86681276D01*
X135540252Y-86624678D01*
X135602977Y-86580110D01*
X135679553Y-86546781D01*
X135771788Y-86523901D01*
X135881491Y-86510676D01*
X136010470Y-86506315D01*
X136014042Y-86506310D01*
X136074062Y-86506450D01*
X136115993Y-86507486D01*
X136144107Y-86510080D01*
X136162676Y-86514893D01*
X136175973Y-86522584D01*
X136188270Y-86533816D01*
X136215979Y-86561525D01*
X136215979Y-86870960D01*
X136215954Y-86932566D01*
X136215729Y-87011351D01*
X136215111Y-87072061D01*
X136214554Y-87093129D01*
X136213912Y-87117436D01*
G36*
X136213912Y-87117436D02*
G01*
X136211942Y-87150215D01*
X136209014Y-87173135D01*
X136204937Y-87188937D01*
X136199522Y-87200359D01*
X136192582Y-87210140D01*
X136169185Y-87239885D01*
X136003493Y-87239291D01*
X135968697Y-87238993D01*
X135870214Y-87235562D01*
X135789252Y-87227879D01*
X135722158Y-87215322D01*
X135665275Y-87197267D01*
X135614948Y-87173092D01*
X135611589Y-87171175D01*
X135553777Y-87134457D01*
X135511423Y-87097491D01*
X135478607Y-87054006D01*
X135449407Y-86997729D01*
X135445125Y-86988113D01*
X135422548Y-86924927D01*
X135416813Y-86879373D01*
X135566058Y-86879373D01*
X135571671Y-86904101D01*
X135577397Y-86919979D01*
X135610327Y-86979887D01*
X135657665Y-87025640D01*
X135721431Y-87058776D01*
X135803640Y-87080830D01*
X135806434Y-87081332D01*
X135852719Y-87087295D01*
X135909115Y-87091523D01*
X135964053Y-87093129D01*
X136057935Y-87093129D01*
X136057935Y-86652862D01*
X135970446Y-86653310D01*
X135903526Y-86655786D01*
X135811128Y-86667038D01*
X135731813Y-86686577D01*
X135669839Y-86713551D01*
X135638899Y-86734280D01*
X135610779Y-86764046D01*
X135587439Y-86806474D01*
X135580312Y-86822440D01*
X135568488Y-86854942D01*
X135566058Y-86879373D01*
X135416813Y-86879373D01*
X135415576Y-86869549D01*
X135424178Y-86814523D01*
X135448320Y-86752391D01*
X135449116Y-86750698D01*
X135489567Y-86681276D01*
X135540252Y-86624678D01*
X135602977Y-86580110D01*
X135679553Y-86546781D01*
X135771788Y-86523901D01*
X135881491Y-86510676D01*
X136010470Y-86506315D01*
X136014042Y-86506310D01*
X136074062Y-86506450D01*
X136115993Y-86507486D01*
X136144107Y-86510080D01*
X136162676Y-86514893D01*
X136175973Y-86522584D01*
X136188270Y-86533816D01*
X136215979Y-86561525D01*
X136215979Y-86870960D01*
X136215954Y-86932566D01*
X136215729Y-87011351D01*
X136215111Y-87072061D01*
X136214554Y-87093129D01*
X136213912Y-87117436D01*
G37*
X143305596Y-86691467D02*
X143305649Y-86772081D01*
X143305401Y-86872996D01*
X143305362Y-86948657D01*
X143305107Y-87026566D01*
X143304463Y-87086576D01*
X143303259Y-87131304D01*
X143301322Y-87163366D01*
X143298482Y-87185380D01*
X143294567Y-87199964D01*
X143289405Y-87209734D01*
X143282824Y-87217307D01*
X143275856Y-87223541D01*
X143262858Y-87230841D01*
X143243710Y-87235594D01*
X143214307Y-87238332D01*
X143170541Y-87239585D01*
X143108307Y-87239885D01*
X143059361Y-87239509D01*
X142952501Y-87235081D01*
X142863273Y-87224993D01*
X142788475Y-87208405D01*
X142724904Y-87184475D01*
X142669358Y-87152361D01*
X142618633Y-87111222D01*
X142612645Y-87105370D01*
X142575778Y-87056861D01*
X142544678Y-86996053D01*
X142523196Y-86931809D01*
X142517915Y-86893066D01*
X142665132Y-86893066D01*
X142683414Y-86944001D01*
X142713084Y-86989918D01*
X142759781Y-87032327D01*
X142821171Y-87062130D01*
X142900317Y-87081266D01*
X142901807Y-87081504D01*
X142950778Y-87087296D01*
X143009472Y-87091436D01*
X143065513Y-87093044D01*
X143158646Y-87093129D01*
X143158646Y-86652862D01*
X143082446Y-86652848D01*
X143079418Y-86652857D01*
X143028298Y-86654822D01*
X142968195Y-86659547D01*
X142911487Y-86666075D01*
X142861529Y-86675371D01*
X142786777Y-86701640D01*
X142729268Y-86740939D01*
X142687767Y-86793973D01*
X142666550Y-86845240D01*
X142665132Y-86893066D01*
X142517915Y-86893066D01*
X142515179Y-86872996D01*
X142516458Y-86851779D01*
X142528770Y-86794363D01*
X142551299Y-86734453D01*
X142580529Y-86680403D01*
X142612946Y-86640572D01*
X142632487Y-86623550D01*
X142687199Y-86584362D01*
X142747502Y-86554233D01*
X142816698Y-86532272D01*
X142898090Y-86517590D01*
X142994979Y-86509299D01*
X143110668Y-86506507D01*
X143150150Y-86506106D01*
X143195861Y-86505693D01*
X143231662Y-86507497D01*
X143258753Y-86513779D01*
X143278335Y-86526799D01*
X143291609Y-86548818D01*
X143299777Y-86582095D01*
X143304039Y-86628891D01*
X143304636Y-86652862D01*
X143305596Y-86691467D01*
G36*
X143305596Y-86691467D02*
G01*
X143305649Y-86772081D01*
X143305401Y-86872996D01*
X143305362Y-86948657D01*
X143305107Y-87026566D01*
X143304463Y-87086576D01*
X143303259Y-87131304D01*
X143301322Y-87163366D01*
X143298482Y-87185380D01*
X143294567Y-87199964D01*
X143289405Y-87209734D01*
X143282824Y-87217307D01*
X143275856Y-87223541D01*
X143262858Y-87230841D01*
X143243710Y-87235594D01*
X143214307Y-87238332D01*
X143170541Y-87239585D01*
X143108307Y-87239885D01*
X143059361Y-87239509D01*
X142952501Y-87235081D01*
X142863273Y-87224993D01*
X142788475Y-87208405D01*
X142724904Y-87184475D01*
X142669358Y-87152361D01*
X142618633Y-87111222D01*
X142612645Y-87105370D01*
X142575778Y-87056861D01*
X142544678Y-86996053D01*
X142523196Y-86931809D01*
X142517915Y-86893066D01*
X142665132Y-86893066D01*
X142683414Y-86944001D01*
X142713084Y-86989918D01*
X142759781Y-87032327D01*
X142821171Y-87062130D01*
X142900317Y-87081266D01*
X142901807Y-87081504D01*
X142950778Y-87087296D01*
X143009472Y-87091436D01*
X143065513Y-87093044D01*
X143158646Y-87093129D01*
X143158646Y-86652862D01*
X143082446Y-86652848D01*
X143079418Y-86652857D01*
X143028298Y-86654822D01*
X142968195Y-86659547D01*
X142911487Y-86666075D01*
X142861529Y-86675371D01*
X142786777Y-86701640D01*
X142729268Y-86740939D01*
X142687767Y-86793973D01*
X142666550Y-86845240D01*
X142665132Y-86893066D01*
X142517915Y-86893066D01*
X142515179Y-86872996D01*
X142516458Y-86851779D01*
X142528770Y-86794363D01*
X142551299Y-86734453D01*
X142580529Y-86680403D01*
X142612946Y-86640572D01*
X142632487Y-86623550D01*
X142687199Y-86584362D01*
X142747502Y-86554233D01*
X142816698Y-86532272D01*
X142898090Y-86517590D01*
X142994979Y-86509299D01*
X143110668Y-86506507D01*
X143150150Y-86506106D01*
X143195861Y-86505693D01*
X143231662Y-86507497D01*
X143258753Y-86513779D01*
X143278335Y-86526799D01*
X143291609Y-86548818D01*
X143299777Y-86582095D01*
X143304039Y-86628891D01*
X143304636Y-86652862D01*
X143305596Y-86691467D01*
G37*
X138360672Y-86504932D02*
X138372080Y-86511069D01*
X138382629Y-86521731D01*
X138393915Y-86535851D01*
X138398368Y-86541812D01*
X138404367Y-86552308D01*
X138408946Y-86566133D01*
X138412298Y-86586038D01*
X138414612Y-86614772D01*
X138416080Y-86655085D01*
X138416892Y-86709727D01*
X138417239Y-86781447D01*
X138417313Y-86872996D01*
X138417290Y-86931526D01*
X138417071Y-87010613D01*
X138416462Y-87071556D01*
X138415271Y-87117102D01*
X138413308Y-87150003D01*
X138410382Y-87173008D01*
X138406302Y-87188866D01*
X138400876Y-87200326D01*
X138393915Y-87210140D01*
X138363487Y-87234533D01*
X138328544Y-87237412D01*
X138291563Y-87218322D01*
X138287379Y-87214847D01*
X138279203Y-87206319D01*
X138273143Y-87194768D01*
X138268760Y-87176936D01*
X138265618Y-87149564D01*
X138263281Y-87109394D01*
X138261310Y-87053168D01*
X138259268Y-86977629D01*
X138253624Y-86758498D01*
X137988335Y-86999139D01*
X137914501Y-87065915D01*
X137849321Y-87124031D01*
X137797127Y-87168989D01*
X137756052Y-87201911D01*
X137724234Y-87223919D01*
X137699805Y-87236134D01*
X137680903Y-87239679D01*
X137665662Y-87235676D01*
X137652218Y-87225247D01*
X137638706Y-87209514D01*
X137632461Y-87201031D01*
X137626829Y-87190453D01*
X137622618Y-87176295D01*
X137619666Y-87155843D01*
X137617811Y-87126382D01*
X137616892Y-87085201D01*
X137616747Y-87029584D01*
X137617214Y-86956819D01*
X137618131Y-86864191D01*
X137621446Y-86549239D01*
X137648097Y-86527673D01*
X137674162Y-86511481D01*
X137707020Y-86508710D01*
X137741551Y-86527663D01*
X137745863Y-86531248D01*
X137753995Y-86539777D01*
X137760024Y-86551369D01*
X137764385Y-86569275D01*
X137767513Y-86596746D01*
X137769842Y-86637034D01*
X137771808Y-86693391D01*
X137773846Y-86769069D01*
X137779490Y-86988918D01*
X137960113Y-86825124D01*
X138046851Y-86746491D01*
X138122622Y-86678098D01*
X138184759Y-86622748D01*
X138234857Y-86579378D01*
X138274514Y-86546921D01*
X138305327Y-86524313D01*
X138328893Y-86510488D01*
X138346809Y-86504383D01*
X138360672Y-86504932D01*
G36*
X138360672Y-86504932D02*
G01*
X138372080Y-86511069D01*
X138382629Y-86521731D01*
X138393915Y-86535851D01*
X138398368Y-86541812D01*
X138404367Y-86552308D01*
X138408946Y-86566133D01*
X138412298Y-86586038D01*
X138414612Y-86614772D01*
X138416080Y-86655085D01*
X138416892Y-86709727D01*
X138417239Y-86781447D01*
X138417313Y-86872996D01*
X138417290Y-86931526D01*
X138417071Y-87010613D01*
X138416462Y-87071556D01*
X138415271Y-87117102D01*
X138413308Y-87150003D01*
X138410382Y-87173008D01*
X138406302Y-87188866D01*
X138400876Y-87200326D01*
X138393915Y-87210140D01*
X138363487Y-87234533D01*
X138328544Y-87237412D01*
X138291563Y-87218322D01*
X138287379Y-87214847D01*
X138279203Y-87206319D01*
X138273143Y-87194768D01*
X138268760Y-87176936D01*
X138265618Y-87149564D01*
X138263281Y-87109394D01*
X138261310Y-87053168D01*
X138259268Y-86977629D01*
X138253624Y-86758498D01*
X137988335Y-86999139D01*
X137914501Y-87065915D01*
X137849321Y-87124031D01*
X137797127Y-87168989D01*
X137756052Y-87201911D01*
X137724234Y-87223919D01*
X137699805Y-87236134D01*
X137680903Y-87239679D01*
X137665662Y-87235676D01*
X137652218Y-87225247D01*
X137638706Y-87209514D01*
X137632461Y-87201031D01*
X137626829Y-87190453D01*
X137622618Y-87176295D01*
X137619666Y-87155843D01*
X137617811Y-87126382D01*
X137616892Y-87085201D01*
X137616747Y-87029584D01*
X137617214Y-86956819D01*
X137618131Y-86864191D01*
X137621446Y-86549239D01*
X137648097Y-86527673D01*
X137674162Y-86511481D01*
X137707020Y-86508710D01*
X137741551Y-86527663D01*
X137745863Y-86531248D01*
X137753995Y-86539777D01*
X137760024Y-86551369D01*
X137764385Y-86569275D01*
X137767513Y-86596746D01*
X137769842Y-86637034D01*
X137771808Y-86693391D01*
X137773846Y-86769069D01*
X137779490Y-86988918D01*
X137960113Y-86825124D01*
X138046851Y-86746491D01*
X138122622Y-86678098D01*
X138184759Y-86622748D01*
X138234857Y-86579378D01*
X138274514Y-86546921D01*
X138305327Y-86524313D01*
X138328893Y-86510488D01*
X138346809Y-86504383D01*
X138360672Y-86504932D01*
G37*
X139157929Y-86511219D02*
X139263936Y-86527534D01*
X139357748Y-86555585D01*
X139436544Y-86594492D01*
X139497498Y-86643374D01*
X139523568Y-86676235D01*
X139553076Y-86725434D01*
X139578347Y-86779292D01*
X139595997Y-86830459D01*
X139602637Y-86871584D01*
X139601077Y-86891299D01*
X139588136Y-86942632D01*
X139564973Y-86999158D01*
X139535081Y-87053075D01*
X139501952Y-87096579D01*
X139491756Y-87106927D01*
X139424671Y-87158702D01*
X139344545Y-87198594D01*
X139258335Y-87222996D01*
X139203371Y-87231108D01*
X139109918Y-87237713D01*
X139020137Y-87235626D01*
X138937648Y-87225380D01*
X138866065Y-87207510D01*
X138809007Y-87182548D01*
X138770090Y-87151028D01*
X138768715Y-87149052D01*
X138761627Y-87123826D01*
X138757388Y-87076575D01*
X138755979Y-87007111D01*
X138756839Y-86944878D01*
X138761559Y-86897496D01*
X138773249Y-86865393D01*
X138795018Y-86845840D01*
X138829977Y-86836110D01*
X138881235Y-86833473D01*
X138951902Y-86835201D01*
X139000522Y-86838213D01*
X139050718Y-86846406D01*
X139083212Y-86860459D01*
X139100671Y-86881694D01*
X139105762Y-86911434D01*
X139105656Y-86915976D01*
X139096954Y-86950770D01*
X139072944Y-86974187D01*
X139031679Y-86987387D01*
X138971210Y-86991529D01*
X138902735Y-86991529D01*
X138902735Y-87029881D01*
X138902785Y-87039016D01*
X138905006Y-87056267D01*
X138914273Y-87066561D01*
X138935654Y-87073499D01*
X138974215Y-87080681D01*
X138979689Y-87081615D01*
X139076639Y-87091518D01*
X139166631Y-87088599D01*
X139247539Y-87073869D01*
X139317238Y-87048339D01*
X139373603Y-87013018D01*
X139414508Y-86968919D01*
X139437830Y-86917052D01*
X139441442Y-86858428D01*
X139435924Y-86829534D01*
X139409240Y-86773644D01*
X139363052Y-86727985D01*
X139298070Y-86693148D01*
X139215008Y-86669730D01*
X139190334Y-86665281D01*
X139101005Y-86654782D01*
X139021198Y-86656011D01*
X138943105Y-86668946D01*
X138907962Y-86675736D01*
X138862524Y-86676753D01*
X138831209Y-86664222D01*
X138811056Y-86637435D01*
X138804672Y-86609188D01*
X138814158Y-86577964D01*
X138823487Y-86564539D01*
X138857722Y-86541007D01*
X138910344Y-86523135D01*
X138978860Y-86511639D01*
X139060779Y-86507232D01*
X139157929Y-86511219D01*
G36*
X139157929Y-86511219D02*
G01*
X139263936Y-86527534D01*
X139357748Y-86555585D01*
X139436544Y-86594492D01*
X139497498Y-86643374D01*
X139523568Y-86676235D01*
X139553076Y-86725434D01*
X139578347Y-86779292D01*
X139595997Y-86830459D01*
X139602637Y-86871584D01*
X139601077Y-86891299D01*
X139588136Y-86942632D01*
X139564973Y-86999158D01*
X139535081Y-87053075D01*
X139501952Y-87096579D01*
X139491756Y-87106927D01*
X139424671Y-87158702D01*
X139344545Y-87198594D01*
X139258335Y-87222996D01*
X139203371Y-87231108D01*
X139109918Y-87237713D01*
X139020137Y-87235626D01*
X138937648Y-87225380D01*
X138866065Y-87207510D01*
X138809007Y-87182548D01*
X138770090Y-87151028D01*
X138768715Y-87149052D01*
X138761627Y-87123826D01*
X138757388Y-87076575D01*
X138755979Y-87007111D01*
X138756839Y-86944878D01*
X138761559Y-86897496D01*
X138773249Y-86865393D01*
X138795018Y-86845840D01*
X138829977Y-86836110D01*
X138881235Y-86833473D01*
X138951902Y-86835201D01*
X139000522Y-86838213D01*
X139050718Y-86846406D01*
X139083212Y-86860459D01*
X139100671Y-86881694D01*
X139105762Y-86911434D01*
X139105656Y-86915976D01*
X139096954Y-86950770D01*
X139072944Y-86974187D01*
X139031679Y-86987387D01*
X138971210Y-86991529D01*
X138902735Y-86991529D01*
X138902735Y-87029881D01*
X138902785Y-87039016D01*
X138905006Y-87056267D01*
X138914273Y-87066561D01*
X138935654Y-87073499D01*
X138974215Y-87080681D01*
X138979689Y-87081615D01*
X139076639Y-87091518D01*
X139166631Y-87088599D01*
X139247539Y-87073869D01*
X139317238Y-87048339D01*
X139373603Y-87013018D01*
X139414508Y-86968919D01*
X139437830Y-86917052D01*
X139441442Y-86858428D01*
X139435924Y-86829534D01*
X139409240Y-86773644D01*
X139363052Y-86727985D01*
X139298070Y-86693148D01*
X139215008Y-86669730D01*
X139190334Y-86665281D01*
X139101005Y-86654782D01*
X139021198Y-86656011D01*
X138943105Y-86668946D01*
X138907962Y-86675736D01*
X138862524Y-86676753D01*
X138831209Y-86664222D01*
X138811056Y-86637435D01*
X138804672Y-86609188D01*
X138814158Y-86577964D01*
X138823487Y-86564539D01*
X138857722Y-86541007D01*
X138910344Y-86523135D01*
X138978860Y-86511639D01*
X139060779Y-86507232D01*
X139157929Y-86511219D01*
G37*
X137208582Y-86535851D02*
X137213531Y-86542535D01*
X137219375Y-86553106D01*
X137223836Y-86567193D01*
X137227100Y-86587518D01*
X137229353Y-86616805D01*
X137230781Y-86657777D01*
X137231571Y-86713157D01*
X137231908Y-86785668D01*
X137231979Y-86878034D01*
X137231950Y-86943951D01*
X137231718Y-87022268D01*
X137231098Y-87082536D01*
X137229905Y-87127433D01*
X137227958Y-87159642D01*
X137225073Y-87181840D01*
X137221067Y-87196709D01*
X137215758Y-87206929D01*
X137208962Y-87215178D01*
X137204447Y-87219835D01*
X137196217Y-87226322D01*
X137184857Y-87231234D01*
X137167589Y-87234789D01*
X137141634Y-87237207D01*
X137104215Y-87238707D01*
X137052552Y-87239507D01*
X136983868Y-87239827D01*
X136895385Y-87239885D01*
X136875710Y-87239878D01*
X136788685Y-87239612D01*
X136721033Y-87238846D01*
X136670078Y-87237432D01*
X136633146Y-87235220D01*
X136607562Y-87232062D01*
X136590650Y-87227809D01*
X136579736Y-87222311D01*
X136569243Y-87212325D01*
X136555982Y-87181208D01*
X136557165Y-87145320D01*
X136573329Y-87113773D01*
X136575518Y-87111497D01*
X136584206Y-87105229D01*
X136597548Y-87100563D01*
X136618531Y-87097267D01*
X136650142Y-87095108D01*
X136695369Y-87093854D01*
X136757199Y-87093271D01*
X136838618Y-87093129D01*
X137085224Y-87093129D01*
X137085224Y-86935085D01*
X136922785Y-86935085D01*
X136887117Y-86935004D01*
X136831347Y-86934207D01*
X136792209Y-86932202D01*
X136765755Y-86928561D01*
X136748038Y-86922852D01*
X136735108Y-86914647D01*
X136731465Y-86911463D01*
X136713057Y-86880488D01*
X136712423Y-86844152D01*
X136729962Y-86810533D01*
X136730024Y-86810464D01*
X136739695Y-86801838D01*
X136752988Y-86795782D01*
X136773696Y-86791851D01*
X136805607Y-86789596D01*
X136852513Y-86788571D01*
X136918203Y-86788329D01*
X137086350Y-86788329D01*
X137082965Y-86723418D01*
X137079579Y-86658507D01*
X136837502Y-86655454D01*
X136812486Y-86655126D01*
X136730866Y-86653646D01*
X136668547Y-86651262D01*
X136622933Y-86647267D01*
X136591431Y-86640953D01*
X136571446Y-86631614D01*
X136560383Y-86618543D01*
X136555648Y-86601032D01*
X136554646Y-86578375D01*
X136554652Y-86576010D01*
X136555806Y-86555979D01*
X136560603Y-86540186D01*
X136571411Y-86528130D01*
X136590596Y-86519307D01*
X136620524Y-86513215D01*
X136663562Y-86509351D01*
X136722078Y-86507214D01*
X136798436Y-86506300D01*
X136895005Y-86506107D01*
X137185185Y-86506107D01*
X137208582Y-86535851D01*
G36*
X137208582Y-86535851D02*
G01*
X137213531Y-86542535D01*
X137219375Y-86553106D01*
X137223836Y-86567193D01*
X137227100Y-86587518D01*
X137229353Y-86616805D01*
X137230781Y-86657777D01*
X137231571Y-86713157D01*
X137231908Y-86785668D01*
X137231979Y-86878034D01*
X137231950Y-86943951D01*
X137231718Y-87022268D01*
X137231098Y-87082536D01*
X137229905Y-87127433D01*
X137227958Y-87159642D01*
X137225073Y-87181840D01*
X137221067Y-87196709D01*
X137215758Y-87206929D01*
X137208962Y-87215178D01*
X137204447Y-87219835D01*
X137196217Y-87226322D01*
X137184857Y-87231234D01*
X137167589Y-87234789D01*
X137141634Y-87237207D01*
X137104215Y-87238707D01*
X137052552Y-87239507D01*
X136983868Y-87239827D01*
X136895385Y-87239885D01*
X136875710Y-87239878D01*
X136788685Y-87239612D01*
X136721033Y-87238846D01*
X136670078Y-87237432D01*
X136633146Y-87235220D01*
X136607562Y-87232062D01*
X136590650Y-87227809D01*
X136579736Y-87222311D01*
X136569243Y-87212325D01*
X136555982Y-87181208D01*
X136557165Y-87145320D01*
X136573329Y-87113773D01*
X136575518Y-87111497D01*
X136584206Y-87105229D01*
X136597548Y-87100563D01*
X136618531Y-87097267D01*
X136650142Y-87095108D01*
X136695369Y-87093854D01*
X136757199Y-87093271D01*
X136838618Y-87093129D01*
X137085224Y-87093129D01*
X137085224Y-86935085D01*
X136922785Y-86935085D01*
X136887117Y-86935004D01*
X136831347Y-86934207D01*
X136792209Y-86932202D01*
X136765755Y-86928561D01*
X136748038Y-86922852D01*
X136735108Y-86914647D01*
X136731465Y-86911463D01*
X136713057Y-86880488D01*
X136712423Y-86844152D01*
X136729962Y-86810533D01*
X136730024Y-86810464D01*
X136739695Y-86801838D01*
X136752988Y-86795782D01*
X136773696Y-86791851D01*
X136805607Y-86789596D01*
X136852513Y-86788571D01*
X136918203Y-86788329D01*
X137086350Y-86788329D01*
X137082965Y-86723418D01*
X137079579Y-86658507D01*
X136837502Y-86655454D01*
X136812486Y-86655126D01*
X136730866Y-86653646D01*
X136668547Y-86651262D01*
X136622933Y-86647267D01*
X136591431Y-86640953D01*
X136571446Y-86631614D01*
X136560383Y-86618543D01*
X136555648Y-86601032D01*
X136554646Y-86578375D01*
X136554652Y-86576010D01*
X136555806Y-86555979D01*
X136560603Y-86540186D01*
X136571411Y-86528130D01*
X136590596Y-86519307D01*
X136620524Y-86513215D01*
X136663562Y-86509351D01*
X136722078Y-86507214D01*
X136798436Y-86506300D01*
X136895005Y-86506107D01*
X137185185Y-86506107D01*
X137208582Y-86535851D01*
G37*
X141885513Y-86506123D02*
X141962610Y-86506315D01*
X142021556Y-86506900D01*
X142065143Y-86508091D01*
X142096162Y-86510104D01*
X142117404Y-86513152D01*
X142131661Y-86517449D01*
X142141724Y-86523212D01*
X142150385Y-86530652D01*
X142152170Y-86532333D01*
X142159414Y-86539872D01*
X142165056Y-86548890D01*
X142169296Y-86562024D01*
X142172335Y-86581912D01*
X142174373Y-86611191D01*
X142175609Y-86652498D01*
X142176244Y-86708471D01*
X142176479Y-86781747D01*
X142176513Y-86874963D01*
X142176476Y-86947753D01*
X142176227Y-87025929D01*
X142175591Y-87086143D01*
X142174394Y-87131022D01*
X142172463Y-87163192D01*
X142169625Y-87185279D01*
X142165706Y-87199910D01*
X142160534Y-87209710D01*
X142153935Y-87217307D01*
X142150601Y-87220484D01*
X142142079Y-87226594D01*
X142130077Y-87231269D01*
X142111866Y-87234699D01*
X142084719Y-87237076D01*
X142045908Y-87238592D01*
X141992703Y-87239438D01*
X141922377Y-87239805D01*
X141832201Y-87239885D01*
X141790093Y-87239873D01*
X141708946Y-87239691D01*
X141646454Y-87239138D01*
X141599888Y-87238022D01*
X141566520Y-87236153D01*
X141543623Y-87233338D01*
X141528467Y-87229386D01*
X141518325Y-87224106D01*
X141510468Y-87217307D01*
X141495742Y-87195707D01*
X141487890Y-87166507D01*
X141493389Y-87142600D01*
X141510468Y-87115707D01*
X141515447Y-87111099D01*
X141525222Y-87104812D01*
X141539338Y-87100186D01*
X141560833Y-87096970D01*
X141592747Y-87094910D01*
X141638121Y-87093752D01*
X141699992Y-87093242D01*
X141781401Y-87093129D01*
X142029757Y-87093129D01*
X142029757Y-86935085D01*
X141868580Y-86935085D01*
X141832762Y-86934939D01*
X141767138Y-86933216D01*
X141719897Y-86928781D01*
X141688162Y-86920677D01*
X141669056Y-86907946D01*
X141659702Y-86889632D01*
X141657224Y-86864778D01*
X141658021Y-86844522D01*
X141663273Y-86822696D01*
X141676067Y-86807344D01*
X141699407Y-86797349D01*
X141736296Y-86791593D01*
X141789738Y-86788959D01*
X141862737Y-86788329D01*
X142030884Y-86788329D01*
X142027498Y-86723418D01*
X142024113Y-86658507D01*
X141776396Y-86655458D01*
X141713805Y-86654579D01*
X141645344Y-86653135D01*
X141594440Y-86651204D01*
X141558187Y-86648554D01*
X141533680Y-86644950D01*
X141518014Y-86640161D01*
X141508285Y-86633953D01*
X141502270Y-86627550D01*
X141489261Y-86595868D01*
X141492822Y-86560182D01*
X141512597Y-86529124D01*
X141515848Y-86526201D01*
X141524828Y-86519850D01*
X141536932Y-86514997D01*
X141554938Y-86511443D01*
X141581626Y-86508986D01*
X141619776Y-86507425D01*
X141672165Y-86506558D01*
X141741573Y-86506186D01*
X141830780Y-86506107D01*
X141885513Y-86506123D01*
G36*
X141885513Y-86506123D02*
G01*
X141962610Y-86506315D01*
X142021556Y-86506900D01*
X142065143Y-86508091D01*
X142096162Y-86510104D01*
X142117404Y-86513152D01*
X142131661Y-86517449D01*
X142141724Y-86523212D01*
X142150385Y-86530652D01*
X142152170Y-86532333D01*
X142159414Y-86539872D01*
X142165056Y-86548890D01*
X142169296Y-86562024D01*
X142172335Y-86581912D01*
X142174373Y-86611191D01*
X142175609Y-86652498D01*
X142176244Y-86708471D01*
X142176479Y-86781747D01*
X142176513Y-86874963D01*
X142176476Y-86947753D01*
X142176227Y-87025929D01*
X142175591Y-87086143D01*
X142174394Y-87131022D01*
X142172463Y-87163192D01*
X142169625Y-87185279D01*
X142165706Y-87199910D01*
X142160534Y-87209710D01*
X142153935Y-87217307D01*
X142150601Y-87220484D01*
X142142079Y-87226594D01*
X142130077Y-87231269D01*
X142111866Y-87234699D01*
X142084719Y-87237076D01*
X142045908Y-87238592D01*
X141992703Y-87239438D01*
X141922377Y-87239805D01*
X141832201Y-87239885D01*
X141790093Y-87239873D01*
X141708946Y-87239691D01*
X141646454Y-87239138D01*
X141599888Y-87238022D01*
X141566520Y-87236153D01*
X141543623Y-87233338D01*
X141528467Y-87229386D01*
X141518325Y-87224106D01*
X141510468Y-87217307D01*
X141495742Y-87195707D01*
X141487890Y-87166507D01*
X141493389Y-87142600D01*
X141510468Y-87115707D01*
X141515447Y-87111099D01*
X141525222Y-87104812D01*
X141539338Y-87100186D01*
X141560833Y-87096970D01*
X141592747Y-87094910D01*
X141638121Y-87093752D01*
X141699992Y-87093242D01*
X141781401Y-87093129D01*
X142029757Y-87093129D01*
X142029757Y-86935085D01*
X141868580Y-86935085D01*
X141832762Y-86934939D01*
X141767138Y-86933216D01*
X141719897Y-86928781D01*
X141688162Y-86920677D01*
X141669056Y-86907946D01*
X141659702Y-86889632D01*
X141657224Y-86864778D01*
X141658021Y-86844522D01*
X141663273Y-86822696D01*
X141676067Y-86807344D01*
X141699407Y-86797349D01*
X141736296Y-86791593D01*
X141789738Y-86788959D01*
X141862737Y-86788329D01*
X142030884Y-86788329D01*
X142027498Y-86723418D01*
X142024113Y-86658507D01*
X141776396Y-86655458D01*
X141713805Y-86654579D01*
X141645344Y-86653135D01*
X141594440Y-86651204D01*
X141558187Y-86648554D01*
X141533680Y-86644950D01*
X141518014Y-86640161D01*
X141508285Y-86633953D01*
X141502270Y-86627550D01*
X141489261Y-86595868D01*
X141492822Y-86560182D01*
X141512597Y-86529124D01*
X141515848Y-86526201D01*
X141524828Y-86519850D01*
X141536932Y-86514997D01*
X141554938Y-86511443D01*
X141581626Y-86508986D01*
X141619776Y-86507425D01*
X141672165Y-86506558D01*
X141741573Y-86506186D01*
X141830780Y-86506107D01*
X141885513Y-86506123D01*
G37*
X133318481Y-86515518D02*
X133336442Y-86534029D01*
X133357042Y-86565111D01*
X133381874Y-86610796D01*
X133412529Y-86673118D01*
X133450599Y-86754111D01*
X133465233Y-86785494D01*
X133494982Y-86848678D01*
X133521076Y-86903284D01*
X133542071Y-86946330D01*
X133556518Y-86974833D01*
X133562970Y-86985810D01*
X133564329Y-86985229D01*
X133574321Y-86971282D01*
X133591612Y-86941744D01*
X133614209Y-86900127D01*
X133640117Y-86849943D01*
X133656090Y-86818454D01*
X133685040Y-86763101D01*
X133707528Y-86724084D01*
X133725744Y-86698606D01*
X133741875Y-86683871D01*
X133758109Y-86677082D01*
X133776636Y-86675440D01*
X133787139Y-86675915D01*
X133803255Y-86680122D01*
X133818569Y-86690986D01*
X133835167Y-86711259D01*
X133855136Y-86743694D01*
X133880562Y-86791044D01*
X133913531Y-86856062D01*
X133923264Y-86875317D01*
X133947722Y-86921986D01*
X133967957Y-86958149D01*
X133982090Y-86980537D01*
X133988239Y-86985885D01*
X133989606Y-86982613D01*
X133998981Y-86961704D01*
X134015841Y-86924765D01*
X134038758Y-86874914D01*
X134066299Y-86815266D01*
X134097034Y-86748938D01*
X134123749Y-86691717D01*
X134153372Y-86629728D01*
X134176443Y-86583989D01*
X134194422Y-86551948D01*
X134208769Y-86531054D01*
X134220945Y-86518758D01*
X134232411Y-86512506D01*
X134241821Y-86509614D01*
X134266926Y-86509465D01*
X134294069Y-86524808D01*
X134295369Y-86525793D01*
X134317453Y-86548428D01*
X134328502Y-86570653D01*
X134328548Y-86571293D01*
X134324007Y-86588955D01*
X134311143Y-86623521D01*
X134291384Y-86671866D01*
X134266160Y-86730865D01*
X134236898Y-86797395D01*
X134205029Y-86868331D01*
X134171980Y-86940547D01*
X134139180Y-87010920D01*
X134108059Y-87076325D01*
X134080044Y-87133637D01*
X134056565Y-87179732D01*
X134039051Y-87211486D01*
X134028930Y-87225773D01*
X133994522Y-87239142D01*
X133952825Y-87232781D01*
X133947460Y-87228084D01*
X133931631Y-87205933D01*
X133909429Y-87169172D01*
X133883012Y-87121455D01*
X133854539Y-87066433D01*
X133774765Y-86907190D01*
X133701578Y-87053782D01*
X133691882Y-87073072D01*
X133664904Y-87125420D01*
X133640875Y-87170210D01*
X133622111Y-87203194D01*
X133610925Y-87220129D01*
X133609779Y-87221372D01*
X133581658Y-87236659D01*
X133546596Y-87238342D01*
X133515555Y-87225773D01*
X133513129Y-87222924D01*
X133500869Y-87202299D01*
X133481131Y-87164748D01*
X133455227Y-87112920D01*
X133424464Y-87049463D01*
X133390154Y-86977025D01*
X133353604Y-86898256D01*
X133333364Y-86854133D01*
X133296591Y-86773405D01*
X133268134Y-86709727D01*
X133247110Y-86660792D01*
X133232633Y-86624297D01*
X133223818Y-86597935D01*
X133219783Y-86579401D01*
X133219641Y-86566392D01*
X133222509Y-86556601D01*
X133237166Y-86535718D01*
X133263769Y-86515417D01*
X133264524Y-86515075D01*
X133284114Y-86508074D01*
X133301569Y-86507544D01*
X133318481Y-86515518D01*
G36*
X133318481Y-86515518D02*
G01*
X133336442Y-86534029D01*
X133357042Y-86565111D01*
X133381874Y-86610796D01*
X133412529Y-86673118D01*
X133450599Y-86754111D01*
X133465233Y-86785494D01*
X133494982Y-86848678D01*
X133521076Y-86903284D01*
X133542071Y-86946330D01*
X133556518Y-86974833D01*
X133562970Y-86985810D01*
X133564329Y-86985229D01*
X133574321Y-86971282D01*
X133591612Y-86941744D01*
X133614209Y-86900127D01*
X133640117Y-86849943D01*
X133656090Y-86818454D01*
X133685040Y-86763101D01*
X133707528Y-86724084D01*
X133725744Y-86698606D01*
X133741875Y-86683871D01*
X133758109Y-86677082D01*
X133776636Y-86675440D01*
X133787139Y-86675915D01*
X133803255Y-86680122D01*
X133818569Y-86690986D01*
X133835167Y-86711259D01*
X133855136Y-86743694D01*
X133880562Y-86791044D01*
X133913531Y-86856062D01*
X133923264Y-86875317D01*
X133947722Y-86921986D01*
X133967957Y-86958149D01*
X133982090Y-86980537D01*
X133988239Y-86985885D01*
X133989606Y-86982613D01*
X133998981Y-86961704D01*
X134015841Y-86924765D01*
X134038758Y-86874914D01*
X134066299Y-86815266D01*
X134097034Y-86748938D01*
X134123749Y-86691717D01*
X134153372Y-86629728D01*
X134176443Y-86583989D01*
X134194422Y-86551948D01*
X134208769Y-86531054D01*
X134220945Y-86518758D01*
X134232411Y-86512506D01*
X134241821Y-86509614D01*
X134266926Y-86509465D01*
X134294069Y-86524808D01*
X134295369Y-86525793D01*
X134317453Y-86548428D01*
X134328502Y-86570653D01*
X134328548Y-86571293D01*
X134324007Y-86588955D01*
X134311143Y-86623521D01*
X134291384Y-86671866D01*
X134266160Y-86730865D01*
X134236898Y-86797395D01*
X134205029Y-86868331D01*
X134171980Y-86940547D01*
X134139180Y-87010920D01*
X134108059Y-87076325D01*
X134080044Y-87133637D01*
X134056565Y-87179732D01*
X134039051Y-87211486D01*
X134028930Y-87225773D01*
X133994522Y-87239142D01*
X133952825Y-87232781D01*
X133947460Y-87228084D01*
X133931631Y-87205933D01*
X133909429Y-87169172D01*
X133883012Y-87121455D01*
X133854539Y-87066433D01*
X133774765Y-86907190D01*
X133701578Y-87053782D01*
X133691882Y-87073072D01*
X133664904Y-87125420D01*
X133640875Y-87170210D01*
X133622111Y-87203194D01*
X133610925Y-87220129D01*
X133609779Y-87221372D01*
X133581658Y-87236659D01*
X133546596Y-87238342D01*
X133515555Y-87225773D01*
X133513129Y-87222924D01*
X133500869Y-87202299D01*
X133481131Y-87164748D01*
X133455227Y-87112920D01*
X133424464Y-87049463D01*
X133390154Y-86977025D01*
X133353604Y-86898256D01*
X133333364Y-86854133D01*
X133296591Y-86773405D01*
X133268134Y-86709727D01*
X133247110Y-86660792D01*
X133232633Y-86624297D01*
X133223818Y-86597935D01*
X133219783Y-86579401D01*
X133219641Y-86566392D01*
X133222509Y-86556601D01*
X133237166Y-86535718D01*
X133263769Y-86515417D01*
X133264524Y-86515075D01*
X133284114Y-86508074D01*
X133301569Y-86507544D01*
X133318481Y-86515518D01*
G37*
X140869632Y-86506976D02*
X140935879Y-86512406D01*
X140991179Y-86522004D01*
X141042062Y-86536865D01*
X141113374Y-86569998D01*
X141164531Y-86612680D01*
X141195354Y-86664745D01*
X141205668Y-86726023D01*
X141204731Y-86757272D01*
X141198939Y-86782069D01*
X141184132Y-86803739D01*
X141156159Y-86831089D01*
X141148181Y-86838418D01*
X141124471Y-86859321D01*
X141102077Y-86876291D01*
X141078044Y-86890245D01*
X141049416Y-86902096D01*
X141013239Y-86912760D01*
X140966559Y-86923151D01*
X140906420Y-86934186D01*
X140829869Y-86946778D01*
X140733950Y-86961844D01*
X140715587Y-86964878D01*
X140653257Y-86978498D01*
X140608039Y-86994232D01*
X140581755Y-87011303D01*
X140576226Y-87028937D01*
X140578847Y-87033208D01*
X140596779Y-87048273D01*
X140624905Y-87064907D01*
X140637705Y-87070897D01*
X140659003Y-87078090D01*
X140685389Y-87082867D01*
X140721233Y-87085686D01*
X140770907Y-87087004D01*
X140838779Y-87087277D01*
X140856564Y-87087204D01*
X140924185Y-87086093D01*
X140989124Y-87083868D01*
X141044749Y-87080802D01*
X141084430Y-87077167D01*
X141119941Y-87073099D01*
X141149194Y-87072316D01*
X141168094Y-87076916D01*
X141183208Y-87087591D01*
X141186864Y-87091184D01*
X141203206Y-87122958D01*
X141201886Y-87158612D01*
X141182929Y-87189230D01*
X141162559Y-87200836D01*
X141126575Y-87213531D01*
X141084151Y-87223581D01*
X141080701Y-87224180D01*
X141038031Y-87229396D01*
X140980645Y-87233770D01*
X140915628Y-87236858D01*
X140850068Y-87238217D01*
X140833836Y-87238258D01*
X140735523Y-87235781D01*
X140655471Y-87227775D01*
X140590292Y-87213243D01*
X140536596Y-87191189D01*
X140490995Y-87160616D01*
X140450102Y-87120526D01*
X140429981Y-87094299D01*
X140418355Y-87064752D01*
X140415446Y-87025035D01*
X140415587Y-87013066D01*
X140419460Y-86980385D01*
X140431844Y-86953859D01*
X140457009Y-86923011D01*
X140478221Y-86900871D01*
X140504617Y-86878325D01*
X140534334Y-86859957D01*
X140570564Y-86844701D01*
X140616496Y-86831489D01*
X140675323Y-86819254D01*
X140750235Y-86806929D01*
X140844424Y-86793446D01*
X140889736Y-86786436D01*
X140957690Y-86771877D01*
X141006826Y-86755377D01*
X141036393Y-86737479D01*
X141045643Y-86718725D01*
X141033827Y-86699655D01*
X141000195Y-86680811D01*
X140997149Y-86679597D01*
X140950790Y-86667519D01*
X140888140Y-86659319D01*
X140814706Y-86655159D01*
X140735996Y-86655201D01*
X140657518Y-86659609D01*
X140584779Y-86668545D01*
X140580852Y-86669194D01*
X140532036Y-86676901D01*
X140499784Y-86680513D01*
X140478787Y-86679916D01*
X140463733Y-86674994D01*
X140449313Y-86665636D01*
X140448143Y-86664765D01*
X140423626Y-86634391D01*
X140418833Y-86598890D01*
X140434639Y-86564309D01*
X140439185Y-86559853D01*
X140468799Y-86544713D01*
X140515781Y-86531590D01*
X140576085Y-86520790D01*
X140645667Y-86512621D01*
X140720482Y-86507391D01*
X140796485Y-86505407D01*
X140869632Y-86506976D01*
G36*
X140869632Y-86506976D02*
G01*
X140935879Y-86512406D01*
X140991179Y-86522004D01*
X141042062Y-86536865D01*
X141113374Y-86569998D01*
X141164531Y-86612680D01*
X141195354Y-86664745D01*
X141205668Y-86726023D01*
X141204731Y-86757272D01*
X141198939Y-86782069D01*
X141184132Y-86803739D01*
X141156159Y-86831089D01*
X141148181Y-86838418D01*
X141124471Y-86859321D01*
X141102077Y-86876291D01*
X141078044Y-86890245D01*
X141049416Y-86902096D01*
X141013239Y-86912760D01*
X140966559Y-86923151D01*
X140906420Y-86934186D01*
X140829869Y-86946778D01*
X140733950Y-86961844D01*
X140715587Y-86964878D01*
X140653257Y-86978498D01*
X140608039Y-86994232D01*
X140581755Y-87011303D01*
X140576226Y-87028937D01*
X140578847Y-87033208D01*
X140596779Y-87048273D01*
X140624905Y-87064907D01*
X140637705Y-87070897D01*
X140659003Y-87078090D01*
X140685389Y-87082867D01*
X140721233Y-87085686D01*
X140770907Y-87087004D01*
X140838779Y-87087277D01*
X140856564Y-87087204D01*
X140924185Y-87086093D01*
X140989124Y-87083868D01*
X141044749Y-87080802D01*
X141084430Y-87077167D01*
X141119941Y-87073099D01*
X141149194Y-87072316D01*
X141168094Y-87076916D01*
X141183208Y-87087591D01*
X141186864Y-87091184D01*
X141203206Y-87122958D01*
X141201886Y-87158612D01*
X141182929Y-87189230D01*
X141162559Y-87200836D01*
X141126575Y-87213531D01*
X141084151Y-87223581D01*
X141080701Y-87224180D01*
X141038031Y-87229396D01*
X140980645Y-87233770D01*
X140915628Y-87236858D01*
X140850068Y-87238217D01*
X140833836Y-87238258D01*
X140735523Y-87235781D01*
X140655471Y-87227775D01*
X140590292Y-87213243D01*
X140536596Y-87191189D01*
X140490995Y-87160616D01*
X140450102Y-87120526D01*
X140429981Y-87094299D01*
X140418355Y-87064752D01*
X140415446Y-87025035D01*
X140415587Y-87013066D01*
X140419460Y-86980385D01*
X140431844Y-86953859D01*
X140457009Y-86923011D01*
X140478221Y-86900871D01*
X140504617Y-86878325D01*
X140534334Y-86859957D01*
X140570564Y-86844701D01*
X140616496Y-86831489D01*
X140675323Y-86819254D01*
X140750235Y-86806929D01*
X140844424Y-86793446D01*
X140889736Y-86786436D01*
X140957690Y-86771877D01*
X141006826Y-86755377D01*
X141036393Y-86737479D01*
X141045643Y-86718725D01*
X141033827Y-86699655D01*
X141000195Y-86680811D01*
X140997149Y-86679597D01*
X140950790Y-86667519D01*
X140888140Y-86659319D01*
X140814706Y-86655159D01*
X140735996Y-86655201D01*
X140657518Y-86659609D01*
X140584779Y-86668545D01*
X140580852Y-86669194D01*
X140532036Y-86676901D01*
X140499784Y-86680513D01*
X140478787Y-86679916D01*
X140463733Y-86674994D01*
X140449313Y-86665636D01*
X140448143Y-86664765D01*
X140423626Y-86634391D01*
X140418833Y-86598890D01*
X140434639Y-86564309D01*
X140439185Y-86559853D01*
X140468799Y-86544713D01*
X140515781Y-86531590D01*
X140576085Y-86520790D01*
X140645667Y-86512621D01*
X140720482Y-86507391D01*
X140796485Y-86505407D01*
X140869632Y-86506976D01*
G37*
X136869334Y-81028926D02*
X137053835Y-81045863D01*
X137225236Y-81080022D01*
X137389914Y-81132839D01*
X137554243Y-81205753D01*
X137716911Y-81298849D01*
X137891486Y-81425762D01*
X138053375Y-81572498D01*
X138199015Y-81735424D01*
X138324839Y-81910907D01*
X138427284Y-82095316D01*
X138436583Y-82115044D01*
X138514460Y-82305461D01*
X138573635Y-82503325D01*
X138614874Y-82712418D01*
X138638939Y-82936518D01*
X138646598Y-83179407D01*
X138637286Y-83430491D01*
X138607731Y-83677760D01*
X138557474Y-83909231D01*
X138486064Y-84126547D01*
X138393053Y-84331350D01*
X138277991Y-84525281D01*
X138169909Y-84673442D01*
X138020671Y-84840148D01*
X137858008Y-84982937D01*
X137681992Y-85101762D01*
X137492694Y-85196577D01*
X137290184Y-85267335D01*
X137074535Y-85313990D01*
X137072074Y-85314353D01*
X137030545Y-85317997D01*
X136967875Y-85320700D01*
X136889860Y-85322335D01*
X136802295Y-85322778D01*
X136710974Y-85321900D01*
X136646971Y-85320615D01*
X136552010Y-85317638D01*
X136475915Y-85313376D01*
X136413199Y-85307374D01*
X136358372Y-85299177D01*
X136305947Y-85288330D01*
X136246964Y-85274313D01*
X136185427Y-85258351D01*
X136129773Y-85241606D01*
X136074950Y-85222116D01*
X136015909Y-85197921D01*
X135947598Y-85167058D01*
X135864965Y-85127567D01*
X135762960Y-85077487D01*
X135480839Y-84938063D01*
X135706800Y-84566915D01*
X135736383Y-84518338D01*
X135789530Y-84431137D01*
X135837101Y-84353179D01*
X135877355Y-84287306D01*
X135908555Y-84236364D01*
X135928963Y-84203195D01*
X135936839Y-84190643D01*
X135939029Y-84191018D01*
X135956675Y-84203302D01*
X135987676Y-84228795D01*
X136027134Y-84263542D01*
X136097407Y-84323577D01*
X136222858Y-84412354D01*
X136344576Y-84474242D01*
X136432532Y-84505148D01*
X136581304Y-84536733D01*
X136727476Y-84542332D01*
X136868930Y-84522325D01*
X137003545Y-84477094D01*
X137129201Y-84407021D01*
X137243780Y-84312487D01*
X137307536Y-84242859D01*
X137397354Y-84114072D01*
X137471054Y-83964621D01*
X137528988Y-83793740D01*
X137571508Y-83600665D01*
X137573438Y-83588679D01*
X137582350Y-83510991D01*
X137588984Y-83414465D01*
X137593287Y-83305697D01*
X137595206Y-83191282D01*
X137594685Y-83077816D01*
X137591672Y-82971894D01*
X137586113Y-82880111D01*
X137577954Y-82809065D01*
X137546681Y-82648128D01*
X137494061Y-82460134D01*
X137427882Y-82295548D01*
X137348234Y-82154497D01*
X137255204Y-82037108D01*
X137148881Y-81943511D01*
X137029354Y-81873830D01*
X136896711Y-81828195D01*
X136867282Y-81822531D01*
X136793531Y-81815136D01*
X136707343Y-81812722D01*
X136618371Y-81815156D01*
X136536273Y-81822308D01*
X136470704Y-81834043D01*
X136361473Y-81871409D01*
X136234714Y-81939626D01*
X136121845Y-82029398D01*
X136101924Y-82048309D01*
X136065827Y-82081766D01*
X136040316Y-82104286D01*
X136029951Y-82111776D01*
X136027400Y-82108194D01*
X136011693Y-82085571D01*
X135983319Y-82044495D01*
X135944151Y-81987684D01*
X135896065Y-81917860D01*
X135840935Y-81837741D01*
X135780636Y-81750049D01*
X135534001Y-81391250D01*
X135589098Y-81374743D01*
X135594847Y-81372872D01*
X135632272Y-81358014D01*
X135686231Y-81334056D01*
X135750389Y-81303879D01*
X135818416Y-81270365D01*
X135848059Y-81255548D01*
X136012663Y-81179049D01*
X136164377Y-81119893D01*
X136309035Y-81076566D01*
X136452473Y-81047555D01*
X136600525Y-81031347D01*
X136759028Y-81026428D01*
X136869334Y-81028926D01*
G36*
X136869334Y-81028926D02*
G01*
X137053835Y-81045863D01*
X137225236Y-81080022D01*
X137389914Y-81132839D01*
X137554243Y-81205753D01*
X137716911Y-81298849D01*
X137891486Y-81425762D01*
X138053375Y-81572498D01*
X138199015Y-81735424D01*
X138324839Y-81910907D01*
X138427284Y-82095316D01*
X138436583Y-82115044D01*
X138514460Y-82305461D01*
X138573635Y-82503325D01*
X138614874Y-82712418D01*
X138638939Y-82936518D01*
X138646598Y-83179407D01*
X138637286Y-83430491D01*
X138607731Y-83677760D01*
X138557474Y-83909231D01*
X138486064Y-84126547D01*
X138393053Y-84331350D01*
X138277991Y-84525281D01*
X138169909Y-84673442D01*
X138020671Y-84840148D01*
X137858008Y-84982937D01*
X137681992Y-85101762D01*
X137492694Y-85196577D01*
X137290184Y-85267335D01*
X137074535Y-85313990D01*
X137072074Y-85314353D01*
X137030545Y-85317997D01*
X136967875Y-85320700D01*
X136889860Y-85322335D01*
X136802295Y-85322778D01*
X136710974Y-85321900D01*
X136646971Y-85320615D01*
X136552010Y-85317638D01*
X136475915Y-85313376D01*
X136413199Y-85307374D01*
X136358372Y-85299177D01*
X136305947Y-85288330D01*
X136246964Y-85274313D01*
X136185427Y-85258351D01*
X136129773Y-85241606D01*
X136074950Y-85222116D01*
X136015909Y-85197921D01*
X135947598Y-85167058D01*
X135864965Y-85127567D01*
X135762960Y-85077487D01*
X135480839Y-84938063D01*
X135706800Y-84566915D01*
X135736383Y-84518338D01*
X135789530Y-84431137D01*
X135837101Y-84353179D01*
X135877355Y-84287306D01*
X135908555Y-84236364D01*
X135928963Y-84203195D01*
X135936839Y-84190643D01*
X135939029Y-84191018D01*
X135956675Y-84203302D01*
X135987676Y-84228795D01*
X136027134Y-84263542D01*
X136097407Y-84323577D01*
X136222858Y-84412354D01*
X136344576Y-84474242D01*
X136432532Y-84505148D01*
X136581304Y-84536733D01*
X136727476Y-84542332D01*
X136868930Y-84522325D01*
X137003545Y-84477094D01*
X137129201Y-84407021D01*
X137243780Y-84312487D01*
X137307536Y-84242859D01*
X137397354Y-84114072D01*
X137471054Y-83964621D01*
X137528988Y-83793740D01*
X137571508Y-83600665D01*
X137573438Y-83588679D01*
X137582350Y-83510991D01*
X137588984Y-83414465D01*
X137593287Y-83305697D01*
X137595206Y-83191282D01*
X137594685Y-83077816D01*
X137591672Y-82971894D01*
X137586113Y-82880111D01*
X137577954Y-82809065D01*
X137546681Y-82648128D01*
X137494061Y-82460134D01*
X137427882Y-82295548D01*
X137348234Y-82154497D01*
X137255204Y-82037108D01*
X137148881Y-81943511D01*
X137029354Y-81873830D01*
X136896711Y-81828195D01*
X136867282Y-81822531D01*
X136793531Y-81815136D01*
X136707343Y-81812722D01*
X136618371Y-81815156D01*
X136536273Y-81822308D01*
X136470704Y-81834043D01*
X136361473Y-81871409D01*
X136234714Y-81939626D01*
X136121845Y-82029398D01*
X136101924Y-82048309D01*
X136065827Y-82081766D01*
X136040316Y-82104286D01*
X136029951Y-82111776D01*
X136027400Y-82108194D01*
X136011693Y-82085571D01*
X135983319Y-82044495D01*
X135944151Y-81987684D01*
X135896065Y-81917860D01*
X135840935Y-81837741D01*
X135780636Y-81750049D01*
X135534001Y-81391250D01*
X135589098Y-81374743D01*
X135594847Y-81372872D01*
X135632272Y-81358014D01*
X135686231Y-81334056D01*
X135750389Y-81303879D01*
X135818416Y-81270365D01*
X135848059Y-81255548D01*
X136012663Y-81179049D01*
X136164377Y-81119893D01*
X136309035Y-81076566D01*
X136452473Y-81047555D01*
X136600525Y-81031347D01*
X136759028Y-81026428D01*
X136869334Y-81028926D01*
G37*
X132384242Y-83889849D02*
X132381329Y-84016905D01*
X132372999Y-84128957D01*
X132358607Y-84232100D01*
X132337508Y-84332429D01*
X132309057Y-84436038D01*
X132265915Y-84559881D01*
X132186677Y-84727064D01*
X132089480Y-84876809D01*
X131975812Y-85007700D01*
X131847159Y-85118322D01*
X131705008Y-85207260D01*
X131550846Y-85273098D01*
X131386161Y-85314422D01*
X131384179Y-85314754D01*
X131263824Y-85326334D01*
X131131586Y-85324789D01*
X130996891Y-85311070D01*
X130869171Y-85286131D01*
X130757853Y-85250925D01*
X130710338Y-85229501D01*
X130648456Y-85196938D01*
X130584867Y-85159694D01*
X130526208Y-85121869D01*
X130479113Y-85087562D01*
X130450217Y-85060872D01*
X130443584Y-85053544D01*
X130435676Y-85050983D01*
X130430390Y-85063699D01*
X130426495Y-85095747D01*
X130422758Y-85151179D01*
X130415893Y-85266686D01*
X129890056Y-85270282D01*
X129364219Y-85273879D01*
X129400603Y-85211794D01*
X129402772Y-85208124D01*
X129413352Y-85190892D01*
X129422950Y-85175541D01*
X129431618Y-85160737D01*
X129439407Y-85145147D01*
X129446369Y-85127437D01*
X129452556Y-85106272D01*
X129458018Y-85080321D01*
X129462809Y-85048248D01*
X129466979Y-85008720D01*
X129470581Y-84960405D01*
X129473665Y-84901967D01*
X129476284Y-84832074D01*
X129478489Y-84749392D01*
X129480331Y-84652587D01*
X129481863Y-84540325D01*
X129483099Y-84415053D01*
X130484541Y-84415053D01*
X130553190Y-84460081D01*
X130579590Y-84476301D01*
X130640039Y-84508705D01*
X130697352Y-84534509D01*
X130722452Y-84543246D01*
X130802318Y-84560689D01*
X130903298Y-84569596D01*
X130954646Y-84571449D01*
X131002310Y-84571027D01*
X131037791Y-84566267D01*
X131069616Y-84555862D01*
X131106310Y-84538507D01*
X131176829Y-84492017D01*
X131237922Y-84426254D01*
X131286824Y-84341506D01*
X131324002Y-84236445D01*
X131349919Y-84109743D01*
X131365043Y-83960070D01*
X131369837Y-83786100D01*
X131369604Y-83746548D01*
X131362712Y-83563292D01*
X131345975Y-83403833D01*
X131318988Y-83266491D01*
X131281342Y-83149582D01*
X131232631Y-83051425D01*
X131172448Y-82970336D01*
X131147480Y-82945588D01*
X131070100Y-82894029D01*
X130979263Y-82862655D01*
X130878906Y-82851643D01*
X130772962Y-82861172D01*
X130665366Y-82891420D01*
X130560055Y-82942566D01*
X130484541Y-82987830D01*
X130484541Y-84415053D01*
X129483099Y-84415053D01*
X129483136Y-84411273D01*
X129484202Y-84264098D01*
X129485112Y-84097466D01*
X129485918Y-83910042D01*
X129486672Y-83700494D01*
X129487425Y-83467488D01*
X129488229Y-83209690D01*
X129489136Y-82925767D01*
X129496001Y-80831983D01*
X130041758Y-80828393D01*
X130081446Y-80828152D01*
X130198217Y-80827673D01*
X130305022Y-80827575D01*
X130398945Y-80827840D01*
X130477071Y-80828447D01*
X130536485Y-80829376D01*
X130574271Y-80830607D01*
X130587514Y-80832120D01*
X130585820Y-80836917D01*
X130573181Y-80859658D01*
X130552247Y-80892729D01*
X130550159Y-80895891D01*
X130533929Y-80921425D01*
X130520320Y-80946269D01*
X130509103Y-80972982D01*
X130500046Y-81004122D01*
X130492918Y-81042250D01*
X130487490Y-81089923D01*
X130483530Y-81149701D01*
X130480807Y-81224143D01*
X130479092Y-81315808D01*
X130478152Y-81427256D01*
X130477757Y-81561044D01*
X130477676Y-81719733D01*
X130477820Y-81843629D01*
X130478261Y-81965267D01*
X130478966Y-82075559D01*
X130479904Y-82171821D01*
X130481044Y-82251367D01*
X130482352Y-82311511D01*
X130483797Y-82349566D01*
X130485346Y-82362848D01*
X130490345Y-82360787D01*
X130512318Y-82346270D01*
X130543698Y-82322429D01*
X130589191Y-82290367D01*
X130674665Y-82243127D01*
X130772359Y-82200988D01*
X130873153Y-82168218D01*
X130957839Y-82151508D01*
X131063310Y-82140857D01*
X131177458Y-82137166D01*
X131291476Y-82140442D01*
X131396554Y-82150688D01*
X131483883Y-82167908D01*
X131572804Y-82196916D01*
X131721145Y-82267237D01*
X131858497Y-82360725D01*
X131982328Y-82475225D01*
X132090102Y-82608587D01*
X132179286Y-82758656D01*
X132201427Y-82804674D01*
X132263474Y-82959896D01*
X132311983Y-83128361D01*
X132347567Y-83313040D01*
X132370840Y-83516901D01*
X132382414Y-83742915D01*
X132382952Y-83786100D01*
X132384242Y-83889849D01*
G36*
X132384242Y-83889849D02*
G01*
X132381329Y-84016905D01*
X132372999Y-84128957D01*
X132358607Y-84232100D01*
X132337508Y-84332429D01*
X132309057Y-84436038D01*
X132265915Y-84559881D01*
X132186677Y-84727064D01*
X132089480Y-84876809D01*
X131975812Y-85007700D01*
X131847159Y-85118322D01*
X131705008Y-85207260D01*
X131550846Y-85273098D01*
X131386161Y-85314422D01*
X131384179Y-85314754D01*
X131263824Y-85326334D01*
X131131586Y-85324789D01*
X130996891Y-85311070D01*
X130869171Y-85286131D01*
X130757853Y-85250925D01*
X130710338Y-85229501D01*
X130648456Y-85196938D01*
X130584867Y-85159694D01*
X130526208Y-85121869D01*
X130479113Y-85087562D01*
X130450217Y-85060872D01*
X130443584Y-85053544D01*
X130435676Y-85050983D01*
X130430390Y-85063699D01*
X130426495Y-85095747D01*
X130422758Y-85151179D01*
X130415893Y-85266686D01*
X129890056Y-85270282D01*
X129364219Y-85273879D01*
X129400603Y-85211794D01*
X129402772Y-85208124D01*
X129413352Y-85190892D01*
X129422950Y-85175541D01*
X129431618Y-85160737D01*
X129439407Y-85145147D01*
X129446369Y-85127437D01*
X129452556Y-85106272D01*
X129458018Y-85080321D01*
X129462809Y-85048248D01*
X129466979Y-85008720D01*
X129470581Y-84960405D01*
X129473665Y-84901967D01*
X129476284Y-84832074D01*
X129478489Y-84749392D01*
X129480331Y-84652587D01*
X129481863Y-84540325D01*
X129483099Y-84415053D01*
X130484541Y-84415053D01*
X130553190Y-84460081D01*
X130579590Y-84476301D01*
X130640039Y-84508705D01*
X130697352Y-84534509D01*
X130722452Y-84543246D01*
X130802318Y-84560689D01*
X130903298Y-84569596D01*
X130954646Y-84571449D01*
X131002310Y-84571027D01*
X131037791Y-84566267D01*
X131069616Y-84555862D01*
X131106310Y-84538507D01*
X131176829Y-84492017D01*
X131237922Y-84426254D01*
X131286824Y-84341506D01*
X131324002Y-84236445D01*
X131349919Y-84109743D01*
X131365043Y-83960070D01*
X131369837Y-83786100D01*
X131369604Y-83746548D01*
X131362712Y-83563292D01*
X131345975Y-83403833D01*
X131318988Y-83266491D01*
X131281342Y-83149582D01*
X131232631Y-83051425D01*
X131172448Y-82970336D01*
X131147480Y-82945588D01*
X131070100Y-82894029D01*
X130979263Y-82862655D01*
X130878906Y-82851643D01*
X130772962Y-82861172D01*
X130665366Y-82891420D01*
X130560055Y-82942566D01*
X130484541Y-82987830D01*
X130484541Y-84415053D01*
X129483099Y-84415053D01*
X129483136Y-84411273D01*
X129484202Y-84264098D01*
X129485112Y-84097466D01*
X129485918Y-83910042D01*
X129486672Y-83700494D01*
X129487425Y-83467488D01*
X129488229Y-83209690D01*
X129489136Y-82925767D01*
X129496001Y-80831983D01*
X130041758Y-80828393D01*
X130081446Y-80828152D01*
X130198217Y-80827673D01*
X130305022Y-80827575D01*
X130398945Y-80827840D01*
X130477071Y-80828447D01*
X130536485Y-80829376D01*
X130574271Y-80830607D01*
X130587514Y-80832120D01*
X130585820Y-80836917D01*
X130573181Y-80859658D01*
X130552247Y-80892729D01*
X130550159Y-80895891D01*
X130533929Y-80921425D01*
X130520320Y-80946269D01*
X130509103Y-80972982D01*
X130500046Y-81004122D01*
X130492918Y-81042250D01*
X130487490Y-81089923D01*
X130483530Y-81149701D01*
X130480807Y-81224143D01*
X130479092Y-81315808D01*
X130478152Y-81427256D01*
X130477757Y-81561044D01*
X130477676Y-81719733D01*
X130477820Y-81843629D01*
X130478261Y-81965267D01*
X130478966Y-82075559D01*
X130479904Y-82171821D01*
X130481044Y-82251367D01*
X130482352Y-82311511D01*
X130483797Y-82349566D01*
X130485346Y-82362848D01*
X130490345Y-82360787D01*
X130512318Y-82346270D01*
X130543698Y-82322429D01*
X130589191Y-82290367D01*
X130674665Y-82243127D01*
X130772359Y-82200988D01*
X130873153Y-82168218D01*
X130957839Y-82151508D01*
X131063310Y-82140857D01*
X131177458Y-82137166D01*
X131291476Y-82140442D01*
X131396554Y-82150688D01*
X131483883Y-82167908D01*
X131572804Y-82196916D01*
X131721145Y-82267237D01*
X131858497Y-82360725D01*
X131982328Y-82475225D01*
X132090102Y-82608587D01*
X132179286Y-82758656D01*
X132201427Y-82804674D01*
X132263474Y-82959896D01*
X132311983Y-83128361D01*
X132347567Y-83313040D01*
X132370840Y-83516901D01*
X132382414Y-83742915D01*
X132382952Y-83786100D01*
X132384242Y-83889849D01*
G37*
X135487615Y-84321882D02*
X135481449Y-84432584D01*
X135468122Y-84535587D01*
X135448013Y-84621389D01*
X135415927Y-84709666D01*
X135341550Y-84855147D01*
X135246481Y-84983143D01*
X135131705Y-85092781D01*
X134998206Y-85183190D01*
X134846967Y-85253496D01*
X134678974Y-85302829D01*
X134610470Y-85313956D01*
X134512580Y-85321689D01*
X134405971Y-85323428D01*
X134299552Y-85319313D01*
X134202232Y-85309485D01*
X134122920Y-85294084D01*
X134083066Y-85281958D01*
X133992550Y-85246474D01*
X133900539Y-85201423D01*
X133816525Y-85151691D01*
X133750002Y-85102164D01*
X133749184Y-85101449D01*
X133712730Y-85070540D01*
X133684683Y-85048531D01*
X133671056Y-85040146D01*
X133669566Y-85042148D01*
X133666195Y-85063774D01*
X133663852Y-85104108D01*
X133662974Y-85156848D01*
X133662974Y-85273551D01*
X133148109Y-85273551D01*
X133134403Y-85273549D01*
X133019452Y-85273348D01*
X132913951Y-85272847D01*
X132820901Y-85272085D01*
X132743304Y-85271097D01*
X132684161Y-85269922D01*
X132646473Y-85268597D01*
X132633244Y-85267159D01*
X132633552Y-85265902D01*
X132642207Y-85247349D01*
X132660350Y-85212493D01*
X132684731Y-85167618D01*
X132736217Y-85074470D01*
X132743766Y-84154829D01*
X133717893Y-84154829D01*
X133718276Y-84227488D01*
X133720131Y-84303833D01*
X133723766Y-84359016D01*
X133729445Y-84396630D01*
X133737433Y-84420269D01*
X133747709Y-84437149D01*
X133786405Y-84483165D01*
X133838252Y-84531069D01*
X133895079Y-84573752D01*
X133948712Y-84604101D01*
X133978469Y-84615237D01*
X134046986Y-84630064D01*
X134136475Y-84637644D01*
X134230825Y-84636496D01*
X134320421Y-84620904D01*
X134395205Y-84588694D01*
X134459908Y-84538415D01*
X134478109Y-84519818D01*
X134525498Y-84456394D01*
X134551139Y-84388032D01*
X134558839Y-84305773D01*
X134556753Y-84262315D01*
X134536122Y-84172853D01*
X134492782Y-84096067D01*
X134425944Y-84031091D01*
X134334818Y-83977063D01*
X134218615Y-83933118D01*
X134171768Y-83921586D01*
X134115055Y-83913690D01*
X134043682Y-83909305D01*
X133951298Y-83907830D01*
X133936291Y-83907831D01*
X133867176Y-83908675D01*
X133807807Y-83910714D01*
X133764087Y-83913681D01*
X133741920Y-83917309D01*
X133739369Y-83918487D01*
X133731122Y-83925883D01*
X133725281Y-83940747D01*
X133721442Y-83967075D01*
X133719200Y-84008866D01*
X133718152Y-84070118D01*
X133717893Y-84154829D01*
X132743766Y-84154829D01*
X132744163Y-84106524D01*
X132745344Y-83965543D01*
X132746996Y-83785741D01*
X132748730Y-83629647D01*
X132750687Y-83495053D01*
X132753006Y-83379753D01*
X132755827Y-83281537D01*
X132759291Y-83198200D01*
X132763537Y-83127533D01*
X132768707Y-83067328D01*
X132774939Y-83015379D01*
X132782374Y-82969478D01*
X132791153Y-82927417D01*
X132801414Y-82886989D01*
X132813300Y-82845985D01*
X132826948Y-82802200D01*
X132880717Y-82664933D01*
X132954352Y-82538070D01*
X133046053Y-82429456D01*
X133156662Y-82338522D01*
X133287017Y-82264701D01*
X133437958Y-82207423D01*
X133610324Y-82166121D01*
X133804956Y-82140226D01*
X133872982Y-82135077D01*
X133987549Y-82131312D01*
X134101103Y-82134702D01*
X134218960Y-82145820D01*
X134346437Y-82165236D01*
X134488850Y-82193522D01*
X134651514Y-82231251D01*
X134689114Y-82240380D01*
X134783536Y-82262844D01*
X134873030Y-82283527D01*
X134952168Y-82301209D01*
X135015523Y-82314668D01*
X135057667Y-82322681D01*
X135154901Y-82338651D01*
X135018203Y-82669966D01*
X134984010Y-82752688D01*
X134950372Y-82833744D01*
X134921510Y-82902949D01*
X134898842Y-82956916D01*
X134883784Y-82992260D01*
X134877754Y-83005594D01*
X134876806Y-83005785D01*
X134859331Y-82999832D01*
X134824970Y-82984576D01*
X134779921Y-82962731D01*
X134686289Y-82920191D01*
X134557445Y-82873678D01*
X134425573Y-82838058D01*
X134295831Y-82814226D01*
X134173376Y-82803075D01*
X134063364Y-82805502D01*
X133970952Y-82822400D01*
X133906456Y-82849212D01*
X133833207Y-82904158D01*
X133776820Y-82978700D01*
X133738908Y-83070543D01*
X133721086Y-83177395D01*
X133714810Y-83275875D01*
X134042432Y-83276772D01*
X134152919Y-83277699D01*
X134275125Y-83280989D01*
X134379522Y-83287199D01*
X134471511Y-83296932D01*
X134556491Y-83310791D01*
X134639864Y-83329381D01*
X134727028Y-83353306D01*
X134857447Y-83398844D01*
X135010847Y-83473836D01*
X135145475Y-83565695D01*
X135260003Y-83673128D01*
X135353103Y-83794843D01*
X135423448Y-83929549D01*
X135469710Y-84075953D01*
X135476955Y-84115384D01*
X135486243Y-84212981D01*
X135487413Y-84305773D01*
X135487615Y-84321882D01*
G36*
X135487615Y-84321882D02*
G01*
X135481449Y-84432584D01*
X135468122Y-84535587D01*
X135448013Y-84621389D01*
X135415927Y-84709666D01*
X135341550Y-84855147D01*
X135246481Y-84983143D01*
X135131705Y-85092781D01*
X134998206Y-85183190D01*
X134846967Y-85253496D01*
X134678974Y-85302829D01*
X134610470Y-85313956D01*
X134512580Y-85321689D01*
X134405971Y-85323428D01*
X134299552Y-85319313D01*
X134202232Y-85309485D01*
X134122920Y-85294084D01*
X134083066Y-85281958D01*
X133992550Y-85246474D01*
X133900539Y-85201423D01*
X133816525Y-85151691D01*
X133750002Y-85102164D01*
X133749184Y-85101449D01*
X133712730Y-85070540D01*
X133684683Y-85048531D01*
X133671056Y-85040146D01*
X133669566Y-85042148D01*
X133666195Y-85063774D01*
X133663852Y-85104108D01*
X133662974Y-85156848D01*
X133662974Y-85273551D01*
X133148109Y-85273551D01*
X133134403Y-85273549D01*
X133019452Y-85273348D01*
X132913951Y-85272847D01*
X132820901Y-85272085D01*
X132743304Y-85271097D01*
X132684161Y-85269922D01*
X132646473Y-85268597D01*
X132633244Y-85267159D01*
X132633552Y-85265902D01*
X132642207Y-85247349D01*
X132660350Y-85212493D01*
X132684731Y-85167618D01*
X132736217Y-85074470D01*
X132743766Y-84154829D01*
X133717893Y-84154829D01*
X133718276Y-84227488D01*
X133720131Y-84303833D01*
X133723766Y-84359016D01*
X133729445Y-84396630D01*
X133737433Y-84420269D01*
X133747709Y-84437149D01*
X133786405Y-84483165D01*
X133838252Y-84531069D01*
X133895079Y-84573752D01*
X133948712Y-84604101D01*
X133978469Y-84615237D01*
X134046986Y-84630064D01*
X134136475Y-84637644D01*
X134230825Y-84636496D01*
X134320421Y-84620904D01*
X134395205Y-84588694D01*
X134459908Y-84538415D01*
X134478109Y-84519818D01*
X134525498Y-84456394D01*
X134551139Y-84388032D01*
X134558839Y-84305773D01*
X134556753Y-84262315D01*
X134536122Y-84172853D01*
X134492782Y-84096067D01*
X134425944Y-84031091D01*
X134334818Y-83977063D01*
X134218615Y-83933118D01*
X134171768Y-83921586D01*
X134115055Y-83913690D01*
X134043682Y-83909305D01*
X133951298Y-83907830D01*
X133936291Y-83907831D01*
X133867176Y-83908675D01*
X133807807Y-83910714D01*
X133764087Y-83913681D01*
X133741920Y-83917309D01*
X133739369Y-83918487D01*
X133731122Y-83925883D01*
X133725281Y-83940747D01*
X133721442Y-83967075D01*
X133719200Y-84008866D01*
X133718152Y-84070118D01*
X133717893Y-84154829D01*
X132743766Y-84154829D01*
X132744163Y-84106524D01*
X132745344Y-83965543D01*
X132746996Y-83785741D01*
X132748730Y-83629647D01*
X132750687Y-83495053D01*
X132753006Y-83379753D01*
X132755827Y-83281537D01*
X132759291Y-83198200D01*
X132763537Y-83127533D01*
X132768707Y-83067328D01*
X132774939Y-83015379D01*
X132782374Y-82969478D01*
X132791153Y-82927417D01*
X132801414Y-82886989D01*
X132813300Y-82845985D01*
X132826948Y-82802200D01*
X132880717Y-82664933D01*
X132954352Y-82538070D01*
X133046053Y-82429456D01*
X133156662Y-82338522D01*
X133287017Y-82264701D01*
X133437958Y-82207423D01*
X133610324Y-82166121D01*
X133804956Y-82140226D01*
X133872982Y-82135077D01*
X133987549Y-82131312D01*
X134101103Y-82134702D01*
X134218960Y-82145820D01*
X134346437Y-82165236D01*
X134488850Y-82193522D01*
X134651514Y-82231251D01*
X134689114Y-82240380D01*
X134783536Y-82262844D01*
X134873030Y-82283527D01*
X134952168Y-82301209D01*
X135015523Y-82314668D01*
X135057667Y-82322681D01*
X135154901Y-82338651D01*
X135018203Y-82669966D01*
X134984010Y-82752688D01*
X134950372Y-82833744D01*
X134921510Y-82902949D01*
X134898842Y-82956916D01*
X134883784Y-82992260D01*
X134877754Y-83005594D01*
X134876806Y-83005785D01*
X134859331Y-82999832D01*
X134824970Y-82984576D01*
X134779921Y-82962731D01*
X134686289Y-82920191D01*
X134557445Y-82873678D01*
X134425573Y-82838058D01*
X134295831Y-82814226D01*
X134173376Y-82803075D01*
X134063364Y-82805502D01*
X133970952Y-82822400D01*
X133906456Y-82849212D01*
X133833207Y-82904158D01*
X133776820Y-82978700D01*
X133738908Y-83070543D01*
X133721086Y-83177395D01*
X133714810Y-83275875D01*
X134042432Y-83276772D01*
X134152919Y-83277699D01*
X134275125Y-83280989D01*
X134379522Y-83287199D01*
X134471511Y-83296932D01*
X134556491Y-83310791D01*
X134639864Y-83329381D01*
X134727028Y-83353306D01*
X134857447Y-83398844D01*
X135010847Y-83473836D01*
X135145475Y-83565695D01*
X135260003Y-83673128D01*
X135353103Y-83794843D01*
X135423448Y-83929549D01*
X135469710Y-84075953D01*
X135476955Y-84115384D01*
X135486243Y-84212981D01*
X135487413Y-84305773D01*
X135487615Y-84321882D01*
G37*
X144698432Y-85300688D02*
X144697019Y-85407158D01*
X144695264Y-85498872D01*
X144693133Y-85576965D01*
X144690589Y-85642572D01*
X144687598Y-85696829D01*
X144684122Y-85740871D01*
X144680127Y-85775833D01*
X144675576Y-85802851D01*
X144670434Y-85823060D01*
X144664666Y-85837595D01*
X144658235Y-85847592D01*
X144651106Y-85854186D01*
X144643242Y-85858513D01*
X144634609Y-85861707D01*
X144625171Y-85864904D01*
X144614891Y-85869239D01*
X144609107Y-85871411D01*
X144598497Y-85873784D01*
X144582732Y-85875958D01*
X144560697Y-85877941D01*
X144531277Y-85879744D01*
X144493356Y-85881373D01*
X144445819Y-85882839D01*
X144387551Y-85884149D01*
X144317437Y-85885313D01*
X144234361Y-85886339D01*
X144137208Y-85887236D01*
X144024863Y-85888013D01*
X143896212Y-85888678D01*
X143750137Y-85889240D01*
X143585525Y-85889708D01*
X143401260Y-85890090D01*
X143196227Y-85890396D01*
X142969311Y-85890633D01*
X142719396Y-85890811D01*
X142445368Y-85890939D01*
X142146110Y-85891024D01*
X141820508Y-85891076D01*
X141717326Y-85891086D01*
X141398790Y-85891093D01*
X141106274Y-85891053D01*
X140838675Y-85890958D01*
X140594891Y-85890801D01*
X140373819Y-85890573D01*
X140174359Y-85890267D01*
X139995408Y-85889873D01*
X139835863Y-85889386D01*
X139694623Y-85888795D01*
X139570586Y-85888095D01*
X139462650Y-85887275D01*
X139369713Y-85886329D01*
X139290672Y-85885248D01*
X139224426Y-85884025D01*
X139169872Y-85882651D01*
X139125909Y-85881119D01*
X139091434Y-85879420D01*
X139065346Y-85877546D01*
X139046543Y-85875490D01*
X139033922Y-85873244D01*
X139026381Y-85870798D01*
X139023982Y-85869710D01*
X139014160Y-85866135D01*
X139005153Y-85863524D01*
X138996924Y-85860741D01*
X138989437Y-85856648D01*
X138982655Y-85850108D01*
X138976542Y-85839985D01*
X138971062Y-85825141D01*
X138966177Y-85804439D01*
X138961851Y-85776743D01*
X138958048Y-85740916D01*
X138954731Y-85695821D01*
X138951863Y-85640320D01*
X138949409Y-85573277D01*
X138947331Y-85493555D01*
X138945594Y-85400018D01*
X138944160Y-85291527D01*
X138943689Y-85241288D01*
X139305742Y-85241288D01*
X139306139Y-85246099D01*
X139313422Y-85249998D01*
X139329876Y-85253080D01*
X139357788Y-85255442D01*
X139399444Y-85257178D01*
X139457129Y-85258384D01*
X139533129Y-85259156D01*
X139629731Y-85259589D01*
X139749221Y-85259779D01*
X139893883Y-85259821D01*
X140499860Y-85259821D01*
X140448633Y-85167146D01*
X140397406Y-85074470D01*
X140397406Y-82383443D01*
X140448633Y-82290767D01*
X140499860Y-82198092D01*
X139416698Y-82198092D01*
X139408866Y-85047010D01*
X139370468Y-85129016D01*
X139350223Y-85169663D01*
X139327300Y-85210380D01*
X139309988Y-85235422D01*
X139309945Y-85235470D01*
X139305742Y-85241288D01*
X138943689Y-85241288D01*
X138942993Y-85166946D01*
X138942057Y-85025138D01*
X138941315Y-84864967D01*
X138940730Y-84685295D01*
X138940266Y-84484985D01*
X138939887Y-84262900D01*
X138939556Y-84017904D01*
X138939236Y-83748860D01*
X138938891Y-83454630D01*
X138938485Y-83134078D01*
X138938432Y-83095272D01*
X138937979Y-82776751D01*
X138937546Y-82484420D01*
X138937164Y-82217141D01*
X138936867Y-81973777D01*
X138936685Y-81753190D01*
X138936652Y-81554243D01*
X138936798Y-81375798D01*
X138937157Y-81216719D01*
X138937761Y-81075867D01*
X138938641Y-80952105D01*
X138939829Y-80844295D01*
X138941358Y-80751301D01*
X138943259Y-80671985D01*
X138945565Y-80605208D01*
X138948308Y-80549835D01*
X138951519Y-80504727D01*
X138955232Y-80468747D01*
X138959477Y-80440757D01*
X138964288Y-80419620D01*
X138969695Y-80404199D01*
X138975732Y-80393356D01*
X138982430Y-80385954D01*
X138989822Y-80380855D01*
X138997938Y-80376921D01*
X139006812Y-80373016D01*
X139016476Y-80368002D01*
X139019304Y-80366404D01*
X139062091Y-80350937D01*
X139108930Y-80344580D01*
X139161731Y-80344582D01*
X139162611Y-80464715D01*
X139162834Y-80478540D01*
X139179616Y-80619063D01*
X139222360Y-80751283D01*
X139290470Y-80873800D01*
X139383355Y-80985211D01*
X139433199Y-81030651D01*
X139544182Y-81105968D01*
X139665275Y-81158491D01*
X139792952Y-81188190D01*
X139923684Y-81195038D01*
X140053947Y-81179007D01*
X140180212Y-81140069D01*
X140284009Y-81085983D01*
X140743394Y-81085983D01*
X140803806Y-81129447D01*
X140854897Y-81170296D01*
X140926890Y-81236924D01*
X141008547Y-81320428D01*
X141096777Y-81417626D01*
X141188487Y-81525335D01*
X141212104Y-81554138D01*
X141252314Y-81603540D01*
X141304874Y-81668353D01*
X141368043Y-81746414D01*
X141440079Y-81835559D01*
X141519241Y-81933626D01*
X141603789Y-82038452D01*
X141691980Y-82147872D01*
X141732431Y-82198092D01*
X141782073Y-82259724D01*
X141872327Y-82371845D01*
X141961002Y-82482072D01*
X142046355Y-82588240D01*
X142126645Y-82688188D01*
X142200131Y-82779751D01*
X142265072Y-82860767D01*
X142319727Y-82929072D01*
X142362353Y-82982503D01*
X142391211Y-83018896D01*
X142404558Y-83036090D01*
X142405660Y-83042551D01*
X142401995Y-83054840D01*
X142392500Y-83074173D01*
X142376225Y-83101922D01*
X142352223Y-83139458D01*
X142319547Y-83188152D01*
X142277248Y-83249377D01*
X142224378Y-83324502D01*
X142159990Y-83414900D01*
X142083135Y-83521942D01*
X141992867Y-83647000D01*
X141888236Y-83791444D01*
X141768296Y-83956646D01*
X141672729Y-84088145D01*
X141556135Y-84248453D01*
X141453575Y-84389235D01*
X141363856Y-84512052D01*
X141285787Y-84618467D01*
X141218175Y-84710043D01*
X141159825Y-84788342D01*
X141109547Y-84854927D01*
X141066148Y-84911359D01*
X141028433Y-84959202D01*
X140995212Y-85000017D01*
X140965290Y-85035368D01*
X140937476Y-85066816D01*
X140910577Y-85095924D01*
X140883400Y-85124254D01*
X140854752Y-85153370D01*
X140749179Y-85259821D01*
X142168541Y-85259879D01*
X142164082Y-85173867D01*
X142163866Y-85169545D01*
X142163019Y-85135161D01*
X142164624Y-85102216D01*
X142169753Y-85068906D01*
X142179480Y-85033426D01*
X142194878Y-84993973D01*
X142217021Y-84948741D01*
X142246982Y-84895925D01*
X142285835Y-84833722D01*
X142334653Y-84760325D01*
X142394509Y-84673932D01*
X142466477Y-84572738D01*
X142551630Y-84454936D01*
X142651041Y-84318724D01*
X142765785Y-84162297D01*
X143170812Y-83610889D01*
X143174380Y-84250230D01*
X143174696Y-84309868D01*
X143175254Y-84470505D01*
X143175000Y-84607137D01*
X143173637Y-84722350D01*
X143170864Y-84818731D01*
X143166385Y-84898864D01*
X143159900Y-84965335D01*
X143151110Y-85020731D01*
X143139717Y-85067636D01*
X143125422Y-85108636D01*
X143107927Y-85146317D01*
X143086934Y-85183265D01*
X143062142Y-85222065D01*
X143037221Y-85259821D01*
X144332371Y-85259821D01*
X144298916Y-85215200D01*
X144293677Y-85208141D01*
X144251789Y-85143442D01*
X144222914Y-85078038D01*
X144203953Y-85003096D01*
X144191808Y-84909781D01*
X144191474Y-84905713D01*
X144189712Y-84867223D01*
X144188120Y-84803004D01*
X144186707Y-84714524D01*
X144185479Y-84603251D01*
X144184443Y-84470651D01*
X144183605Y-84318193D01*
X144182973Y-84147344D01*
X144182554Y-83959570D01*
X144182355Y-83756341D01*
X144182382Y-83539122D01*
X144182642Y-83309383D01*
X144183142Y-83068589D01*
X144183672Y-82852596D01*
X144184239Y-82617483D01*
X144184798Y-82407127D01*
X144185417Y-82220054D01*
X144186168Y-82054790D01*
X144187121Y-81909861D01*
X144188345Y-81783795D01*
X144189910Y-81675116D01*
X144191888Y-81582352D01*
X144194347Y-81504028D01*
X144197358Y-81438670D01*
X144200991Y-81384806D01*
X144205316Y-81340961D01*
X144210403Y-81305661D01*
X144216322Y-81277433D01*
X144223144Y-81254803D01*
X144230938Y-81236297D01*
X144239775Y-81220442D01*
X144249724Y-81205763D01*
X144260856Y-81190788D01*
X144273241Y-81174041D01*
X144285219Y-81157260D01*
X144308372Y-81124079D01*
X144322240Y-81103146D01*
X144322575Y-81102269D01*
X144317733Y-81098310D01*
X144300644Y-81095007D01*
X144269408Y-81092309D01*
X144222122Y-81090165D01*
X144156885Y-81088524D01*
X144071797Y-81087337D01*
X143964954Y-81086551D01*
X143834456Y-81086117D01*
X143678401Y-81085983D01*
X143024209Y-81085983D01*
X143058687Y-81126958D01*
X143078669Y-81155101D01*
X143111930Y-81221456D01*
X143141078Y-81303983D01*
X143163325Y-81395527D01*
X143164743Y-81404217D01*
X143168961Y-81450031D01*
X143172156Y-81520837D01*
X143174336Y-81617123D01*
X143175508Y-81739380D01*
X143175682Y-81888099D01*
X143174865Y-82063770D01*
X143170812Y-82650260D01*
X142752055Y-82120707D01*
X142740061Y-82105538D01*
X142633868Y-81971103D01*
X142543208Y-81855972D01*
X142466638Y-81758187D01*
X142402714Y-81675791D01*
X142349994Y-81606826D01*
X142307036Y-81549334D01*
X142272396Y-81501358D01*
X142244632Y-81460941D01*
X142222301Y-81426124D01*
X142203959Y-81394951D01*
X142188165Y-81365463D01*
X142173475Y-81335703D01*
X142150877Y-81283025D01*
X142136278Y-81227454D01*
X142132395Y-81167514D01*
X142132785Y-81085983D01*
X140743394Y-81085983D01*
X140284009Y-81085983D01*
X140298953Y-81078196D01*
X140406644Y-80993359D01*
X140436581Y-80963450D01*
X140525064Y-80852710D01*
X140587851Y-80732532D01*
X140625276Y-80602139D01*
X140637676Y-80460758D01*
X140637676Y-80344578D01*
X142608575Y-80344578D01*
X142731707Y-80344573D01*
X142996230Y-80344537D01*
X143235189Y-80344511D01*
X143449905Y-80344547D01*
X143641700Y-80344697D01*
X143811894Y-80345014D01*
X143961810Y-80345550D01*
X144092769Y-80346356D01*
X144206092Y-80347486D01*
X144303101Y-80348992D01*
X144385116Y-80350925D01*
X144453461Y-80353339D01*
X144509455Y-80356284D01*
X144554420Y-80359814D01*
X144589678Y-80363981D01*
X144616550Y-80368837D01*
X144636358Y-80374434D01*
X144650422Y-80380824D01*
X144660065Y-80388060D01*
X144666608Y-80396194D01*
X144671372Y-80405279D01*
X144675679Y-80415366D01*
X144680850Y-80426507D01*
X144680942Y-80426689D01*
X144683453Y-80433982D01*
X144685755Y-80446195D01*
X144687859Y-80464453D01*
X144689773Y-80489885D01*
X144691505Y-80523617D01*
X144693065Y-80566776D01*
X144694460Y-80620489D01*
X144695700Y-80685883D01*
X144696794Y-80764086D01*
X144697750Y-80856224D01*
X144698577Y-80963424D01*
X144699284Y-81086814D01*
X144699880Y-81227519D01*
X144700372Y-81386668D01*
X144700771Y-81565388D01*
X144701084Y-81764805D01*
X144701320Y-81986046D01*
X144701489Y-82230238D01*
X144701599Y-82498509D01*
X144701659Y-82791985D01*
X144701676Y-83111794D01*
X144701677Y-83174621D01*
X144701707Y-83491097D01*
X144701754Y-83781463D01*
X144701782Y-84046855D01*
X144701754Y-84288408D01*
X144701637Y-84507258D01*
X144701392Y-84704539D01*
X144700985Y-84881387D01*
X144700380Y-85038938D01*
X144699541Y-85178327D01*
X144698802Y-85259821D01*
X144698432Y-85300688D01*
G36*
X144698432Y-85300688D02*
G01*
X144697019Y-85407158D01*
X144695264Y-85498872D01*
X144693133Y-85576965D01*
X144690589Y-85642572D01*
X144687598Y-85696829D01*
X144684122Y-85740871D01*
X144680127Y-85775833D01*
X144675576Y-85802851D01*
X144670434Y-85823060D01*
X144664666Y-85837595D01*
X144658235Y-85847592D01*
X144651106Y-85854186D01*
X144643242Y-85858513D01*
X144634609Y-85861707D01*
X144625171Y-85864904D01*
X144614891Y-85869239D01*
X144609107Y-85871411D01*
X144598497Y-85873784D01*
X144582732Y-85875958D01*
X144560697Y-85877941D01*
X144531277Y-85879744D01*
X144493356Y-85881373D01*
X144445819Y-85882839D01*
X144387551Y-85884149D01*
X144317437Y-85885313D01*
X144234361Y-85886339D01*
X144137208Y-85887236D01*
X144024863Y-85888013D01*
X143896212Y-85888678D01*
X143750137Y-85889240D01*
X143585525Y-85889708D01*
X143401260Y-85890090D01*
X143196227Y-85890396D01*
X142969311Y-85890633D01*
X142719396Y-85890811D01*
X142445368Y-85890939D01*
X142146110Y-85891024D01*
X141820508Y-85891076D01*
X141717326Y-85891086D01*
X141398790Y-85891093D01*
X141106274Y-85891053D01*
X140838675Y-85890958D01*
X140594891Y-85890801D01*
X140373819Y-85890573D01*
X140174359Y-85890267D01*
X139995408Y-85889873D01*
X139835863Y-85889386D01*
X139694623Y-85888795D01*
X139570586Y-85888095D01*
X139462650Y-85887275D01*
X139369713Y-85886329D01*
X139290672Y-85885248D01*
X139224426Y-85884025D01*
X139169872Y-85882651D01*
X139125909Y-85881119D01*
X139091434Y-85879420D01*
X139065346Y-85877546D01*
X139046543Y-85875490D01*
X139033922Y-85873244D01*
X139026381Y-85870798D01*
X139023982Y-85869710D01*
X139014160Y-85866135D01*
X139005153Y-85863524D01*
X138996924Y-85860741D01*
X138989437Y-85856648D01*
X138982655Y-85850108D01*
X138976542Y-85839985D01*
X138971062Y-85825141D01*
X138966177Y-85804439D01*
X138961851Y-85776743D01*
X138958048Y-85740916D01*
X138954731Y-85695821D01*
X138951863Y-85640320D01*
X138949409Y-85573277D01*
X138947331Y-85493555D01*
X138945594Y-85400018D01*
X138944160Y-85291527D01*
X138943689Y-85241288D01*
X139305742Y-85241288D01*
X139306139Y-85246099D01*
X139313422Y-85249998D01*
X139329876Y-85253080D01*
X139357788Y-85255442D01*
X139399444Y-85257178D01*
X139457129Y-85258384D01*
X139533129Y-85259156D01*
X139629731Y-85259589D01*
X139749221Y-85259779D01*
X139893883Y-85259821D01*
X140499860Y-85259821D01*
X140448633Y-85167146D01*
X140397406Y-85074470D01*
X140397406Y-82383443D01*
X140448633Y-82290767D01*
X140499860Y-82198092D01*
X139416698Y-82198092D01*
X139408866Y-85047010D01*
X139370468Y-85129016D01*
X139350223Y-85169663D01*
X139327300Y-85210380D01*
X139309988Y-85235422D01*
X139309945Y-85235470D01*
X139305742Y-85241288D01*
X138943689Y-85241288D01*
X138942993Y-85166946D01*
X138942057Y-85025138D01*
X138941315Y-84864967D01*
X138940730Y-84685295D01*
X138940266Y-84484985D01*
X138939887Y-84262900D01*
X138939556Y-84017904D01*
X138939236Y-83748860D01*
X138938891Y-83454630D01*
X138938485Y-83134078D01*
X138938432Y-83095272D01*
X138937979Y-82776751D01*
X138937546Y-82484420D01*
X138937164Y-82217141D01*
X138936867Y-81973777D01*
X138936685Y-81753190D01*
X138936652Y-81554243D01*
X138936798Y-81375798D01*
X138937157Y-81216719D01*
X138937761Y-81075867D01*
X138938641Y-80952105D01*
X138939829Y-80844295D01*
X138941358Y-80751301D01*
X138943259Y-80671985D01*
X138945565Y-80605208D01*
X138948308Y-80549835D01*
X138951519Y-80504727D01*
X138955232Y-80468747D01*
X138959477Y-80440757D01*
X138964288Y-80419620D01*
X138969695Y-80404199D01*
X138975732Y-80393356D01*
X138982430Y-80385954D01*
X138989822Y-80380855D01*
X138997938Y-80376921D01*
X139006812Y-80373016D01*
X139016476Y-80368002D01*
X139019304Y-80366404D01*
X139062091Y-80350937D01*
X139108930Y-80344580D01*
X139161731Y-80344582D01*
X139162611Y-80464715D01*
X139162834Y-80478540D01*
X139179616Y-80619063D01*
X139222360Y-80751283D01*
X139290470Y-80873800D01*
X139383355Y-80985211D01*
X139433199Y-81030651D01*
X139544182Y-81105968D01*
X139665275Y-81158491D01*
X139792952Y-81188190D01*
X139923684Y-81195038D01*
X140053947Y-81179007D01*
X140180212Y-81140069D01*
X140284009Y-81085983D01*
X140743394Y-81085983D01*
X140803806Y-81129447D01*
X140854897Y-81170296D01*
X140926890Y-81236924D01*
X141008547Y-81320428D01*
X141096777Y-81417626D01*
X141188487Y-81525335D01*
X141212104Y-81554138D01*
X141252314Y-81603540D01*
X141304874Y-81668353D01*
X141368043Y-81746414D01*
X141440079Y-81835559D01*
X141519241Y-81933626D01*
X141603789Y-82038452D01*
X141691980Y-82147872D01*
X141732431Y-82198092D01*
X141782073Y-82259724D01*
X141872327Y-82371845D01*
X141961002Y-82482072D01*
X142046355Y-82588240D01*
X142126645Y-82688188D01*
X142200131Y-82779751D01*
X142265072Y-82860767D01*
X142319727Y-82929072D01*
X142362353Y-82982503D01*
X142391211Y-83018896D01*
X142404558Y-83036090D01*
X142405660Y-83042551D01*
X142401995Y-83054840D01*
X142392500Y-83074173D01*
X142376225Y-83101922D01*
X142352223Y-83139458D01*
X142319547Y-83188152D01*
X142277248Y-83249377D01*
X142224378Y-83324502D01*
X142159990Y-83414900D01*
X142083135Y-83521942D01*
X141992867Y-83647000D01*
X141888236Y-83791444D01*
X141768296Y-83956646D01*
X141672729Y-84088145D01*
X141556135Y-84248453D01*
X141453575Y-84389235D01*
X141363856Y-84512052D01*
X141285787Y-84618467D01*
X141218175Y-84710043D01*
X141159825Y-84788342D01*
X141109547Y-84854927D01*
X141066148Y-84911359D01*
X141028433Y-84959202D01*
X140995212Y-85000017D01*
X140965290Y-85035368D01*
X140937476Y-85066816D01*
X140910577Y-85095924D01*
X140883400Y-85124254D01*
X140854752Y-85153370D01*
X140749179Y-85259821D01*
X142168541Y-85259879D01*
X142164082Y-85173867D01*
X142163866Y-85169545D01*
X142163019Y-85135161D01*
X142164624Y-85102216D01*
X142169753Y-85068906D01*
X142179480Y-85033426D01*
X142194878Y-84993973D01*
X142217021Y-84948741D01*
X142246982Y-84895925D01*
X142285835Y-84833722D01*
X142334653Y-84760325D01*
X142394509Y-84673932D01*
X142466477Y-84572738D01*
X142551630Y-84454936D01*
X142651041Y-84318724D01*
X142765785Y-84162297D01*
X143170812Y-83610889D01*
X143174380Y-84250230D01*
X143174696Y-84309868D01*
X143175254Y-84470505D01*
X143175000Y-84607137D01*
X143173637Y-84722350D01*
X143170864Y-84818731D01*
X143166385Y-84898864D01*
X143159900Y-84965335D01*
X143151110Y-85020731D01*
X143139717Y-85067636D01*
X143125422Y-85108636D01*
X143107927Y-85146317D01*
X143086934Y-85183265D01*
X143062142Y-85222065D01*
X143037221Y-85259821D01*
X144332371Y-85259821D01*
X144298916Y-85215200D01*
X144293677Y-85208141D01*
X144251789Y-85143442D01*
X144222914Y-85078038D01*
X144203953Y-85003096D01*
X144191808Y-84909781D01*
X144191474Y-84905713D01*
X144189712Y-84867223D01*
X144188120Y-84803004D01*
X144186707Y-84714524D01*
X144185479Y-84603251D01*
X144184443Y-84470651D01*
X144183605Y-84318193D01*
X144182973Y-84147344D01*
X144182554Y-83959570D01*
X144182355Y-83756341D01*
X144182382Y-83539122D01*
X144182642Y-83309383D01*
X144183142Y-83068589D01*
X144183672Y-82852596D01*
X144184239Y-82617483D01*
X144184798Y-82407127D01*
X144185417Y-82220054D01*
X144186168Y-82054790D01*
X144187121Y-81909861D01*
X144188345Y-81783795D01*
X144189910Y-81675116D01*
X144191888Y-81582352D01*
X144194347Y-81504028D01*
X144197358Y-81438670D01*
X144200991Y-81384806D01*
X144205316Y-81340961D01*
X144210403Y-81305661D01*
X144216322Y-81277433D01*
X144223144Y-81254803D01*
X144230938Y-81236297D01*
X144239775Y-81220442D01*
X144249724Y-81205763D01*
X144260856Y-81190788D01*
X144273241Y-81174041D01*
X144285219Y-81157260D01*
X144308372Y-81124079D01*
X144322240Y-81103146D01*
X144322575Y-81102269D01*
X144317733Y-81098310D01*
X144300644Y-81095007D01*
X144269408Y-81092309D01*
X144222122Y-81090165D01*
X144156885Y-81088524D01*
X144071797Y-81087337D01*
X143964954Y-81086551D01*
X143834456Y-81086117D01*
X143678401Y-81085983D01*
X143024209Y-81085983D01*
X143058687Y-81126958D01*
X143078669Y-81155101D01*
X143111930Y-81221456D01*
X143141078Y-81303983D01*
X143163325Y-81395527D01*
X143164743Y-81404217D01*
X143168961Y-81450031D01*
X143172156Y-81520837D01*
X143174336Y-81617123D01*
X143175508Y-81739380D01*
X143175682Y-81888099D01*
X143174865Y-82063770D01*
X143170812Y-82650260D01*
X142752055Y-82120707D01*
X142740061Y-82105538D01*
X142633868Y-81971103D01*
X142543208Y-81855972D01*
X142466638Y-81758187D01*
X142402714Y-81675791D01*
X142349994Y-81606826D01*
X142307036Y-81549334D01*
X142272396Y-81501358D01*
X142244632Y-81460941D01*
X142222301Y-81426124D01*
X142203959Y-81394951D01*
X142188165Y-81365463D01*
X142173475Y-81335703D01*
X142150877Y-81283025D01*
X142136278Y-81227454D01*
X142132395Y-81167514D01*
X142132785Y-81085983D01*
X140743394Y-81085983D01*
X140284009Y-81085983D01*
X140298953Y-81078196D01*
X140406644Y-80993359D01*
X140436581Y-80963450D01*
X140525064Y-80852710D01*
X140587851Y-80732532D01*
X140625276Y-80602139D01*
X140637676Y-80460758D01*
X140637676Y-80344578D01*
X142608575Y-80344578D01*
X142731707Y-80344573D01*
X142996230Y-80344537D01*
X143235189Y-80344511D01*
X143449905Y-80344547D01*
X143641700Y-80344697D01*
X143811894Y-80345014D01*
X143961810Y-80345550D01*
X144092769Y-80346356D01*
X144206092Y-80347486D01*
X144303101Y-80348992D01*
X144385116Y-80350925D01*
X144453461Y-80353339D01*
X144509455Y-80356284D01*
X144554420Y-80359814D01*
X144589678Y-80363981D01*
X144616550Y-80368837D01*
X144636358Y-80374434D01*
X144650422Y-80380824D01*
X144660065Y-80388060D01*
X144666608Y-80396194D01*
X144671372Y-80405279D01*
X144675679Y-80415366D01*
X144680850Y-80426507D01*
X144680942Y-80426689D01*
X144683453Y-80433982D01*
X144685755Y-80446195D01*
X144687859Y-80464453D01*
X144689773Y-80489885D01*
X144691505Y-80523617D01*
X144693065Y-80566776D01*
X144694460Y-80620489D01*
X144695700Y-80685883D01*
X144696794Y-80764086D01*
X144697750Y-80856224D01*
X144698577Y-80963424D01*
X144699284Y-81086814D01*
X144699880Y-81227519D01*
X144700372Y-81386668D01*
X144700771Y-81565388D01*
X144701084Y-81764805D01*
X144701320Y-81986046D01*
X144701489Y-82230238D01*
X144701599Y-82498509D01*
X144701659Y-82791985D01*
X144701676Y-83111794D01*
X144701677Y-83174621D01*
X144701707Y-83491097D01*
X144701754Y-83781463D01*
X144701782Y-84046855D01*
X144701754Y-84288408D01*
X144701637Y-84507258D01*
X144701392Y-84704539D01*
X144700985Y-84881387D01*
X144700380Y-85038938D01*
X144699541Y-85178327D01*
X144698802Y-85259821D01*
X144698432Y-85300688D01*
G37*
%TD*%
M02*
