%TF.GenerationSoftware,KiCad,Pcbnew,7.0.7*%
%TF.CreationDate,2023-12-09T08:55:25-03:00*%
%TF.ProjectId,led_torch,6c65645f-746f-4726-9368-2e6b69636164,A*%
%TF.SameCoordinates,Original*%
%TF.FileFunction,Legend,Top*%
%TF.FilePolarity,Positive*%
%FSLAX46Y46*%
G04 Gerber Fmt 4.6, Leading zero omitted, Abs format (unit mm)*
G04 Created by KiCad (PCBNEW 7.0.7) date 2023-12-09 08:55:25*
%MOMM*%
%LPD*%
G01*
G04 APERTURE LIST*
%ADD10C,0.150000*%
%ADD11C,0.120000*%
G04 APERTURE END LIST*
D10*
X119365455Y-107622014D02*
X120127360Y-107622014D01*
X119746407Y-108002967D02*
X119746407Y-107241062D01*
X119415455Y-99572014D02*
X120177360Y-99572014D01*
X127997666Y-101676004D02*
X127950047Y-101818861D01*
X127950047Y-101818861D02*
X127902428Y-101866480D01*
X127902428Y-101866480D02*
X127807190Y-101914099D01*
X127807190Y-101914099D02*
X127664333Y-101914099D01*
X127664333Y-101914099D02*
X127569095Y-101866480D01*
X127569095Y-101866480D02*
X127521476Y-101818861D01*
X127521476Y-101818861D02*
X127473856Y-101723623D01*
X127473856Y-101723623D02*
X127473856Y-101342671D01*
X127473856Y-101342671D02*
X128473856Y-101342671D01*
X128473856Y-101342671D02*
X128473856Y-101676004D01*
X128473856Y-101676004D02*
X128426237Y-101771242D01*
X128426237Y-101771242D02*
X128378618Y-101818861D01*
X128378618Y-101818861D02*
X128283380Y-101866480D01*
X128283380Y-101866480D02*
X128188142Y-101866480D01*
X128188142Y-101866480D02*
X128092904Y-101818861D01*
X128092904Y-101818861D02*
X128045285Y-101771242D01*
X128045285Y-101771242D02*
X127997666Y-101676004D01*
X127997666Y-101676004D02*
X127997666Y-101342671D01*
X128140523Y-102771242D02*
X127473856Y-102771242D01*
X128140523Y-102342671D02*
X127616714Y-102342671D01*
X127616714Y-102342671D02*
X127521476Y-102390290D01*
X127521476Y-102390290D02*
X127473856Y-102485528D01*
X127473856Y-102485528D02*
X127473856Y-102628385D01*
X127473856Y-102628385D02*
X127521476Y-102723623D01*
X127521476Y-102723623D02*
X127569095Y-102771242D01*
X128140523Y-103104576D02*
X128140523Y-103485528D01*
X128473856Y-103247433D02*
X127616714Y-103247433D01*
X127616714Y-103247433D02*
X127521476Y-103295052D01*
X127521476Y-103295052D02*
X127473856Y-103390290D01*
X127473856Y-103390290D02*
X127473856Y-103485528D01*
X128140523Y-103676005D02*
X128140523Y-104056957D01*
X128473856Y-103818862D02*
X127616714Y-103818862D01*
X127616714Y-103818862D02*
X127521476Y-103866481D01*
X127521476Y-103866481D02*
X127473856Y-103961719D01*
X127473856Y-103961719D02*
X127473856Y-104056957D01*
X127473856Y-104533148D02*
X127521476Y-104437910D01*
X127521476Y-104437910D02*
X127569095Y-104390291D01*
X127569095Y-104390291D02*
X127664333Y-104342672D01*
X127664333Y-104342672D02*
X127950047Y-104342672D01*
X127950047Y-104342672D02*
X128045285Y-104390291D01*
X128045285Y-104390291D02*
X128092904Y-104437910D01*
X128092904Y-104437910D02*
X128140523Y-104533148D01*
X128140523Y-104533148D02*
X128140523Y-104676005D01*
X128140523Y-104676005D02*
X128092904Y-104771243D01*
X128092904Y-104771243D02*
X128045285Y-104818862D01*
X128045285Y-104818862D02*
X127950047Y-104866481D01*
X127950047Y-104866481D02*
X127664333Y-104866481D01*
X127664333Y-104866481D02*
X127569095Y-104818862D01*
X127569095Y-104818862D02*
X127521476Y-104771243D01*
X127521476Y-104771243D02*
X127473856Y-104676005D01*
X127473856Y-104676005D02*
X127473856Y-104533148D01*
X128140523Y-105295053D02*
X127473856Y-105295053D01*
X128045285Y-105295053D02*
X128092904Y-105342672D01*
X128092904Y-105342672D02*
X128140523Y-105437910D01*
X128140523Y-105437910D02*
X128140523Y-105580767D01*
X128140523Y-105580767D02*
X128092904Y-105676005D01*
X128092904Y-105676005D02*
X127997666Y-105723624D01*
X127997666Y-105723624D02*
X127473856Y-105723624D01*
X122173856Y-101493861D02*
X122650047Y-101160528D01*
X122173856Y-100922433D02*
X123173856Y-100922433D01*
X123173856Y-100922433D02*
X123173856Y-101303385D01*
X123173856Y-101303385D02*
X123126237Y-101398623D01*
X123126237Y-101398623D02*
X123078618Y-101446242D01*
X123078618Y-101446242D02*
X122983380Y-101493861D01*
X122983380Y-101493861D02*
X122840523Y-101493861D01*
X122840523Y-101493861D02*
X122745285Y-101446242D01*
X122745285Y-101446242D02*
X122697666Y-101398623D01*
X122697666Y-101398623D02*
X122650047Y-101303385D01*
X122650047Y-101303385D02*
X122650047Y-100922433D01*
X122221476Y-102303385D02*
X122173856Y-102208147D01*
X122173856Y-102208147D02*
X122173856Y-102017671D01*
X122173856Y-102017671D02*
X122221476Y-101922433D01*
X122221476Y-101922433D02*
X122316714Y-101874814D01*
X122316714Y-101874814D02*
X122697666Y-101874814D01*
X122697666Y-101874814D02*
X122792904Y-101922433D01*
X122792904Y-101922433D02*
X122840523Y-102017671D01*
X122840523Y-102017671D02*
X122840523Y-102208147D01*
X122840523Y-102208147D02*
X122792904Y-102303385D01*
X122792904Y-102303385D02*
X122697666Y-102351004D01*
X122697666Y-102351004D02*
X122602428Y-102351004D01*
X122602428Y-102351004D02*
X122507190Y-101874814D01*
X122221476Y-102731957D02*
X122173856Y-102827195D01*
X122173856Y-102827195D02*
X122173856Y-103017671D01*
X122173856Y-103017671D02*
X122221476Y-103112909D01*
X122221476Y-103112909D02*
X122316714Y-103160528D01*
X122316714Y-103160528D02*
X122364333Y-103160528D01*
X122364333Y-103160528D02*
X122459571Y-103112909D01*
X122459571Y-103112909D02*
X122507190Y-103017671D01*
X122507190Y-103017671D02*
X122507190Y-102874814D01*
X122507190Y-102874814D02*
X122554809Y-102779576D01*
X122554809Y-102779576D02*
X122650047Y-102731957D01*
X122650047Y-102731957D02*
X122697666Y-102731957D01*
X122697666Y-102731957D02*
X122792904Y-102779576D01*
X122792904Y-102779576D02*
X122840523Y-102874814D01*
X122840523Y-102874814D02*
X122840523Y-103017671D01*
X122840523Y-103017671D02*
X122792904Y-103112909D01*
X122173856Y-103589100D02*
X122840523Y-103589100D01*
X123173856Y-103589100D02*
X123126237Y-103541481D01*
X123126237Y-103541481D02*
X123078618Y-103589100D01*
X123078618Y-103589100D02*
X123126237Y-103636719D01*
X123126237Y-103636719D02*
X123173856Y-103589100D01*
X123173856Y-103589100D02*
X123078618Y-103589100D01*
X122221476Y-104017671D02*
X122173856Y-104112909D01*
X122173856Y-104112909D02*
X122173856Y-104303385D01*
X122173856Y-104303385D02*
X122221476Y-104398623D01*
X122221476Y-104398623D02*
X122316714Y-104446242D01*
X122316714Y-104446242D02*
X122364333Y-104446242D01*
X122364333Y-104446242D02*
X122459571Y-104398623D01*
X122459571Y-104398623D02*
X122507190Y-104303385D01*
X122507190Y-104303385D02*
X122507190Y-104160528D01*
X122507190Y-104160528D02*
X122554809Y-104065290D01*
X122554809Y-104065290D02*
X122650047Y-104017671D01*
X122650047Y-104017671D02*
X122697666Y-104017671D01*
X122697666Y-104017671D02*
X122792904Y-104065290D01*
X122792904Y-104065290D02*
X122840523Y-104160528D01*
X122840523Y-104160528D02*
X122840523Y-104303385D01*
X122840523Y-104303385D02*
X122792904Y-104398623D01*
X122840523Y-104731957D02*
X122840523Y-105112909D01*
X123173856Y-104874814D02*
X122316714Y-104874814D01*
X122316714Y-104874814D02*
X122221476Y-104922433D01*
X122221476Y-104922433D02*
X122173856Y-105017671D01*
X122173856Y-105017671D02*
X122173856Y-105112909D01*
X122173856Y-105589100D02*
X122221476Y-105493862D01*
X122221476Y-105493862D02*
X122269095Y-105446243D01*
X122269095Y-105446243D02*
X122364333Y-105398624D01*
X122364333Y-105398624D02*
X122650047Y-105398624D01*
X122650047Y-105398624D02*
X122745285Y-105446243D01*
X122745285Y-105446243D02*
X122792904Y-105493862D01*
X122792904Y-105493862D02*
X122840523Y-105589100D01*
X122840523Y-105589100D02*
X122840523Y-105731957D01*
X122840523Y-105731957D02*
X122792904Y-105827195D01*
X122792904Y-105827195D02*
X122745285Y-105874814D01*
X122745285Y-105874814D02*
X122650047Y-105922433D01*
X122650047Y-105922433D02*
X122364333Y-105922433D01*
X122364333Y-105922433D02*
X122269095Y-105874814D01*
X122269095Y-105874814D02*
X122221476Y-105827195D01*
X122221476Y-105827195D02*
X122173856Y-105731957D01*
X122173856Y-105731957D02*
X122173856Y-105589100D01*
X122173856Y-106351005D02*
X122840523Y-106351005D01*
X122650047Y-106351005D02*
X122745285Y-106398624D01*
X122745285Y-106398624D02*
X122792904Y-106446243D01*
X122792904Y-106446243D02*
X122840523Y-106541481D01*
X122840523Y-106541481D02*
X122840523Y-106636719D01*
X107823856Y-103040290D02*
X107823856Y-102564100D01*
X107823856Y-102564100D02*
X108823856Y-102564100D01*
X108347666Y-103373624D02*
X108347666Y-103706957D01*
X107823856Y-103849814D02*
X107823856Y-103373624D01*
X107823856Y-103373624D02*
X108823856Y-103373624D01*
X108823856Y-103373624D02*
X108823856Y-103849814D01*
X107823856Y-104278386D02*
X108823856Y-104278386D01*
X108823856Y-104278386D02*
X108823856Y-104516481D01*
X108823856Y-104516481D02*
X108776237Y-104659338D01*
X108776237Y-104659338D02*
X108680999Y-104754576D01*
X108680999Y-104754576D02*
X108585761Y-104802195D01*
X108585761Y-104802195D02*
X108395285Y-104849814D01*
X108395285Y-104849814D02*
X108252428Y-104849814D01*
X108252428Y-104849814D02*
X108061952Y-104802195D01*
X108061952Y-104802195D02*
X107966714Y-104754576D01*
X107966714Y-104754576D02*
X107871476Y-104659338D01*
X107871476Y-104659338D02*
X107823856Y-104516481D01*
X107823856Y-104516481D02*
X107823856Y-104278386D01*
X139997666Y-101511718D02*
X139950047Y-101654575D01*
X139950047Y-101654575D02*
X139902428Y-101702194D01*
X139902428Y-101702194D02*
X139807190Y-101749813D01*
X139807190Y-101749813D02*
X139664333Y-101749813D01*
X139664333Y-101749813D02*
X139569095Y-101702194D01*
X139569095Y-101702194D02*
X139521476Y-101654575D01*
X139521476Y-101654575D02*
X139473856Y-101559337D01*
X139473856Y-101559337D02*
X139473856Y-101178385D01*
X139473856Y-101178385D02*
X140473856Y-101178385D01*
X140473856Y-101178385D02*
X140473856Y-101511718D01*
X140473856Y-101511718D02*
X140426237Y-101606956D01*
X140426237Y-101606956D02*
X140378618Y-101654575D01*
X140378618Y-101654575D02*
X140283380Y-101702194D01*
X140283380Y-101702194D02*
X140188142Y-101702194D01*
X140188142Y-101702194D02*
X140092904Y-101654575D01*
X140092904Y-101654575D02*
X140045285Y-101606956D01*
X140045285Y-101606956D02*
X139997666Y-101511718D01*
X139997666Y-101511718D02*
X139997666Y-101178385D01*
X139473856Y-102606956D02*
X139997666Y-102606956D01*
X139997666Y-102606956D02*
X140092904Y-102559337D01*
X140092904Y-102559337D02*
X140140523Y-102464099D01*
X140140523Y-102464099D02*
X140140523Y-102273623D01*
X140140523Y-102273623D02*
X140092904Y-102178385D01*
X139521476Y-102606956D02*
X139473856Y-102511718D01*
X139473856Y-102511718D02*
X139473856Y-102273623D01*
X139473856Y-102273623D02*
X139521476Y-102178385D01*
X139521476Y-102178385D02*
X139616714Y-102130766D01*
X139616714Y-102130766D02*
X139711952Y-102130766D01*
X139711952Y-102130766D02*
X139807190Y-102178385D01*
X139807190Y-102178385D02*
X139854809Y-102273623D01*
X139854809Y-102273623D02*
X139854809Y-102511718D01*
X139854809Y-102511718D02*
X139902428Y-102606956D01*
X140140523Y-102940290D02*
X140140523Y-103321242D01*
X140473856Y-103083147D02*
X139616714Y-103083147D01*
X139616714Y-103083147D02*
X139521476Y-103130766D01*
X139521476Y-103130766D02*
X139473856Y-103226004D01*
X139473856Y-103226004D02*
X139473856Y-103321242D01*
X140140523Y-103511719D02*
X140140523Y-103892671D01*
X140473856Y-103654576D02*
X139616714Y-103654576D01*
X139616714Y-103654576D02*
X139521476Y-103702195D01*
X139521476Y-103702195D02*
X139473856Y-103797433D01*
X139473856Y-103797433D02*
X139473856Y-103892671D01*
X139521476Y-104606957D02*
X139473856Y-104511719D01*
X139473856Y-104511719D02*
X139473856Y-104321243D01*
X139473856Y-104321243D02*
X139521476Y-104226005D01*
X139521476Y-104226005D02*
X139616714Y-104178386D01*
X139616714Y-104178386D02*
X139997666Y-104178386D01*
X139997666Y-104178386D02*
X140092904Y-104226005D01*
X140092904Y-104226005D02*
X140140523Y-104321243D01*
X140140523Y-104321243D02*
X140140523Y-104511719D01*
X140140523Y-104511719D02*
X140092904Y-104606957D01*
X140092904Y-104606957D02*
X139997666Y-104654576D01*
X139997666Y-104654576D02*
X139902428Y-104654576D01*
X139902428Y-104654576D02*
X139807190Y-104178386D01*
X139473856Y-105083148D02*
X140140523Y-105083148D01*
X139950047Y-105083148D02*
X140045285Y-105130767D01*
X140045285Y-105130767D02*
X140092904Y-105178386D01*
X140092904Y-105178386D02*
X140140523Y-105273624D01*
X140140523Y-105273624D02*
X140140523Y-105368862D01*
X140140523Y-105606958D02*
X139473856Y-105845053D01*
X140140523Y-106083148D02*
X139473856Y-105845053D01*
X139473856Y-105845053D02*
X139235761Y-105749815D01*
X139235761Y-105749815D02*
X139188142Y-105702196D01*
X139188142Y-105702196D02*
X139140523Y-105606958D01*
X164982248Y-103772848D02*
X166125106Y-103772848D01*
X165553677Y-104344276D02*
X165553677Y-103201419D01*
X150157247Y-103722848D02*
X151300105Y-103722848D01*
D11*
%TO.C,SW1*%
X130508676Y-104583148D02*
X130508676Y-102383148D01*
X130978676Y-106553148D02*
X136178676Y-106553148D01*
X131578676Y-100313148D02*
X135978676Y-100313148D01*
X136748676Y-102383148D02*
X136748676Y-104583148D01*
X135042890Y-103433148D02*
G75*
G03*
X135042890Y-103433148I-1414214J0D01*
G01*
%TO.C,R1*%
X125003676Y-106428148D02*
X125003676Y-105478148D01*
X124083676Y-105478148D02*
X125923676Y-105478148D01*
X125923676Y-105478148D02*
X125923676Y-101638148D01*
X124083676Y-101638148D02*
X124083676Y-105478148D01*
X125923676Y-101638148D02*
X124083676Y-101638148D01*
X125003676Y-100688148D02*
X125003676Y-101638148D01*
%TO.C,D1*%
X118443676Y-101093148D02*
X112283676Y-101093148D01*
X118443676Y-101093148D02*
X118443676Y-106213148D01*
X118573676Y-102383148D02*
X118573676Y-102383148D01*
X118573676Y-102383148D02*
X118443676Y-102383148D01*
X118443676Y-102383148D02*
X118573676Y-102383148D01*
X118443676Y-102383148D02*
X118443676Y-102383148D01*
X118573676Y-104923148D02*
X118573676Y-104923148D01*
X118573676Y-104923148D02*
X118443676Y-104923148D01*
X118443676Y-104923148D02*
X118573676Y-104923148D01*
X118443676Y-104923148D02*
X118443676Y-104923148D01*
X118443676Y-106213148D02*
X112283676Y-106213148D01*
X117323676Y-106213148D02*
X117323676Y-101113148D01*
X117323676Y-106213148D02*
X118443676Y-106213148D01*
X112283676Y-101093148D02*
G75*
G03*
X112283676Y-106213148I0J-2560000D01*
G01*
%TO.C,BT1*%
X170503677Y-106658148D02*
X164803677Y-106658148D01*
X170503677Y-100658148D02*
X170503677Y-106658148D01*
X170503677Y-100658148D02*
X164803677Y-100658148D01*
X164053677Y-100158148D02*
G75*
G03*
X164803677Y-100658148I750000J312500D01*
G01*
X164803677Y-106658148D02*
G75*
G03*
X164053677Y-107158148I0J-812500D01*
G01*
X141608007Y-103658148D02*
G75*
G03*
X164053676Y-107158148I11495714J-11D01*
G01*
X164053677Y-100158148D02*
G75*
G03*
X141608006Y-103658148I-10949956J-3499989D01*
G01*
%TD*%
M02*
