%TF.GenerationSoftware,KiCad,Pcbnew,7.0.7*%
%TF.CreationDate,2023-12-09T08:55:25-03:00*%
%TF.ProjectId,led_torch,6c65645f-746f-4726-9368-2e6b69636164,A*%
%TF.SameCoordinates,Original*%
%TF.FileFunction,Legend,Bot*%
%TF.FilePolarity,Positive*%
%FSLAX46Y46*%
G04 Gerber Fmt 4.6, Leading zero omitted, Abs format (unit mm)*
G04 Created by KiCad (PCBNEW 7.0.7) date 2023-12-09 08:55:25*
%MOMM*%
%LPD*%
G01*
G04 APERTURE LIST*
%ADD10C,0.150000*%
%ADD11C,0.010000*%
G04 APERTURE END LIST*
D10*
X114770180Y-104147857D02*
X114770180Y-104624047D01*
X114770180Y-104624047D02*
X115770180Y-104624047D01*
X115293990Y-103814523D02*
X115293990Y-103481190D01*
X114770180Y-103338333D02*
X114770180Y-103814523D01*
X114770180Y-103814523D02*
X115770180Y-103814523D01*
X115770180Y-103814523D02*
X115770180Y-103338333D01*
X114770180Y-102909761D02*
X115770180Y-102909761D01*
X115770180Y-102909761D02*
X115770180Y-102671666D01*
X115770180Y-102671666D02*
X115722561Y-102528809D01*
X115722561Y-102528809D02*
X115627323Y-102433571D01*
X115627323Y-102433571D02*
X115532085Y-102385952D01*
X115532085Y-102385952D02*
X115341609Y-102338333D01*
X115341609Y-102338333D02*
X115198752Y-102338333D01*
X115198752Y-102338333D02*
X115008276Y-102385952D01*
X115008276Y-102385952D02*
X114913038Y-102433571D01*
X114913038Y-102433571D02*
X114817800Y-102528809D01*
X114817800Y-102528809D02*
X114770180Y-102671666D01*
X114770180Y-102671666D02*
X114770180Y-102909761D01*
X114160180Y-105433571D02*
X114160180Y-104862143D01*
X113160180Y-105147857D02*
X114160180Y-105147857D01*
X113160180Y-104385952D02*
X113207800Y-104481190D01*
X113207800Y-104481190D02*
X113255419Y-104528809D01*
X113255419Y-104528809D02*
X113350657Y-104576428D01*
X113350657Y-104576428D02*
X113636371Y-104576428D01*
X113636371Y-104576428D02*
X113731609Y-104528809D01*
X113731609Y-104528809D02*
X113779228Y-104481190D01*
X113779228Y-104481190D02*
X113826847Y-104385952D01*
X113826847Y-104385952D02*
X113826847Y-104243095D01*
X113826847Y-104243095D02*
X113779228Y-104147857D01*
X113779228Y-104147857D02*
X113731609Y-104100238D01*
X113731609Y-104100238D02*
X113636371Y-104052619D01*
X113636371Y-104052619D02*
X113350657Y-104052619D01*
X113350657Y-104052619D02*
X113255419Y-104100238D01*
X113255419Y-104100238D02*
X113207800Y-104147857D01*
X113207800Y-104147857D02*
X113160180Y-104243095D01*
X113160180Y-104243095D02*
X113160180Y-104385952D01*
X113160180Y-103624047D02*
X113826847Y-103624047D01*
X113636371Y-103624047D02*
X113731609Y-103576428D01*
X113731609Y-103576428D02*
X113779228Y-103528809D01*
X113779228Y-103528809D02*
X113826847Y-103433571D01*
X113826847Y-103433571D02*
X113826847Y-103338333D01*
X113207800Y-102576428D02*
X113160180Y-102671666D01*
X113160180Y-102671666D02*
X113160180Y-102862142D01*
X113160180Y-102862142D02*
X113207800Y-102957380D01*
X113207800Y-102957380D02*
X113255419Y-103004999D01*
X113255419Y-103004999D02*
X113350657Y-103052618D01*
X113350657Y-103052618D02*
X113636371Y-103052618D01*
X113636371Y-103052618D02*
X113731609Y-103004999D01*
X113731609Y-103004999D02*
X113779228Y-102957380D01*
X113779228Y-102957380D02*
X113826847Y-102862142D01*
X113826847Y-102862142D02*
X113826847Y-102671666D01*
X113826847Y-102671666D02*
X113779228Y-102576428D01*
X113160180Y-102147856D02*
X114160180Y-102147856D01*
X113160180Y-101719285D02*
X113683990Y-101719285D01*
X113683990Y-101719285D02*
X113779228Y-101766904D01*
X113779228Y-101766904D02*
X113826847Y-101862142D01*
X113826847Y-101862142D02*
X113826847Y-102004999D01*
X113826847Y-102004999D02*
X113779228Y-102100237D01*
X113779228Y-102100237D02*
X113731609Y-102147856D01*
X142433856Y-107349940D02*
X142910047Y-107683273D01*
X142433856Y-107921368D02*
X143433856Y-107921368D01*
X143433856Y-107921368D02*
X143433856Y-107540416D01*
X143433856Y-107540416D02*
X143386237Y-107445178D01*
X143386237Y-107445178D02*
X143338618Y-107397559D01*
X143338618Y-107397559D02*
X143243380Y-107349940D01*
X143243380Y-107349940D02*
X143100523Y-107349940D01*
X143100523Y-107349940D02*
X143005285Y-107397559D01*
X143005285Y-107397559D02*
X142957666Y-107445178D01*
X142957666Y-107445178D02*
X142910047Y-107540416D01*
X142910047Y-107540416D02*
X142910047Y-107921368D01*
X142481476Y-106540416D02*
X142433856Y-106635654D01*
X142433856Y-106635654D02*
X142433856Y-106826130D01*
X142433856Y-106826130D02*
X142481476Y-106921368D01*
X142481476Y-106921368D02*
X142576714Y-106968987D01*
X142576714Y-106968987D02*
X142957666Y-106968987D01*
X142957666Y-106968987D02*
X143052904Y-106921368D01*
X143052904Y-106921368D02*
X143100523Y-106826130D01*
X143100523Y-106826130D02*
X143100523Y-106635654D01*
X143100523Y-106635654D02*
X143052904Y-106540416D01*
X143052904Y-106540416D02*
X142957666Y-106492797D01*
X142957666Y-106492797D02*
X142862428Y-106492797D01*
X142862428Y-106492797D02*
X142767190Y-106968987D01*
X143100523Y-106159463D02*
X142433856Y-105921368D01*
X142433856Y-105921368D02*
X143100523Y-105683273D01*
X142433856Y-105302320D02*
X143100523Y-105302320D01*
X143433856Y-105302320D02*
X143386237Y-105349939D01*
X143386237Y-105349939D02*
X143338618Y-105302320D01*
X143338618Y-105302320D02*
X143386237Y-105254701D01*
X143386237Y-105254701D02*
X143433856Y-105302320D01*
X143433856Y-105302320D02*
X143338618Y-105302320D01*
X142481476Y-104873749D02*
X142433856Y-104778511D01*
X142433856Y-104778511D02*
X142433856Y-104588035D01*
X142433856Y-104588035D02*
X142481476Y-104492797D01*
X142481476Y-104492797D02*
X142576714Y-104445178D01*
X142576714Y-104445178D02*
X142624333Y-104445178D01*
X142624333Y-104445178D02*
X142719571Y-104492797D01*
X142719571Y-104492797D02*
X142767190Y-104588035D01*
X142767190Y-104588035D02*
X142767190Y-104730892D01*
X142767190Y-104730892D02*
X142814809Y-104826130D01*
X142814809Y-104826130D02*
X142910047Y-104873749D01*
X142910047Y-104873749D02*
X142957666Y-104873749D01*
X142957666Y-104873749D02*
X143052904Y-104826130D01*
X143052904Y-104826130D02*
X143100523Y-104730892D01*
X143100523Y-104730892D02*
X143100523Y-104588035D01*
X143100523Y-104588035D02*
X143052904Y-104492797D01*
X142433856Y-104016606D02*
X143100523Y-104016606D01*
X143433856Y-104016606D02*
X143386237Y-104064225D01*
X143386237Y-104064225D02*
X143338618Y-104016606D01*
X143338618Y-104016606D02*
X143386237Y-103968987D01*
X143386237Y-103968987D02*
X143433856Y-104016606D01*
X143433856Y-104016606D02*
X143338618Y-104016606D01*
X142433856Y-103397559D02*
X142481476Y-103492797D01*
X142481476Y-103492797D02*
X142529095Y-103540416D01*
X142529095Y-103540416D02*
X142624333Y-103588035D01*
X142624333Y-103588035D02*
X142910047Y-103588035D01*
X142910047Y-103588035D02*
X143005285Y-103540416D01*
X143005285Y-103540416D02*
X143052904Y-103492797D01*
X143052904Y-103492797D02*
X143100523Y-103397559D01*
X143100523Y-103397559D02*
X143100523Y-103254702D01*
X143100523Y-103254702D02*
X143052904Y-103159464D01*
X143052904Y-103159464D02*
X143005285Y-103111845D01*
X143005285Y-103111845D02*
X142910047Y-103064226D01*
X142910047Y-103064226D02*
X142624333Y-103064226D01*
X142624333Y-103064226D02*
X142529095Y-103111845D01*
X142529095Y-103111845D02*
X142481476Y-103159464D01*
X142481476Y-103159464D02*
X142433856Y-103254702D01*
X142433856Y-103254702D02*
X142433856Y-103397559D01*
X143100523Y-102635654D02*
X142433856Y-102635654D01*
X143005285Y-102635654D02*
X143052904Y-102588035D01*
X143052904Y-102588035D02*
X143100523Y-102492797D01*
X143100523Y-102492797D02*
X143100523Y-102349940D01*
X143100523Y-102349940D02*
X143052904Y-102254702D01*
X143052904Y-102254702D02*
X142957666Y-102207083D01*
X142957666Y-102207083D02*
X142433856Y-102207083D01*
X142529095Y-101730892D02*
X142481476Y-101683273D01*
X142481476Y-101683273D02*
X142433856Y-101730892D01*
X142433856Y-101730892D02*
X142481476Y-101778511D01*
X142481476Y-101778511D02*
X142529095Y-101730892D01*
X142529095Y-101730892D02*
X142433856Y-101730892D01*
X143052904Y-101730892D02*
X143005285Y-101683273D01*
X143005285Y-101683273D02*
X142957666Y-101730892D01*
X142957666Y-101730892D02*
X143005285Y-101778511D01*
X143005285Y-101778511D02*
X143052904Y-101730892D01*
X143052904Y-101730892D02*
X142957666Y-101730892D01*
X142719571Y-100540416D02*
X142719571Y-100064226D01*
X142433856Y-100635654D02*
X143433856Y-100302321D01*
X143433856Y-100302321D02*
X142433856Y-99968988D01*
%TO.C,TAG1*%
D11*
X151743534Y-97574974D02*
X151763199Y-97606544D01*
X151772266Y-97637185D01*
X151764434Y-97665150D01*
X151743534Y-97699395D01*
X151714803Y-97734877D01*
X150852805Y-97734877D01*
X150824074Y-97699395D01*
X150800809Y-97657643D01*
X150799696Y-97609980D01*
X150826980Y-97568124D01*
X150833190Y-97562963D01*
X150845795Y-97555686D01*
X150864010Y-97550085D01*
X150891329Y-97545942D01*
X150931243Y-97543040D01*
X150987246Y-97541162D01*
X151062829Y-97540089D01*
X151161486Y-97539605D01*
X151286710Y-97539492D01*
X151714803Y-97539492D01*
X151743534Y-97574974D01*
G36*
X151743534Y-97574974D02*
G01*
X151763199Y-97606544D01*
X151772266Y-97637185D01*
X151764434Y-97665150D01*
X151743534Y-97699395D01*
X151714803Y-97734877D01*
X150852805Y-97734877D01*
X150824074Y-97699395D01*
X150800809Y-97657643D01*
X150799696Y-97609980D01*
X150826980Y-97568124D01*
X150833190Y-97562963D01*
X150845795Y-97555686D01*
X150864010Y-97550085D01*
X150891329Y-97545942D01*
X150931243Y-97543040D01*
X150987246Y-97541162D01*
X151062829Y-97540089D01*
X151161486Y-97539605D01*
X151286710Y-97539492D01*
X151714803Y-97539492D01*
X151743534Y-97574974D01*
G37*
X151384536Y-107045758D02*
X151488262Y-107046097D01*
X151568157Y-107046955D01*
X151627705Y-107048558D01*
X151670392Y-107051136D01*
X151699701Y-107054917D01*
X151719117Y-107060130D01*
X151732124Y-107067003D01*
X151742206Y-107075765D01*
X151767531Y-107114618D01*
X151766412Y-107158727D01*
X151735375Y-107204199D01*
X151698484Y-107241090D01*
X151281698Y-107241090D01*
X151169824Y-107241035D01*
X151071008Y-107240691D01*
X150995450Y-107239798D01*
X150939572Y-107238097D01*
X150899794Y-107235329D01*
X150872540Y-107231236D01*
X150854229Y-107225557D01*
X150841285Y-107218036D01*
X150830128Y-107208411D01*
X150801551Y-107166522D01*
X150799200Y-107119704D01*
X150825402Y-107075765D01*
X150833215Y-107068699D01*
X150845309Y-107061444D01*
X150863071Y-107055898D01*
X150889986Y-107051831D01*
X150929538Y-107049017D01*
X150985211Y-107047225D01*
X151060491Y-107046229D01*
X151158860Y-107045798D01*
X151283804Y-107045705D01*
X151384536Y-107045758D01*
G36*
X151384536Y-107045758D02*
G01*
X151488262Y-107046097D01*
X151568157Y-107046955D01*
X151627705Y-107048558D01*
X151670392Y-107051136D01*
X151699701Y-107054917D01*
X151719117Y-107060130D01*
X151732124Y-107067003D01*
X151742206Y-107075765D01*
X151767531Y-107114618D01*
X151766412Y-107158727D01*
X151735375Y-107204199D01*
X151698484Y-107241090D01*
X151281698Y-107241090D01*
X151169824Y-107241035D01*
X151071008Y-107240691D01*
X150995450Y-107239798D01*
X150939572Y-107238097D01*
X150899794Y-107235329D01*
X150872540Y-107231236D01*
X150854229Y-107225557D01*
X150841285Y-107218036D01*
X150830128Y-107208411D01*
X150801551Y-107166522D01*
X150799200Y-107119704D01*
X150825402Y-107075765D01*
X150833215Y-107068699D01*
X150845309Y-107061444D01*
X150863071Y-107055898D01*
X150889986Y-107051831D01*
X150929538Y-107049017D01*
X150985211Y-107047225D01*
X151060491Y-107046229D01*
X151158860Y-107045798D01*
X151283804Y-107045705D01*
X151384536Y-107045758D01*
G37*
X159748768Y-106408443D02*
X159862104Y-106445594D01*
X159943133Y-106488520D01*
X160071689Y-106584081D01*
X160173149Y-106697369D01*
X160247504Y-106824219D01*
X160294743Y-106960466D01*
X160314858Y-107101943D01*
X160307837Y-107244485D01*
X160273671Y-107383927D01*
X160212351Y-107516103D01*
X160123866Y-107636847D01*
X160008206Y-107741994D01*
X159865363Y-107827378D01*
X159815043Y-107850269D01*
X159764040Y-107868814D01*
X159713052Y-107879220D01*
X159649985Y-107883781D01*
X159562747Y-107884791D01*
X159490137Y-107884180D01*
X159423406Y-107880498D01*
X159371342Y-107871470D01*
X159321990Y-107854842D01*
X159263390Y-107828360D01*
X159247774Y-107820700D01*
X159104783Y-107730154D01*
X158987133Y-107616273D01*
X158897587Y-107482289D01*
X158838904Y-107331434D01*
X158822529Y-107254029D01*
X158814866Y-107096997D01*
X158839660Y-106944901D01*
X158894370Y-106802202D01*
X158976453Y-106673360D01*
X159083367Y-106562834D01*
X159212569Y-106475084D01*
X159361518Y-106414571D01*
X159483411Y-106392431D01*
X159617925Y-106390436D01*
X159748768Y-106408443D01*
G36*
X159748768Y-106408443D02*
G01*
X159862104Y-106445594D01*
X159943133Y-106488520D01*
X160071689Y-106584081D01*
X160173149Y-106697369D01*
X160247504Y-106824219D01*
X160294743Y-106960466D01*
X160314858Y-107101943D01*
X160307837Y-107244485D01*
X160273671Y-107383927D01*
X160212351Y-107516103D01*
X160123866Y-107636847D01*
X160008206Y-107741994D01*
X159865363Y-107827378D01*
X159815043Y-107850269D01*
X159764040Y-107868814D01*
X159713052Y-107879220D01*
X159649985Y-107883781D01*
X159562747Y-107884791D01*
X159490137Y-107884180D01*
X159423406Y-107880498D01*
X159371342Y-107871470D01*
X159321990Y-107854842D01*
X159263390Y-107828360D01*
X159247774Y-107820700D01*
X159104783Y-107730154D01*
X158987133Y-107616273D01*
X158897587Y-107482289D01*
X158838904Y-107331434D01*
X158822529Y-107254029D01*
X158814866Y-107096997D01*
X158839660Y-106944901D01*
X158894370Y-106802202D01*
X158976453Y-106673360D01*
X159083367Y-106562834D01*
X159212569Y-106475084D01*
X159361518Y-106414571D01*
X159483411Y-106392431D01*
X159617925Y-106390436D01*
X159748768Y-106408443D01*
G37*
X151702647Y-96178204D02*
X151745964Y-96212345D01*
X151750913Y-96218923D01*
X151757351Y-96232517D01*
X151762362Y-96253054D01*
X151766119Y-96283837D01*
X151768800Y-96328168D01*
X151770580Y-96389349D01*
X151771633Y-96470683D01*
X151772137Y-96575471D01*
X151772266Y-96707015D01*
X151772264Y-96733679D01*
X151772144Y-96858991D01*
X151771692Y-96958196D01*
X151770704Y-97034626D01*
X151768979Y-97091607D01*
X151766315Y-97132471D01*
X151762507Y-97160545D01*
X151757355Y-97179160D01*
X151750656Y-97191644D01*
X151742206Y-97201327D01*
X151698647Y-97226364D01*
X151648619Y-97228290D01*
X151604366Y-97206512D01*
X151602431Y-97204701D01*
X151591300Y-97189786D01*
X151583905Y-97167016D01*
X151579519Y-97130844D01*
X151577420Y-97075721D01*
X151576881Y-96996098D01*
X151576881Y-96810557D01*
X151225713Y-96810557D01*
X151124758Y-96810457D01*
X151036002Y-96809914D01*
X150969721Y-96808606D01*
X150921903Y-96806215D01*
X150888530Y-96802419D01*
X150865590Y-96796900D01*
X150849066Y-96789336D01*
X150834943Y-96779407D01*
X150831207Y-96776358D01*
X150801062Y-96734848D01*
X150798980Y-96689077D01*
X150825402Y-96645232D01*
X150836153Y-96635941D01*
X150850264Y-96628656D01*
X150871357Y-96623304D01*
X150903278Y-96619588D01*
X150949874Y-96617212D01*
X151014991Y-96615882D01*
X151102475Y-96615301D01*
X151216171Y-96615173D01*
X151576881Y-96615173D01*
X151576881Y-96420879D01*
X151576882Y-96406101D01*
X151577182Y-96330856D01*
X151578699Y-96279140D01*
X151582426Y-96245333D01*
X151589358Y-96223816D01*
X151600490Y-96208969D01*
X151616816Y-96195172D01*
X151657673Y-96174074D01*
X151702647Y-96178204D01*
G36*
X151702647Y-96178204D02*
G01*
X151745964Y-96212345D01*
X151750913Y-96218923D01*
X151757351Y-96232517D01*
X151762362Y-96253054D01*
X151766119Y-96283837D01*
X151768800Y-96328168D01*
X151770580Y-96389349D01*
X151771633Y-96470683D01*
X151772137Y-96575471D01*
X151772266Y-96707015D01*
X151772264Y-96733679D01*
X151772144Y-96858991D01*
X151771692Y-96958196D01*
X151770704Y-97034626D01*
X151768979Y-97091607D01*
X151766315Y-97132471D01*
X151762507Y-97160545D01*
X151757355Y-97179160D01*
X151750656Y-97191644D01*
X151742206Y-97201327D01*
X151698647Y-97226364D01*
X151648619Y-97228290D01*
X151604366Y-97206512D01*
X151602431Y-97204701D01*
X151591300Y-97189786D01*
X151583905Y-97167016D01*
X151579519Y-97130844D01*
X151577420Y-97075721D01*
X151576881Y-96996098D01*
X151576881Y-96810557D01*
X151225713Y-96810557D01*
X151124758Y-96810457D01*
X151036002Y-96809914D01*
X150969721Y-96808606D01*
X150921903Y-96806215D01*
X150888530Y-96802419D01*
X150865590Y-96796900D01*
X150849066Y-96789336D01*
X150834943Y-96779407D01*
X150831207Y-96776358D01*
X150801062Y-96734848D01*
X150798980Y-96689077D01*
X150825402Y-96645232D01*
X150836153Y-96635941D01*
X150850264Y-96628656D01*
X150871357Y-96623304D01*
X150903278Y-96619588D01*
X150949874Y-96617212D01*
X151014991Y-96615882D01*
X151102475Y-96615301D01*
X151216171Y-96615173D01*
X151576881Y-96615173D01*
X151576881Y-96420879D01*
X151576882Y-96406101D01*
X151577182Y-96330856D01*
X151578699Y-96279140D01*
X151582426Y-96245333D01*
X151589358Y-96223816D01*
X151600490Y-96208969D01*
X151616816Y-96195172D01*
X151657673Y-96174074D01*
X151702647Y-96178204D01*
G37*
X151735375Y-94848513D02*
X151764988Y-94890289D01*
X151768569Y-94934529D01*
X151742206Y-94976948D01*
X151729198Y-94987979D01*
X151708040Y-94997847D01*
X151676131Y-95003622D01*
X151627040Y-95006332D01*
X151554337Y-95007007D01*
X151396526Y-95007007D01*
X151396526Y-95668309D01*
X151550316Y-95668309D01*
X151619143Y-95668892D01*
X151665108Y-95671507D01*
X151695165Y-95677519D01*
X151716269Y-95688295D01*
X151735375Y-95705200D01*
X151764988Y-95746976D01*
X151768569Y-95791215D01*
X151742206Y-95833634D01*
X151733965Y-95841133D01*
X151723040Y-95847910D01*
X151707361Y-95853350D01*
X151684117Y-95857582D01*
X151650495Y-95860732D01*
X151603684Y-95862930D01*
X151540873Y-95864303D01*
X151459249Y-95864980D01*
X151356002Y-95865088D01*
X151228319Y-95864756D01*
X151073390Y-95864112D01*
X151054518Y-95864020D01*
X150972290Y-95863240D01*
X150914132Y-95861479D01*
X150875016Y-95858090D01*
X150849915Y-95852425D01*
X150833800Y-95843836D01*
X150821644Y-95831675D01*
X150798456Y-95787131D01*
X150802319Y-95740602D01*
X150834943Y-95699459D01*
X150852521Y-95687464D01*
X150877199Y-95677544D01*
X150911852Y-95671729D01*
X150963171Y-95668993D01*
X151037843Y-95668309D01*
X151201141Y-95668309D01*
X151201141Y-95007007D01*
X151021638Y-95007007D01*
X150973988Y-95006910D01*
X150912306Y-95005895D01*
X150871654Y-95002997D01*
X150846318Y-94997276D01*
X150830584Y-94987792D01*
X150818739Y-94973604D01*
X150798676Y-94930666D01*
X150802227Y-94883687D01*
X150834943Y-94842773D01*
X150843271Y-94836574D01*
X150857282Y-94828672D01*
X150875828Y-94822639D01*
X150902553Y-94818225D01*
X150941106Y-94815177D01*
X150995132Y-94813245D01*
X151068278Y-94812176D01*
X151164190Y-94811719D01*
X151286514Y-94811623D01*
X151698484Y-94811623D01*
X151735375Y-94848513D01*
G36*
X151735375Y-94848513D02*
G01*
X151764988Y-94890289D01*
X151768569Y-94934529D01*
X151742206Y-94976948D01*
X151729198Y-94987979D01*
X151708040Y-94997847D01*
X151676131Y-95003622D01*
X151627040Y-95006332D01*
X151554337Y-95007007D01*
X151396526Y-95007007D01*
X151396526Y-95668309D01*
X151550316Y-95668309D01*
X151619143Y-95668892D01*
X151665108Y-95671507D01*
X151695165Y-95677519D01*
X151716269Y-95688295D01*
X151735375Y-95705200D01*
X151764988Y-95746976D01*
X151768569Y-95791215D01*
X151742206Y-95833634D01*
X151733965Y-95841133D01*
X151723040Y-95847910D01*
X151707361Y-95853350D01*
X151684117Y-95857582D01*
X151650495Y-95860732D01*
X151603684Y-95862930D01*
X151540873Y-95864303D01*
X151459249Y-95864980D01*
X151356002Y-95865088D01*
X151228319Y-95864756D01*
X151073390Y-95864112D01*
X151054518Y-95864020D01*
X150972290Y-95863240D01*
X150914132Y-95861479D01*
X150875016Y-95858090D01*
X150849915Y-95852425D01*
X150833800Y-95843836D01*
X150821644Y-95831675D01*
X150798456Y-95787131D01*
X150802319Y-95740602D01*
X150834943Y-95699459D01*
X150852521Y-95687464D01*
X150877199Y-95677544D01*
X150911852Y-95671729D01*
X150963171Y-95668993D01*
X151037843Y-95668309D01*
X151201141Y-95668309D01*
X151201141Y-95007007D01*
X151021638Y-95007007D01*
X150973988Y-95006910D01*
X150912306Y-95005895D01*
X150871654Y-95002997D01*
X150846318Y-94997276D01*
X150830584Y-94987792D01*
X150818739Y-94973604D01*
X150798676Y-94930666D01*
X150802227Y-94883687D01*
X150834943Y-94842773D01*
X150843271Y-94836574D01*
X150857282Y-94828672D01*
X150875828Y-94822639D01*
X150902553Y-94818225D01*
X150941106Y-94815177D01*
X150995132Y-94813245D01*
X151068278Y-94812176D01*
X151164190Y-94811719D01*
X151286514Y-94811623D01*
X151698484Y-94811623D01*
X151735375Y-94848513D01*
G37*
X151361652Y-101046799D02*
X151444372Y-101078940D01*
X151446626Y-101079999D01*
X151539052Y-101133855D01*
X151614405Y-101201334D01*
X151673741Y-101284845D01*
X151718113Y-101386795D01*
X151748575Y-101509593D01*
X151766183Y-101655647D01*
X151771989Y-101827365D01*
X151771995Y-101832120D01*
X151771809Y-101912029D01*
X151770429Y-101967854D01*
X151766975Y-102005283D01*
X151760568Y-102030005D01*
X151750328Y-102047708D01*
X151735375Y-102064081D01*
X151698484Y-102100972D01*
X151286514Y-102100972D01*
X151204495Y-102100938D01*
X151099604Y-102100638D01*
X151018776Y-102099816D01*
X150990727Y-102099074D01*
X150958365Y-102098219D01*
X150914726Y-102095597D01*
X150884210Y-102091698D01*
X150863172Y-102086270D01*
X150847965Y-102079062D01*
X150834943Y-102069822D01*
X150795342Y-102038672D01*
X150795873Y-101890557D01*
X150990727Y-101890557D01*
X151576881Y-101890557D01*
X151576284Y-101774078D01*
X151572988Y-101684984D01*
X151558008Y-101561969D01*
X151531994Y-101456372D01*
X151496082Y-101373861D01*
X151468485Y-101332669D01*
X151428856Y-101295231D01*
X151372369Y-101264158D01*
X151351112Y-101254669D01*
X151307840Y-101238927D01*
X151275314Y-101235692D01*
X151242392Y-101243165D01*
X151221252Y-101250788D01*
X151141493Y-101294630D01*
X151080579Y-101357654D01*
X151036464Y-101442549D01*
X151007101Y-101551999D01*
X151006433Y-101555718D01*
X150998495Y-101617341D01*
X150992866Y-101692425D01*
X150990727Y-101765566D01*
X150990727Y-101890557D01*
X150795873Y-101890557D01*
X150796133Y-101818076D01*
X150796530Y-101771750D01*
X150801097Y-101640633D01*
X150811325Y-101532844D01*
X150828044Y-101443517D01*
X150852081Y-101367785D01*
X150884267Y-101300782D01*
X150886819Y-101296310D01*
X150935704Y-101219342D01*
X150984919Y-101162953D01*
X151042814Y-101119263D01*
X151117739Y-101080387D01*
X151130541Y-101074687D01*
X151214664Y-101044628D01*
X151288392Y-101035347D01*
X151361652Y-101046799D01*
G36*
X151361652Y-101046799D02*
G01*
X151444372Y-101078940D01*
X151446626Y-101079999D01*
X151539052Y-101133855D01*
X151614405Y-101201334D01*
X151673741Y-101284845D01*
X151718113Y-101386795D01*
X151748575Y-101509593D01*
X151766183Y-101655647D01*
X151771989Y-101827365D01*
X151771995Y-101832120D01*
X151771809Y-101912029D01*
X151770429Y-101967854D01*
X151766975Y-102005283D01*
X151760568Y-102030005D01*
X151750328Y-102047708D01*
X151735375Y-102064081D01*
X151698484Y-102100972D01*
X151286514Y-102100972D01*
X151204495Y-102100938D01*
X151099604Y-102100638D01*
X151018776Y-102099816D01*
X150990727Y-102099074D01*
X150958365Y-102098219D01*
X150914726Y-102095597D01*
X150884210Y-102091698D01*
X150863172Y-102086270D01*
X150847965Y-102079062D01*
X150834943Y-102069822D01*
X150795342Y-102038672D01*
X150795873Y-101890557D01*
X150990727Y-101890557D01*
X151576881Y-101890557D01*
X151576284Y-101774078D01*
X151572988Y-101684984D01*
X151558008Y-101561969D01*
X151531994Y-101456372D01*
X151496082Y-101373861D01*
X151468485Y-101332669D01*
X151428856Y-101295231D01*
X151372369Y-101264158D01*
X151351112Y-101254669D01*
X151307840Y-101238927D01*
X151275314Y-101235692D01*
X151242392Y-101243165D01*
X151221252Y-101250788D01*
X151141493Y-101294630D01*
X151080579Y-101357654D01*
X151036464Y-101442549D01*
X151007101Y-101551999D01*
X151006433Y-101555718D01*
X150998495Y-101617341D01*
X150992866Y-101692425D01*
X150990727Y-101765566D01*
X150990727Y-101890557D01*
X150795873Y-101890557D01*
X150796133Y-101818076D01*
X150796530Y-101771750D01*
X150801097Y-101640633D01*
X150811325Y-101532844D01*
X150828044Y-101443517D01*
X150852081Y-101367785D01*
X150884267Y-101300782D01*
X150886819Y-101296310D01*
X150935704Y-101219342D01*
X150984919Y-101162953D01*
X151042814Y-101119263D01*
X151117739Y-101080387D01*
X151130541Y-101074687D01*
X151214664Y-101044628D01*
X151288392Y-101035347D01*
X151361652Y-101046799D01*
G37*
X151312051Y-110489183D02*
X151388492Y-110505575D01*
X151468255Y-110535569D01*
X151540214Y-110574485D01*
X151593243Y-110617643D01*
X151615907Y-110643660D01*
X151668079Y-110716501D01*
X151708193Y-110796786D01*
X151737430Y-110888911D01*
X151756977Y-110997273D01*
X151768016Y-111126267D01*
X151771732Y-111280291D01*
X151772267Y-111332856D01*
X151772817Y-111393714D01*
X151770415Y-111441377D01*
X151762051Y-111477445D01*
X151744716Y-111503516D01*
X151715401Y-111521189D01*
X151671097Y-111532063D01*
X151608795Y-111537738D01*
X151576881Y-111538532D01*
X151525484Y-111539810D01*
X151418157Y-111539882D01*
X151283804Y-111539551D01*
X151183071Y-111539499D01*
X151079346Y-111539159D01*
X150999451Y-111538302D01*
X150939903Y-111536699D01*
X150897216Y-111534121D01*
X150867907Y-111530340D01*
X150848491Y-111525127D01*
X150835484Y-111518254D01*
X150825402Y-111509492D01*
X150817102Y-111500216D01*
X150807383Y-111482911D01*
X150801054Y-111457418D01*
X150797410Y-111418271D01*
X150795741Y-111360003D01*
X150795665Y-111344167D01*
X150990727Y-111344167D01*
X151576881Y-111344167D01*
X151576900Y-111242717D01*
X151576888Y-111238686D01*
X151574272Y-111170627D01*
X151567982Y-111090609D01*
X151559290Y-111015109D01*
X151546913Y-110948597D01*
X151511941Y-110849075D01*
X151459620Y-110772510D01*
X151389011Y-110717257D01*
X151320757Y-110689009D01*
X151257083Y-110687122D01*
X151189270Y-110711462D01*
X151128138Y-110750964D01*
X151071676Y-110813134D01*
X151031998Y-110894865D01*
X151006521Y-111000238D01*
X151006204Y-111002222D01*
X150998493Y-111067420D01*
X150992980Y-111145563D01*
X150990841Y-111220173D01*
X150990727Y-111344167D01*
X150795665Y-111344167D01*
X150795342Y-111277148D01*
X150795842Y-111211982D01*
X150801738Y-111069714D01*
X150815168Y-110950919D01*
X150837253Y-110851336D01*
X150869113Y-110766700D01*
X150911868Y-110692748D01*
X150966638Y-110625215D01*
X150974430Y-110617243D01*
X151039013Y-110568159D01*
X151119971Y-110526755D01*
X151205502Y-110498153D01*
X151283804Y-110487480D01*
X151312051Y-110489183D01*
G36*
X151312051Y-110489183D02*
G01*
X151388492Y-110505575D01*
X151468255Y-110535569D01*
X151540214Y-110574485D01*
X151593243Y-110617643D01*
X151615907Y-110643660D01*
X151668079Y-110716501D01*
X151708193Y-110796786D01*
X151737430Y-110888911D01*
X151756977Y-110997273D01*
X151768016Y-111126267D01*
X151771732Y-111280291D01*
X151772267Y-111332856D01*
X151772817Y-111393714D01*
X151770415Y-111441377D01*
X151762051Y-111477445D01*
X151744716Y-111503516D01*
X151715401Y-111521189D01*
X151671097Y-111532063D01*
X151608795Y-111537738D01*
X151576881Y-111538532D01*
X151525484Y-111539810D01*
X151418157Y-111539882D01*
X151283804Y-111539551D01*
X151183071Y-111539499D01*
X151079346Y-111539159D01*
X150999451Y-111538302D01*
X150939903Y-111536699D01*
X150897216Y-111534121D01*
X150867907Y-111530340D01*
X150848491Y-111525127D01*
X150835484Y-111518254D01*
X150825402Y-111509492D01*
X150817102Y-111500216D01*
X150807383Y-111482911D01*
X150801054Y-111457418D01*
X150797410Y-111418271D01*
X150795741Y-111360003D01*
X150795665Y-111344167D01*
X150990727Y-111344167D01*
X151576881Y-111344167D01*
X151576900Y-111242717D01*
X151576888Y-111238686D01*
X151574272Y-111170627D01*
X151567982Y-111090609D01*
X151559290Y-111015109D01*
X151546913Y-110948597D01*
X151511941Y-110849075D01*
X151459620Y-110772510D01*
X151389011Y-110717257D01*
X151320757Y-110689009D01*
X151257083Y-110687122D01*
X151189270Y-110711462D01*
X151128138Y-110750964D01*
X151071676Y-110813134D01*
X151031998Y-110894865D01*
X151006521Y-111000238D01*
X151006204Y-111002222D01*
X150998493Y-111067420D01*
X150992980Y-111145563D01*
X150990841Y-111220173D01*
X150990727Y-111344167D01*
X150795665Y-111344167D01*
X150795342Y-111277148D01*
X150795842Y-111211982D01*
X150801738Y-111069714D01*
X150815168Y-110950919D01*
X150837253Y-110851336D01*
X150869113Y-110766700D01*
X150911868Y-110692748D01*
X150966638Y-110625215D01*
X150974430Y-110617243D01*
X151039013Y-110568159D01*
X151119971Y-110526755D01*
X151205502Y-110498153D01*
X151283804Y-110487480D01*
X151312051Y-110489183D01*
G37*
X151172205Y-103966521D02*
X151295526Y-103967742D01*
X151714841Y-103972155D01*
X151743553Y-104007637D01*
X151765110Y-104042339D01*
X151768799Y-104086085D01*
X151743566Y-104132058D01*
X151738794Y-104137799D01*
X151727438Y-104148626D01*
X151712005Y-104156653D01*
X151688166Y-104162458D01*
X151651592Y-104166622D01*
X151597954Y-104169724D01*
X151522922Y-104172341D01*
X151422168Y-104175054D01*
X151129469Y-104182569D01*
X151347538Y-104423043D01*
X151452228Y-104538522D01*
X151543284Y-104639401D01*
X151616974Y-104722127D01*
X151674716Y-104788826D01*
X151717927Y-104841624D01*
X151748027Y-104882647D01*
X151766432Y-104914022D01*
X151774560Y-104937875D01*
X151773830Y-104956332D01*
X151765659Y-104971520D01*
X151751464Y-104985564D01*
X151732665Y-105000591D01*
X151724728Y-105006519D01*
X151710756Y-105014505D01*
X151692349Y-105020602D01*
X151665849Y-105025064D01*
X151627593Y-105028145D01*
X151573921Y-105030099D01*
X151501173Y-105031181D01*
X151405688Y-105031643D01*
X151283804Y-105031741D01*
X151205879Y-105031710D01*
X151100585Y-105031420D01*
X151019449Y-105030609D01*
X150958810Y-105029023D01*
X150915007Y-105026410D01*
X150884380Y-105022514D01*
X150863267Y-105017081D01*
X150848009Y-105009858D01*
X150834943Y-105000591D01*
X150802467Y-104960079D01*
X150798634Y-104913558D01*
X150824050Y-104864323D01*
X150828676Y-104858753D01*
X150840030Y-104847868D01*
X150855408Y-104839799D01*
X150879150Y-104833964D01*
X150915592Y-104829781D01*
X150969072Y-104826669D01*
X151043929Y-104824045D01*
X151144499Y-104821327D01*
X151436241Y-104813812D01*
X151115862Y-104460617D01*
X151026958Y-104362317D01*
X150949585Y-104275539D01*
X150889730Y-104206050D01*
X150845899Y-104151365D01*
X150816599Y-104109002D01*
X150800336Y-104076480D01*
X150795616Y-104051314D01*
X150800945Y-104031023D01*
X150814830Y-104013124D01*
X150835777Y-103995135D01*
X150847071Y-103986820D01*
X150861153Y-103979322D01*
X150880003Y-103973716D01*
X150907233Y-103969786D01*
X150946455Y-103967316D01*
X151001282Y-103966092D01*
X151075328Y-103965899D01*
X151172205Y-103966521D01*
G36*
X151172205Y-103966521D02*
G01*
X151295526Y-103967742D01*
X151714841Y-103972155D01*
X151743553Y-104007637D01*
X151765110Y-104042339D01*
X151768799Y-104086085D01*
X151743566Y-104132058D01*
X151738794Y-104137799D01*
X151727438Y-104148626D01*
X151712005Y-104156653D01*
X151688166Y-104162458D01*
X151651592Y-104166622D01*
X151597954Y-104169724D01*
X151522922Y-104172341D01*
X151422168Y-104175054D01*
X151129469Y-104182569D01*
X151347538Y-104423043D01*
X151452228Y-104538522D01*
X151543284Y-104639401D01*
X151616974Y-104722127D01*
X151674716Y-104788826D01*
X151717927Y-104841624D01*
X151748027Y-104882647D01*
X151766432Y-104914022D01*
X151774560Y-104937875D01*
X151773830Y-104956332D01*
X151765659Y-104971520D01*
X151751464Y-104985564D01*
X151732665Y-105000591D01*
X151724728Y-105006519D01*
X151710756Y-105014505D01*
X151692349Y-105020602D01*
X151665849Y-105025064D01*
X151627593Y-105028145D01*
X151573921Y-105030099D01*
X151501173Y-105031181D01*
X151405688Y-105031643D01*
X151283804Y-105031741D01*
X151205879Y-105031710D01*
X151100585Y-105031420D01*
X151019449Y-105030609D01*
X150958810Y-105029023D01*
X150915007Y-105026410D01*
X150884380Y-105022514D01*
X150863267Y-105017081D01*
X150848009Y-105009858D01*
X150834943Y-105000591D01*
X150802467Y-104960079D01*
X150798634Y-104913558D01*
X150824050Y-104864323D01*
X150828676Y-104858753D01*
X150840030Y-104847868D01*
X150855408Y-104839799D01*
X150879150Y-104833964D01*
X150915592Y-104829781D01*
X150969072Y-104826669D01*
X151043929Y-104824045D01*
X151144499Y-104821327D01*
X151436241Y-104813812D01*
X151115862Y-104460617D01*
X151026958Y-104362317D01*
X150949585Y-104275539D01*
X150889730Y-104206050D01*
X150845899Y-104151365D01*
X150816599Y-104109002D01*
X150800336Y-104076480D01*
X150795616Y-104051314D01*
X150800945Y-104031023D01*
X150814830Y-104013124D01*
X150835777Y-103995135D01*
X150847071Y-103986820D01*
X150861153Y-103979322D01*
X150880003Y-103973716D01*
X150907233Y-103969786D01*
X150946455Y-103967316D01*
X151001282Y-103966092D01*
X151075328Y-103965899D01*
X151172205Y-103966521D01*
G37*
X151188102Y-105483773D02*
X151251185Y-105490057D01*
X151293926Y-105505620D01*
X151319957Y-105534603D01*
X151332912Y-105581146D01*
X151336423Y-105649389D01*
X151334122Y-105743472D01*
X151330112Y-105808203D01*
X151319205Y-105875032D01*
X151300495Y-105918293D01*
X151272223Y-105941537D01*
X151232628Y-105948315D01*
X151226582Y-105948174D01*
X151180259Y-105936588D01*
X151149082Y-105904623D01*
X151131508Y-105849684D01*
X151125993Y-105769179D01*
X151125993Y-105678013D01*
X151074933Y-105678013D01*
X151062770Y-105678080D01*
X151039803Y-105681036D01*
X151026098Y-105693374D01*
X151016862Y-105721840D01*
X151007300Y-105773179D01*
X151006056Y-105780467D01*
X150992871Y-105909543D01*
X150996758Y-106029354D01*
X151016369Y-106137072D01*
X151050359Y-106229866D01*
X151097383Y-106304908D01*
X151156095Y-106359368D01*
X151225149Y-106390418D01*
X151303198Y-106395227D01*
X151341668Y-106387880D01*
X151416077Y-106352355D01*
X151476866Y-106290861D01*
X151523245Y-106204347D01*
X151554424Y-106093762D01*
X151560347Y-106060911D01*
X151574325Y-105941982D01*
X151572689Y-105835730D01*
X151555467Y-105731761D01*
X151546428Y-105684972D01*
X151545073Y-105624478D01*
X151561757Y-105582787D01*
X151597420Y-105555955D01*
X151635027Y-105547456D01*
X151676598Y-105560086D01*
X151694472Y-105572506D01*
X151725801Y-105618084D01*
X151749594Y-105688143D01*
X151764900Y-105779364D01*
X151770767Y-105888427D01*
X151765459Y-106017769D01*
X151743738Y-106158902D01*
X151706391Y-106283800D01*
X151654593Y-106388705D01*
X151589514Y-106469857D01*
X151545763Y-106504566D01*
X151480262Y-106543851D01*
X151408557Y-106577497D01*
X151340435Y-106600995D01*
X151285683Y-106609836D01*
X151259435Y-106607759D01*
X151191093Y-106590529D01*
X151115836Y-106559691D01*
X151044054Y-106519894D01*
X150986134Y-106475788D01*
X150972357Y-106462213D01*
X150903426Y-106372898D01*
X150850314Y-106266222D01*
X150817827Y-106151445D01*
X150807027Y-106078268D01*
X150798234Y-105953848D01*
X150801013Y-105834318D01*
X150814653Y-105724494D01*
X150838444Y-105629192D01*
X150871678Y-105553227D01*
X150913643Y-105501415D01*
X150916273Y-105499584D01*
X150949858Y-105490148D01*
X151012766Y-105484504D01*
X151105248Y-105482628D01*
X151188102Y-105483773D01*
G36*
X151188102Y-105483773D02*
G01*
X151251185Y-105490057D01*
X151293926Y-105505620D01*
X151319957Y-105534603D01*
X151332912Y-105581146D01*
X151336423Y-105649389D01*
X151334122Y-105743472D01*
X151330112Y-105808203D01*
X151319205Y-105875032D01*
X151300495Y-105918293D01*
X151272223Y-105941537D01*
X151232628Y-105948315D01*
X151226582Y-105948174D01*
X151180259Y-105936588D01*
X151149082Y-105904623D01*
X151131508Y-105849684D01*
X151125993Y-105769179D01*
X151125993Y-105678013D01*
X151074933Y-105678013D01*
X151062770Y-105678080D01*
X151039803Y-105681036D01*
X151026098Y-105693374D01*
X151016862Y-105721840D01*
X151007300Y-105773179D01*
X151006056Y-105780467D01*
X150992871Y-105909543D01*
X150996758Y-106029354D01*
X151016369Y-106137072D01*
X151050359Y-106229866D01*
X151097383Y-106304908D01*
X151156095Y-106359368D01*
X151225149Y-106390418D01*
X151303198Y-106395227D01*
X151341668Y-106387880D01*
X151416077Y-106352355D01*
X151476866Y-106290861D01*
X151523245Y-106204347D01*
X151554424Y-106093762D01*
X151560347Y-106060911D01*
X151574325Y-105941982D01*
X151572689Y-105835730D01*
X151555467Y-105731761D01*
X151546428Y-105684972D01*
X151545073Y-105624478D01*
X151561757Y-105582787D01*
X151597420Y-105555955D01*
X151635027Y-105547456D01*
X151676598Y-105560086D01*
X151694472Y-105572506D01*
X151725801Y-105618084D01*
X151749594Y-105688143D01*
X151764900Y-105779364D01*
X151770767Y-105888427D01*
X151765459Y-106017769D01*
X151743738Y-106158902D01*
X151706391Y-106283800D01*
X151654593Y-106388705D01*
X151589514Y-106469857D01*
X151545763Y-106504566D01*
X151480262Y-106543851D01*
X151408557Y-106577497D01*
X151340435Y-106600995D01*
X151285683Y-106609836D01*
X151259435Y-106607759D01*
X151191093Y-106590529D01*
X151115836Y-106559691D01*
X151044054Y-106519894D01*
X150986134Y-106475788D01*
X150972357Y-106462213D01*
X150903426Y-106372898D01*
X150850314Y-106266222D01*
X150817827Y-106151445D01*
X150807027Y-106078268D01*
X150798234Y-105953848D01*
X150801013Y-105834318D01*
X150814653Y-105724494D01*
X150838444Y-105629192D01*
X150871678Y-105553227D01*
X150913643Y-105501415D01*
X150916273Y-105499584D01*
X150949858Y-105490148D01*
X151012766Y-105484504D01*
X151105248Y-105482628D01*
X151188102Y-105483773D01*
G37*
X151679200Y-102551867D02*
X151705868Y-102553403D01*
X151726894Y-102559791D01*
X151742945Y-102574180D01*
X151754692Y-102599721D01*
X151762802Y-102639567D01*
X151767946Y-102696866D01*
X151770792Y-102774771D01*
X151772009Y-102876432D01*
X151772266Y-103005000D01*
X151772266Y-103391334D01*
X151732665Y-103422484D01*
X151723766Y-103429073D01*
X151709692Y-103436854D01*
X151690937Y-103442793D01*
X151663877Y-103447139D01*
X151624886Y-103450138D01*
X151570337Y-103452040D01*
X151496607Y-103453091D01*
X151400068Y-103453540D01*
X151277096Y-103453634D01*
X151189337Y-103453596D01*
X151085069Y-103453287D01*
X151004831Y-103452461D01*
X150945055Y-103450873D01*
X150902174Y-103448280D01*
X150872620Y-103444439D01*
X150852824Y-103439106D01*
X150839219Y-103432038D01*
X150828236Y-103422990D01*
X150822035Y-103416979D01*
X150813399Y-103406022D01*
X150806860Y-103390898D01*
X150802126Y-103367908D01*
X150798907Y-103333352D01*
X150796910Y-103283534D01*
X150795845Y-103214752D01*
X150795420Y-103123309D01*
X150795342Y-103005505D01*
X150795351Y-102979311D01*
X150795706Y-102863450D01*
X150796725Y-102773380D01*
X150798608Y-102705541D01*
X150801553Y-102656372D01*
X150805757Y-102622310D01*
X150811420Y-102599794D01*
X150818739Y-102585263D01*
X150832034Y-102571293D01*
X150873462Y-102553638D01*
X150921242Y-102555212D01*
X150963242Y-102576733D01*
X150966272Y-102579648D01*
X150974617Y-102591214D01*
X150980829Y-102608977D01*
X150985218Y-102636913D01*
X150988092Y-102678999D01*
X150989762Y-102739213D01*
X150990537Y-102821530D01*
X150990727Y-102929928D01*
X150990727Y-103258250D01*
X151201141Y-103258250D01*
X151201141Y-103041986D01*
X151201248Y-102994498D01*
X151202310Y-102920248D01*
X151204979Y-102868141D01*
X151209827Y-102832922D01*
X151217427Y-102809333D01*
X151228351Y-102792119D01*
X151232590Y-102787269D01*
X151273829Y-102762762D01*
X151322205Y-102761918D01*
X151366965Y-102785268D01*
X151367056Y-102785351D01*
X151378541Y-102798226D01*
X151386603Y-102815925D01*
X151391837Y-102843494D01*
X151394839Y-102885979D01*
X151396203Y-102948427D01*
X151396526Y-103035885D01*
X151396526Y-103259750D01*
X151482946Y-103255242D01*
X151569366Y-103250735D01*
X151573431Y-102928443D01*
X151573867Y-102895137D01*
X151575837Y-102786472D01*
X151579011Y-102703502D01*
X151584331Y-102642774D01*
X151592736Y-102600833D01*
X151605170Y-102574226D01*
X151622573Y-102559497D01*
X151645886Y-102553193D01*
X151676050Y-102551859D01*
X151679200Y-102551867D01*
G36*
X151679200Y-102551867D02*
G01*
X151705868Y-102553403D01*
X151726894Y-102559791D01*
X151742945Y-102574180D01*
X151754692Y-102599721D01*
X151762802Y-102639567D01*
X151767946Y-102696866D01*
X151770792Y-102774771D01*
X151772009Y-102876432D01*
X151772266Y-103005000D01*
X151772266Y-103391334D01*
X151732665Y-103422484D01*
X151723766Y-103429073D01*
X151709692Y-103436854D01*
X151690937Y-103442793D01*
X151663877Y-103447139D01*
X151624886Y-103450138D01*
X151570337Y-103452040D01*
X151496607Y-103453091D01*
X151400068Y-103453540D01*
X151277096Y-103453634D01*
X151189337Y-103453596D01*
X151085069Y-103453287D01*
X151004831Y-103452461D01*
X150945055Y-103450873D01*
X150902174Y-103448280D01*
X150872620Y-103444439D01*
X150852824Y-103439106D01*
X150839219Y-103432038D01*
X150828236Y-103422990D01*
X150822035Y-103416979D01*
X150813399Y-103406022D01*
X150806860Y-103390898D01*
X150802126Y-103367908D01*
X150798907Y-103333352D01*
X150796910Y-103283534D01*
X150795845Y-103214752D01*
X150795420Y-103123309D01*
X150795342Y-103005505D01*
X150795351Y-102979311D01*
X150795706Y-102863450D01*
X150796725Y-102773380D01*
X150798608Y-102705541D01*
X150801553Y-102656372D01*
X150805757Y-102622310D01*
X150811420Y-102599794D01*
X150818739Y-102585263D01*
X150832034Y-102571293D01*
X150873462Y-102553638D01*
X150921242Y-102555212D01*
X150963242Y-102576733D01*
X150966272Y-102579648D01*
X150974617Y-102591214D01*
X150980829Y-102608977D01*
X150985218Y-102636913D01*
X150988092Y-102678999D01*
X150989762Y-102739213D01*
X150990537Y-102821530D01*
X150990727Y-102929928D01*
X150990727Y-103258250D01*
X151201141Y-103258250D01*
X151201141Y-103041986D01*
X151201248Y-102994498D01*
X151202310Y-102920248D01*
X151204979Y-102868141D01*
X151209827Y-102832922D01*
X151217427Y-102809333D01*
X151228351Y-102792119D01*
X151232590Y-102787269D01*
X151273829Y-102762762D01*
X151322205Y-102761918D01*
X151366965Y-102785268D01*
X151367056Y-102785351D01*
X151378541Y-102798226D01*
X151386603Y-102815925D01*
X151391837Y-102843494D01*
X151394839Y-102885979D01*
X151396203Y-102948427D01*
X151396526Y-103035885D01*
X151396526Y-103259750D01*
X151482946Y-103255242D01*
X151569366Y-103250735D01*
X151573431Y-102928443D01*
X151573867Y-102895137D01*
X151575837Y-102786472D01*
X151579011Y-102703502D01*
X151584331Y-102642774D01*
X151592736Y-102600833D01*
X151605170Y-102574226D01*
X151622573Y-102559497D01*
X151645886Y-102553193D01*
X151676050Y-102551859D01*
X151679200Y-102551867D01*
G37*
X150924863Y-109127109D02*
X150960668Y-109149847D01*
X150966803Y-109156476D01*
X150975173Y-109169490D01*
X150981331Y-109188283D01*
X150985613Y-109216901D01*
X150988356Y-109259391D01*
X150989898Y-109319799D01*
X150990576Y-109402172D01*
X150990727Y-109510557D01*
X150990727Y-109841208D01*
X151201141Y-109841208D01*
X151201141Y-109626623D01*
X151201335Y-109578937D01*
X151203628Y-109491568D01*
X151209533Y-109428673D01*
X151220323Y-109386422D01*
X151237272Y-109360985D01*
X151261655Y-109348532D01*
X151294745Y-109345232D01*
X151321713Y-109346294D01*
X151350771Y-109353286D01*
X151371209Y-109370319D01*
X151384517Y-109401393D01*
X151392180Y-109450505D01*
X151395687Y-109521656D01*
X151396526Y-109618844D01*
X151396526Y-109842708D01*
X151569366Y-109833694D01*
X151573425Y-109503893D01*
X151574595Y-109420562D01*
X151576518Y-109329416D01*
X151579088Y-109261644D01*
X151582617Y-109213378D01*
X151587415Y-109180750D01*
X151593791Y-109159894D01*
X151602056Y-109146941D01*
X151610581Y-109138932D01*
X151652760Y-109121613D01*
X151700272Y-109126353D01*
X151741621Y-109152681D01*
X151745513Y-109157011D01*
X151753969Y-109168966D01*
X151760429Y-109185080D01*
X151765161Y-109209053D01*
X151768432Y-109244585D01*
X151770511Y-109295375D01*
X151771664Y-109365124D01*
X151772160Y-109457532D01*
X151772266Y-109576298D01*
X151772244Y-109649168D01*
X151771988Y-109751811D01*
X151771210Y-109830290D01*
X151769624Y-109888320D01*
X151766944Y-109929617D01*
X151762886Y-109957898D01*
X151757164Y-109976880D01*
X151749493Y-109990277D01*
X151739586Y-110001808D01*
X151737349Y-110004184D01*
X151727312Y-110013828D01*
X151715306Y-110021339D01*
X151697819Y-110026985D01*
X151671342Y-110031031D01*
X151632361Y-110033744D01*
X151577366Y-110035390D01*
X151502846Y-110036236D01*
X151405289Y-110036548D01*
X151281184Y-110036593D01*
X151184275Y-110036544D01*
X151080195Y-110036213D01*
X151000028Y-110035366D01*
X150940278Y-110033772D01*
X150897448Y-110031201D01*
X150868042Y-110027423D01*
X150848564Y-110022206D01*
X150835516Y-110015319D01*
X150825402Y-110006534D01*
X150821172Y-110002095D01*
X150813036Y-109990749D01*
X150806813Y-109974770D01*
X150802246Y-109950525D01*
X150799081Y-109914383D01*
X150797063Y-109862711D01*
X150795937Y-109791876D01*
X150795449Y-109698246D01*
X150795342Y-109578191D01*
X150795358Y-109522129D01*
X150795601Y-109414093D01*
X150796337Y-109330893D01*
X150797822Y-109268897D01*
X150800311Y-109224473D01*
X150804058Y-109193988D01*
X150809319Y-109173810D01*
X150816349Y-109160307D01*
X150825402Y-109149847D01*
X150854158Y-109130241D01*
X150893035Y-109119788D01*
X150924863Y-109127109D01*
G36*
X150924863Y-109127109D02*
G01*
X150960668Y-109149847D01*
X150966803Y-109156476D01*
X150975173Y-109169490D01*
X150981331Y-109188283D01*
X150985613Y-109216901D01*
X150988356Y-109259391D01*
X150989898Y-109319799D01*
X150990576Y-109402172D01*
X150990727Y-109510557D01*
X150990727Y-109841208D01*
X151201141Y-109841208D01*
X151201141Y-109626623D01*
X151201335Y-109578937D01*
X151203628Y-109491568D01*
X151209533Y-109428673D01*
X151220323Y-109386422D01*
X151237272Y-109360985D01*
X151261655Y-109348532D01*
X151294745Y-109345232D01*
X151321713Y-109346294D01*
X151350771Y-109353286D01*
X151371209Y-109370319D01*
X151384517Y-109401393D01*
X151392180Y-109450505D01*
X151395687Y-109521656D01*
X151396526Y-109618844D01*
X151396526Y-109842708D01*
X151569366Y-109833694D01*
X151573425Y-109503893D01*
X151574595Y-109420562D01*
X151576518Y-109329416D01*
X151579088Y-109261644D01*
X151582617Y-109213378D01*
X151587415Y-109180750D01*
X151593791Y-109159894D01*
X151602056Y-109146941D01*
X151610581Y-109138932D01*
X151652760Y-109121613D01*
X151700272Y-109126353D01*
X151741621Y-109152681D01*
X151745513Y-109157011D01*
X151753969Y-109168966D01*
X151760429Y-109185080D01*
X151765161Y-109209053D01*
X151768432Y-109244585D01*
X151770511Y-109295375D01*
X151771664Y-109365124D01*
X151772160Y-109457532D01*
X151772266Y-109576298D01*
X151772244Y-109649168D01*
X151771988Y-109751811D01*
X151771210Y-109830290D01*
X151769624Y-109888320D01*
X151766944Y-109929617D01*
X151762886Y-109957898D01*
X151757164Y-109976880D01*
X151749493Y-109990277D01*
X151739586Y-110001808D01*
X151737349Y-110004184D01*
X151727312Y-110013828D01*
X151715306Y-110021339D01*
X151697819Y-110026985D01*
X151671342Y-110031031D01*
X151632361Y-110033744D01*
X151577366Y-110035390D01*
X151502846Y-110036236D01*
X151405289Y-110036548D01*
X151281184Y-110036593D01*
X151184275Y-110036544D01*
X151080195Y-110036213D01*
X151000028Y-110035366D01*
X150940278Y-110033772D01*
X150897448Y-110031201D01*
X150868042Y-110027423D01*
X150848564Y-110022206D01*
X150835516Y-110015319D01*
X150825402Y-110006534D01*
X150821172Y-110002095D01*
X150813036Y-109990749D01*
X150806813Y-109974770D01*
X150802246Y-109950525D01*
X150799081Y-109914383D01*
X150797063Y-109862711D01*
X150795937Y-109791876D01*
X150795449Y-109698246D01*
X150795342Y-109578191D01*
X150795358Y-109522129D01*
X150795601Y-109414093D01*
X150796337Y-109330893D01*
X150797822Y-109268897D01*
X150800311Y-109224473D01*
X150804058Y-109193988D01*
X150809319Y-109173810D01*
X150816349Y-109160307D01*
X150825402Y-109149847D01*
X150854158Y-109130241D01*
X150893035Y-109119788D01*
X150924863Y-109127109D01*
G37*
X151705040Y-98115582D02*
X151732842Y-98135096D01*
X151759870Y-98170514D01*
X151760326Y-98171520D01*
X151769646Y-98197601D01*
X151770352Y-98220840D01*
X151759736Y-98243356D01*
X151735091Y-98267267D01*
X151693710Y-98294694D01*
X151632886Y-98327755D01*
X151549913Y-98368568D01*
X151442082Y-98419252D01*
X151400300Y-98438735D01*
X151316180Y-98478341D01*
X151243480Y-98513083D01*
X151186169Y-98541034D01*
X151148221Y-98560268D01*
X151133607Y-98568859D01*
X151134380Y-98570668D01*
X151152949Y-98583971D01*
X151192275Y-98606992D01*
X151247682Y-98637076D01*
X151314496Y-98671570D01*
X151356418Y-98692835D01*
X151430114Y-98731378D01*
X151482059Y-98761318D01*
X151515979Y-98785570D01*
X151535597Y-98807046D01*
X151544636Y-98828660D01*
X151546822Y-98853325D01*
X151546189Y-98867308D01*
X151540588Y-98888764D01*
X151526124Y-98909153D01*
X151499134Y-98931251D01*
X151455951Y-98957837D01*
X151392911Y-98991688D01*
X151306348Y-99035582D01*
X151280713Y-99048540D01*
X151218580Y-99081102D01*
X151170435Y-99108043D01*
X151140627Y-99126858D01*
X151133508Y-99135045D01*
X151137863Y-99136865D01*
X151165701Y-99149346D01*
X151214880Y-99171794D01*
X151281250Y-99202304D01*
X151360662Y-99238971D01*
X151448969Y-99279890D01*
X151525151Y-99315457D01*
X151607681Y-99354897D01*
X151668576Y-99385613D01*
X151711234Y-99409549D01*
X151739051Y-99428650D01*
X151755423Y-99444861D01*
X151763745Y-99460126D01*
X151767596Y-99472654D01*
X151767794Y-99506078D01*
X151747368Y-99542215D01*
X151746056Y-99543946D01*
X151715920Y-99573348D01*
X151686331Y-99588057D01*
X151685479Y-99588119D01*
X151661965Y-99582074D01*
X151615945Y-99564947D01*
X151551580Y-99538641D01*
X151473031Y-99505058D01*
X151384455Y-99466100D01*
X151290015Y-99423670D01*
X151193869Y-99379670D01*
X151100177Y-99336002D01*
X151013100Y-99294568D01*
X150936796Y-99257271D01*
X150875427Y-99226012D01*
X150833151Y-99202694D01*
X150814129Y-99189219D01*
X150796331Y-99143410D01*
X150804800Y-99087896D01*
X150811054Y-99080754D01*
X150840545Y-99059680D01*
X150889486Y-99030121D01*
X150953015Y-98994951D01*
X151026269Y-98957042D01*
X151238279Y-98850834D01*
X151043113Y-98753396D01*
X151017430Y-98740488D01*
X150947736Y-98704569D01*
X150888105Y-98672579D01*
X150844190Y-98647597D01*
X150821644Y-98632704D01*
X150819989Y-98631178D01*
X150799637Y-98593739D01*
X150797396Y-98547059D01*
X150814129Y-98505732D01*
X150817922Y-98502502D01*
X150845382Y-98486179D01*
X150895376Y-98459902D01*
X150964378Y-98425414D01*
X151048862Y-98384458D01*
X151145303Y-98338778D01*
X151250173Y-98290117D01*
X151308917Y-98263170D01*
X151416395Y-98214212D01*
X151501174Y-98176326D01*
X151566323Y-98148335D01*
X151614912Y-98129060D01*
X151650009Y-98117326D01*
X151674684Y-98111953D01*
X151692004Y-98111764D01*
X151705040Y-98115582D01*
G36*
X151705040Y-98115582D02*
G01*
X151732842Y-98135096D01*
X151759870Y-98170514D01*
X151760326Y-98171520D01*
X151769646Y-98197601D01*
X151770352Y-98220840D01*
X151759736Y-98243356D01*
X151735091Y-98267267D01*
X151693710Y-98294694D01*
X151632886Y-98327755D01*
X151549913Y-98368568D01*
X151442082Y-98419252D01*
X151400300Y-98438735D01*
X151316180Y-98478341D01*
X151243480Y-98513083D01*
X151186169Y-98541034D01*
X151148221Y-98560268D01*
X151133607Y-98568859D01*
X151134380Y-98570668D01*
X151152949Y-98583971D01*
X151192275Y-98606992D01*
X151247682Y-98637076D01*
X151314496Y-98671570D01*
X151356418Y-98692835D01*
X151430114Y-98731378D01*
X151482059Y-98761318D01*
X151515979Y-98785570D01*
X151535597Y-98807046D01*
X151544636Y-98828660D01*
X151546822Y-98853325D01*
X151546189Y-98867308D01*
X151540588Y-98888764D01*
X151526124Y-98909153D01*
X151499134Y-98931251D01*
X151455951Y-98957837D01*
X151392911Y-98991688D01*
X151306348Y-99035582D01*
X151280713Y-99048540D01*
X151218580Y-99081102D01*
X151170435Y-99108043D01*
X151140627Y-99126858D01*
X151133508Y-99135045D01*
X151137863Y-99136865D01*
X151165701Y-99149346D01*
X151214880Y-99171794D01*
X151281250Y-99202304D01*
X151360662Y-99238971D01*
X151448969Y-99279890D01*
X151525151Y-99315457D01*
X151607681Y-99354897D01*
X151668576Y-99385613D01*
X151711234Y-99409549D01*
X151739051Y-99428650D01*
X151755423Y-99444861D01*
X151763745Y-99460126D01*
X151767596Y-99472654D01*
X151767794Y-99506078D01*
X151747368Y-99542215D01*
X151746056Y-99543946D01*
X151715920Y-99573348D01*
X151686331Y-99588057D01*
X151685479Y-99588119D01*
X151661965Y-99582074D01*
X151615945Y-99564947D01*
X151551580Y-99538641D01*
X151473031Y-99505058D01*
X151384455Y-99466100D01*
X151290015Y-99423670D01*
X151193869Y-99379670D01*
X151100177Y-99336002D01*
X151013100Y-99294568D01*
X150936796Y-99257271D01*
X150875427Y-99226012D01*
X150833151Y-99202694D01*
X150814129Y-99189219D01*
X150796331Y-99143410D01*
X150804800Y-99087896D01*
X150811054Y-99080754D01*
X150840545Y-99059680D01*
X150889486Y-99030121D01*
X150953015Y-98994951D01*
X151026269Y-98957042D01*
X151238279Y-98850834D01*
X151043113Y-98753396D01*
X151017430Y-98740488D01*
X150947736Y-98704569D01*
X150888105Y-98672579D01*
X150844190Y-98647597D01*
X150821644Y-98632704D01*
X150819989Y-98631178D01*
X150799637Y-98593739D01*
X150797396Y-98547059D01*
X150814129Y-98505732D01*
X150817922Y-98502502D01*
X150845382Y-98486179D01*
X150895376Y-98459902D01*
X150964378Y-98425414D01*
X151048862Y-98384458D01*
X151145303Y-98338778D01*
X151250173Y-98290117D01*
X151308917Y-98263170D01*
X151416395Y-98214212D01*
X151501174Y-98176326D01*
X151566323Y-98148335D01*
X151614912Y-98129060D01*
X151650009Y-98117326D01*
X151674684Y-98111953D01*
X151692004Y-98111764D01*
X151705040Y-98115582D01*
G37*
X151097319Y-107692165D02*
X151140830Y-107697321D01*
X151176145Y-107713810D01*
X151217216Y-107747313D01*
X151246692Y-107775554D01*
X151276709Y-107810697D01*
X151301163Y-107850261D01*
X151321474Y-107898495D01*
X151339064Y-107959648D01*
X151355353Y-108037967D01*
X151371763Y-108137702D01*
X151389714Y-108263102D01*
X151399046Y-108323428D01*
X151418430Y-108413900D01*
X151440396Y-108479317D01*
X151464225Y-108518682D01*
X151489194Y-108530998D01*
X151514583Y-108515266D01*
X151539671Y-108470490D01*
X151541287Y-108466435D01*
X151557367Y-108404714D01*
X151568285Y-108321304D01*
X151573824Y-108223537D01*
X151573767Y-108118746D01*
X151567898Y-108014263D01*
X151556001Y-107917421D01*
X151555137Y-107912193D01*
X151544876Y-107847201D01*
X151540068Y-107804262D01*
X151540863Y-107776307D01*
X151547415Y-107756265D01*
X151559875Y-107737066D01*
X151561034Y-107735509D01*
X151601472Y-107702868D01*
X151648737Y-107696486D01*
X151694777Y-107717531D01*
X151700710Y-107723583D01*
X151720866Y-107763010D01*
X151738338Y-107825560D01*
X151752717Y-107905846D01*
X151763592Y-107998485D01*
X151770555Y-108098090D01*
X151773197Y-108199278D01*
X151771108Y-108296663D01*
X151763879Y-108384861D01*
X151751100Y-108458486D01*
X151731315Y-108526229D01*
X151687204Y-108621172D01*
X151630378Y-108689280D01*
X151561061Y-108730317D01*
X151479477Y-108744049D01*
X151437874Y-108742801D01*
X151404860Y-108735089D01*
X151376010Y-108715375D01*
X151339596Y-108678134D01*
X151329839Y-108667512D01*
X151302010Y-108635946D01*
X151279416Y-108606132D01*
X151260839Y-108574134D01*
X151245061Y-108536020D01*
X151230864Y-108487856D01*
X151217029Y-108425708D01*
X151202338Y-108345642D01*
X151185573Y-108243724D01*
X151165515Y-108116022D01*
X151161476Y-108091573D01*
X151143342Y-108008590D01*
X151122395Y-107948389D01*
X151099667Y-107913395D01*
X151076189Y-107906034D01*
X151070504Y-107909523D01*
X151050447Y-107933398D01*
X151028301Y-107970843D01*
X151020325Y-107987884D01*
X151010749Y-108016240D01*
X151004389Y-108051369D01*
X151000636Y-108099091D01*
X150998882Y-108165224D01*
X150998518Y-108255587D01*
X150998615Y-108279265D01*
X151000094Y-108369293D01*
X151003057Y-108455750D01*
X151007139Y-108529807D01*
X151011978Y-108582637D01*
X151017394Y-108629915D01*
X151018436Y-108668860D01*
X151012313Y-108694024D01*
X150998100Y-108714146D01*
X150993317Y-108719014D01*
X150951014Y-108740771D01*
X150903546Y-108739013D01*
X150862781Y-108713775D01*
X150847330Y-108686654D01*
X150830428Y-108638747D01*
X150817048Y-108582266D01*
X150816251Y-108577672D01*
X150809306Y-108520864D01*
X150803483Y-108444461D01*
X150799372Y-108357900D01*
X150797563Y-108270617D01*
X150797507Y-108249005D01*
X150800806Y-108118116D01*
X150811465Y-108011538D01*
X150830812Y-107924760D01*
X150860174Y-107853272D01*
X150900878Y-107792561D01*
X150954252Y-107738117D01*
X150989169Y-107711329D01*
X151028507Y-107695850D01*
X151081384Y-107691978D01*
X151097319Y-107692165D01*
G36*
X151097319Y-107692165D02*
G01*
X151140830Y-107697321D01*
X151176145Y-107713810D01*
X151217216Y-107747313D01*
X151246692Y-107775554D01*
X151276709Y-107810697D01*
X151301163Y-107850261D01*
X151321474Y-107898495D01*
X151339064Y-107959648D01*
X151355353Y-108037967D01*
X151371763Y-108137702D01*
X151389714Y-108263102D01*
X151399046Y-108323428D01*
X151418430Y-108413900D01*
X151440396Y-108479317D01*
X151464225Y-108518682D01*
X151489194Y-108530998D01*
X151514583Y-108515266D01*
X151539671Y-108470490D01*
X151541287Y-108466435D01*
X151557367Y-108404714D01*
X151568285Y-108321304D01*
X151573824Y-108223537D01*
X151573767Y-108118746D01*
X151567898Y-108014263D01*
X151556001Y-107917421D01*
X151555137Y-107912193D01*
X151544876Y-107847201D01*
X151540068Y-107804262D01*
X151540863Y-107776307D01*
X151547415Y-107756265D01*
X151559875Y-107737066D01*
X151561034Y-107735509D01*
X151601472Y-107702868D01*
X151648737Y-107696486D01*
X151694777Y-107717531D01*
X151700710Y-107723583D01*
X151720866Y-107763010D01*
X151738338Y-107825560D01*
X151752717Y-107905846D01*
X151763592Y-107998485D01*
X151770555Y-108098090D01*
X151773197Y-108199278D01*
X151771108Y-108296663D01*
X151763879Y-108384861D01*
X151751100Y-108458486D01*
X151731315Y-108526229D01*
X151687204Y-108621172D01*
X151630378Y-108689280D01*
X151561061Y-108730317D01*
X151479477Y-108744049D01*
X151437874Y-108742801D01*
X151404860Y-108735089D01*
X151376010Y-108715375D01*
X151339596Y-108678134D01*
X151329839Y-108667512D01*
X151302010Y-108635946D01*
X151279416Y-108606132D01*
X151260839Y-108574134D01*
X151245061Y-108536020D01*
X151230864Y-108487856D01*
X151217029Y-108425708D01*
X151202338Y-108345642D01*
X151185573Y-108243724D01*
X151165515Y-108116022D01*
X151161476Y-108091573D01*
X151143342Y-108008590D01*
X151122395Y-107948389D01*
X151099667Y-107913395D01*
X151076189Y-107906034D01*
X151070504Y-107909523D01*
X151050447Y-107933398D01*
X151028301Y-107970843D01*
X151020325Y-107987884D01*
X151010749Y-108016240D01*
X151004389Y-108051369D01*
X151000636Y-108099091D01*
X150998882Y-108165224D01*
X150998518Y-108255587D01*
X150998615Y-108279265D01*
X151000094Y-108369293D01*
X151003057Y-108455750D01*
X151007139Y-108529807D01*
X151011978Y-108582637D01*
X151017394Y-108629915D01*
X151018436Y-108668860D01*
X151012313Y-108694024D01*
X150998100Y-108714146D01*
X150993317Y-108719014D01*
X150951014Y-108740771D01*
X150903546Y-108739013D01*
X150862781Y-108713775D01*
X150847330Y-108686654D01*
X150830428Y-108638747D01*
X150817048Y-108582266D01*
X150816251Y-108577672D01*
X150809306Y-108520864D01*
X150803483Y-108444461D01*
X150799372Y-108357900D01*
X150797563Y-108270617D01*
X150797507Y-108249005D01*
X150800806Y-108118116D01*
X150811465Y-108011538D01*
X150830812Y-107924760D01*
X150860174Y-107853272D01*
X150900878Y-107792561D01*
X150954252Y-107738117D01*
X150989169Y-107711329D01*
X151028507Y-107695850D01*
X151081384Y-107691978D01*
X151097319Y-107692165D01*
G37*
X154137445Y-101595776D02*
X154201635Y-101634867D01*
X154316866Y-101705098D01*
X154419882Y-101767959D01*
X154506928Y-101821152D01*
X154574244Y-101862381D01*
X154618075Y-101889348D01*
X154634661Y-101899755D01*
X154634166Y-101902650D01*
X154617934Y-101925968D01*
X154584247Y-101966934D01*
X154538331Y-102019075D01*
X154458998Y-102111935D01*
X154341686Y-102277710D01*
X154259905Y-102438551D01*
X154219065Y-102554779D01*
X154177328Y-102751370D01*
X154169930Y-102944526D01*
X154196367Y-103131447D01*
X154256136Y-103309331D01*
X154348733Y-103475378D01*
X154473654Y-103626785D01*
X154565662Y-103711034D01*
X154735845Y-103829722D01*
X154933334Y-103927112D01*
X155159140Y-104003667D01*
X155414275Y-104059855D01*
X155430114Y-104062404D01*
X155532773Y-104074181D01*
X155660325Y-104082948D01*
X155804054Y-104088634D01*
X155955245Y-104091169D01*
X156105183Y-104090481D01*
X156245152Y-104086500D01*
X156366435Y-104079154D01*
X156460319Y-104068373D01*
X156672984Y-104027048D01*
X156921406Y-103957513D01*
X157138895Y-103870063D01*
X157325283Y-103764813D01*
X157480403Y-103641880D01*
X157604086Y-103501383D01*
X157696164Y-103343436D01*
X157756467Y-103168158D01*
X157763952Y-103129269D01*
X157773725Y-103031814D01*
X157776915Y-102917921D01*
X157773697Y-102800352D01*
X157764247Y-102691865D01*
X157748740Y-102605220D01*
X157699363Y-102460880D01*
X157609220Y-102293376D01*
X157490592Y-102144228D01*
X157465603Y-102117904D01*
X157421391Y-102070205D01*
X157391634Y-102036493D01*
X157381735Y-102022797D01*
X157386469Y-102019425D01*
X157416363Y-101998671D01*
X157470643Y-101961176D01*
X157545714Y-101909418D01*
X157637982Y-101845876D01*
X157743853Y-101773025D01*
X157859732Y-101693345D01*
X158333859Y-101367434D01*
X158355672Y-101440240D01*
X158358144Y-101447838D01*
X158377778Y-101497293D01*
X158409437Y-101568595D01*
X158449314Y-101653376D01*
X158493600Y-101743268D01*
X158513180Y-101782440D01*
X158614267Y-101999952D01*
X158692438Y-102200431D01*
X158749691Y-102391586D01*
X158788027Y-102581129D01*
X158809445Y-102776770D01*
X158815945Y-102986220D01*
X158812645Y-103131982D01*
X158790263Y-103375786D01*
X158745125Y-103602280D01*
X158675331Y-103819890D01*
X158578980Y-104037039D01*
X158455961Y-104251993D01*
X158288254Y-104482682D01*
X158094353Y-104696607D01*
X157879058Y-104889059D01*
X157647169Y-105055328D01*
X157403486Y-105190701D01*
X157377418Y-105202989D01*
X157125795Y-105305898D01*
X156864331Y-105384094D01*
X156588030Y-105438587D01*
X156291897Y-105470389D01*
X155970937Y-105480508D01*
X155639148Y-105468204D01*
X155312400Y-105429149D01*
X155006527Y-105362738D01*
X154719359Y-105268375D01*
X154448727Y-105145468D01*
X154192462Y-104993421D01*
X153996676Y-104850598D01*
X153776387Y-104653391D01*
X153587702Y-104438444D01*
X153430683Y-104205851D01*
X153305391Y-103955706D01*
X153211890Y-103688105D01*
X153150239Y-103403140D01*
X153149759Y-103399888D01*
X153144944Y-103345010D01*
X153141372Y-103262197D01*
X153139211Y-103159106D01*
X153138626Y-103043394D01*
X153139785Y-102922720D01*
X153141484Y-102838145D01*
X153145418Y-102712660D01*
X153151050Y-102612106D01*
X153158982Y-102529231D01*
X153169813Y-102456782D01*
X153184146Y-102387505D01*
X153202669Y-102309564D01*
X153223762Y-102228247D01*
X153245889Y-102154704D01*
X153271643Y-102082260D01*
X153303616Y-102004241D01*
X153344398Y-101913973D01*
X153396583Y-101804779D01*
X153462761Y-101669987D01*
X153646999Y-101297184D01*
X154137445Y-101595776D01*
G36*
X154137445Y-101595776D02*
G01*
X154201635Y-101634867D01*
X154316866Y-101705098D01*
X154419882Y-101767959D01*
X154506928Y-101821152D01*
X154574244Y-101862381D01*
X154618075Y-101889348D01*
X154634661Y-101899755D01*
X154634166Y-101902650D01*
X154617934Y-101925968D01*
X154584247Y-101966934D01*
X154538331Y-102019075D01*
X154458998Y-102111935D01*
X154341686Y-102277710D01*
X154259905Y-102438551D01*
X154219065Y-102554779D01*
X154177328Y-102751370D01*
X154169930Y-102944526D01*
X154196367Y-103131447D01*
X154256136Y-103309331D01*
X154348733Y-103475378D01*
X154473654Y-103626785D01*
X154565662Y-103711034D01*
X154735845Y-103829722D01*
X154933334Y-103927112D01*
X155159140Y-104003667D01*
X155414275Y-104059855D01*
X155430114Y-104062404D01*
X155532773Y-104074181D01*
X155660325Y-104082948D01*
X155804054Y-104088634D01*
X155955245Y-104091169D01*
X156105183Y-104090481D01*
X156245152Y-104086500D01*
X156366435Y-104079154D01*
X156460319Y-104068373D01*
X156672984Y-104027048D01*
X156921406Y-103957513D01*
X157138895Y-103870063D01*
X157325283Y-103764813D01*
X157480403Y-103641880D01*
X157604086Y-103501383D01*
X157696164Y-103343436D01*
X157756467Y-103168158D01*
X157763952Y-103129269D01*
X157773725Y-103031814D01*
X157776915Y-102917921D01*
X157773697Y-102800352D01*
X157764247Y-102691865D01*
X157748740Y-102605220D01*
X157699363Y-102460880D01*
X157609220Y-102293376D01*
X157490592Y-102144228D01*
X157465603Y-102117904D01*
X157421391Y-102070205D01*
X157391634Y-102036493D01*
X157381735Y-102022797D01*
X157386469Y-102019425D01*
X157416363Y-101998671D01*
X157470643Y-101961176D01*
X157545714Y-101909418D01*
X157637982Y-101845876D01*
X157743853Y-101773025D01*
X157859732Y-101693345D01*
X158333859Y-101367434D01*
X158355672Y-101440240D01*
X158358144Y-101447838D01*
X158377778Y-101497293D01*
X158409437Y-101568595D01*
X158449314Y-101653376D01*
X158493600Y-101743268D01*
X158513180Y-101782440D01*
X158614267Y-101999952D01*
X158692438Y-102200431D01*
X158749691Y-102391586D01*
X158788027Y-102581129D01*
X158809445Y-102776770D01*
X158815945Y-102986220D01*
X158812645Y-103131982D01*
X158790263Y-103375786D01*
X158745125Y-103602280D01*
X158675331Y-103819890D01*
X158578980Y-104037039D01*
X158455961Y-104251993D01*
X158288254Y-104482682D01*
X158094353Y-104696607D01*
X157879058Y-104889059D01*
X157647169Y-105055328D01*
X157403486Y-105190701D01*
X157377418Y-105202989D01*
X157125795Y-105305898D01*
X156864331Y-105384094D01*
X156588030Y-105438587D01*
X156291897Y-105470389D01*
X155970937Y-105480508D01*
X155639148Y-105468204D01*
X155312400Y-105429149D01*
X155006527Y-105362738D01*
X154719359Y-105268375D01*
X154448727Y-105145468D01*
X154192462Y-104993421D01*
X153996676Y-104850598D01*
X153776387Y-104653391D01*
X153587702Y-104438444D01*
X153430683Y-104205851D01*
X153305391Y-103955706D01*
X153211890Y-103688105D01*
X153150239Y-103403140D01*
X153149759Y-103399888D01*
X153144944Y-103345010D01*
X153141372Y-103262197D01*
X153139211Y-103159106D01*
X153138626Y-103043394D01*
X153139785Y-102922720D01*
X153141484Y-102838145D01*
X153145418Y-102712660D01*
X153151050Y-102612106D01*
X153158982Y-102529231D01*
X153169813Y-102456782D01*
X153184146Y-102387505D01*
X153202669Y-102309564D01*
X153223762Y-102228247D01*
X153245889Y-102154704D01*
X153271643Y-102082260D01*
X153303616Y-102004241D01*
X153344398Y-101913973D01*
X153396583Y-101804779D01*
X153462761Y-101669987D01*
X153646999Y-101297184D01*
X154137445Y-101595776D01*
G37*
X153285283Y-93262587D02*
X153290133Y-93265453D01*
X153312904Y-93279433D01*
X153333189Y-93292117D01*
X153352751Y-93303571D01*
X153373352Y-93313863D01*
X153396756Y-93323063D01*
X153424723Y-93331238D01*
X153459016Y-93338457D01*
X153501398Y-93344788D01*
X153553630Y-93350299D01*
X153617476Y-93355058D01*
X153694697Y-93359133D01*
X153787056Y-93362594D01*
X153896315Y-93365507D01*
X154024236Y-93367942D01*
X154172582Y-93369966D01*
X154343114Y-93371649D01*
X154537595Y-93373057D01*
X154757788Y-93374260D01*
X155005455Y-93375325D01*
X155282358Y-93376321D01*
X155590259Y-93377316D01*
X155930920Y-93378379D01*
X156306104Y-93379577D01*
X159072890Y-93388648D01*
X159077634Y-94109827D01*
X159077953Y-94162272D01*
X159078587Y-94316577D01*
X159078715Y-94457712D01*
X159078365Y-94581825D01*
X159077564Y-94685063D01*
X159076336Y-94763574D01*
X159074709Y-94813505D01*
X159072709Y-94831005D01*
X159066371Y-94828766D01*
X159036320Y-94812065D01*
X158992619Y-94784403D01*
X158988441Y-94781643D01*
X158954699Y-94760196D01*
X158921870Y-94742213D01*
X158886571Y-94727390D01*
X158845421Y-94715422D01*
X158795038Y-94706004D01*
X158732042Y-94698831D01*
X158653049Y-94693598D01*
X158554679Y-94690000D01*
X158433550Y-94687732D01*
X158286280Y-94686490D01*
X158109488Y-94685969D01*
X157899792Y-94685862D01*
X157736073Y-94686053D01*
X157575337Y-94686635D01*
X157429593Y-94687567D01*
X157302390Y-94688807D01*
X157197276Y-94690312D01*
X157117801Y-94692041D01*
X157067513Y-94693950D01*
X157049962Y-94695998D01*
X157052686Y-94702603D01*
X157071869Y-94731638D01*
X157103373Y-94773105D01*
X157145740Y-94833220D01*
X157208165Y-94946169D01*
X157263848Y-95075264D01*
X157307151Y-95208457D01*
X157329232Y-95320363D01*
X157343308Y-95459735D01*
X157348184Y-95610574D01*
X157343856Y-95761241D01*
X157330317Y-95900094D01*
X157307561Y-96015493D01*
X157269229Y-96132995D01*
X157176305Y-96329017D01*
X157052768Y-96510519D01*
X156901464Y-96674152D01*
X156725236Y-96816567D01*
X156526930Y-96934418D01*
X156466120Y-96963676D01*
X156261006Y-97045666D01*
X156038391Y-97109767D01*
X155794351Y-97156790D01*
X155524963Y-97187543D01*
X155226302Y-97202838D01*
X155169236Y-97203548D01*
X155032139Y-97205253D01*
X154864243Y-97201403D01*
X154716174Y-97190395D01*
X154579878Y-97171377D01*
X154447301Y-97143497D01*
X154310390Y-97105902D01*
X154146740Y-97048891D01*
X153925819Y-96944184D01*
X153727942Y-96815746D01*
X153554979Y-96665541D01*
X153408800Y-96495535D01*
X153291275Y-96307693D01*
X153204274Y-96103980D01*
X153149667Y-95886360D01*
X153149229Y-95883741D01*
X153133926Y-95724701D01*
X153135969Y-95549957D01*
X153154097Y-95371968D01*
X153164997Y-95316144D01*
X154131454Y-95316144D01*
X154132010Y-95379128D01*
X154138301Y-95426014D01*
X154152050Y-95468068D01*
X154174984Y-95516557D01*
X154236417Y-95609743D01*
X154323318Y-95690472D01*
X154435307Y-95755093D01*
X154574137Y-95804221D01*
X154741565Y-95838469D01*
X154939347Y-95858454D01*
X155169236Y-95864789D01*
X155221501Y-95864481D01*
X155463661Y-95855373D01*
X155674374Y-95833257D01*
X155855862Y-95797595D01*
X156010349Y-95747849D01*
X156140057Y-95683481D01*
X156247210Y-95603953D01*
X156279913Y-95570960D01*
X156348044Y-95468708D01*
X156389503Y-95348674D01*
X156404054Y-95216058D01*
X156391462Y-95076061D01*
X156351491Y-94933881D01*
X156283905Y-94794720D01*
X156224092Y-94694934D01*
X154338120Y-94694934D01*
X154278619Y-94785648D01*
X154257185Y-94820534D01*
X154214365Y-94900413D01*
X154180266Y-94976148D01*
X154168721Y-95009316D01*
X154145672Y-95114853D01*
X154133903Y-95248291D01*
X154131454Y-95316144D01*
X153164997Y-95316144D01*
X153187052Y-95203194D01*
X153233575Y-95056096D01*
X153261885Y-94993309D01*
X153304915Y-94911535D01*
X153354130Y-94827507D01*
X153404113Y-94749993D01*
X153449447Y-94687760D01*
X153484716Y-94649577D01*
X153494399Y-94640811D01*
X153497784Y-94630362D01*
X153480980Y-94623377D01*
X153438631Y-94618230D01*
X153365381Y-94613291D01*
X153212747Y-94604220D01*
X153203243Y-93214508D01*
X153285283Y-93262587D01*
G36*
X153285283Y-93262587D02*
G01*
X153290133Y-93265453D01*
X153312904Y-93279433D01*
X153333189Y-93292117D01*
X153352751Y-93303571D01*
X153373352Y-93313863D01*
X153396756Y-93323063D01*
X153424723Y-93331238D01*
X153459016Y-93338457D01*
X153501398Y-93344788D01*
X153553630Y-93350299D01*
X153617476Y-93355058D01*
X153694697Y-93359133D01*
X153787056Y-93362594D01*
X153896315Y-93365507D01*
X154024236Y-93367942D01*
X154172582Y-93369966D01*
X154343114Y-93371649D01*
X154537595Y-93373057D01*
X154757788Y-93374260D01*
X155005455Y-93375325D01*
X155282358Y-93376321D01*
X155590259Y-93377316D01*
X155930920Y-93378379D01*
X156306104Y-93379577D01*
X159072890Y-93388648D01*
X159077634Y-94109827D01*
X159077953Y-94162272D01*
X159078587Y-94316577D01*
X159078715Y-94457712D01*
X159078365Y-94581825D01*
X159077564Y-94685063D01*
X159076336Y-94763574D01*
X159074709Y-94813505D01*
X159072709Y-94831005D01*
X159066371Y-94828766D01*
X159036320Y-94812065D01*
X158992619Y-94784403D01*
X158988441Y-94781643D01*
X158954699Y-94760196D01*
X158921870Y-94742213D01*
X158886571Y-94727390D01*
X158845421Y-94715422D01*
X158795038Y-94706004D01*
X158732042Y-94698831D01*
X158653049Y-94693598D01*
X158554679Y-94690000D01*
X158433550Y-94687732D01*
X158286280Y-94686490D01*
X158109488Y-94685969D01*
X157899792Y-94685862D01*
X157736073Y-94686053D01*
X157575337Y-94686635D01*
X157429593Y-94687567D01*
X157302390Y-94688807D01*
X157197276Y-94690312D01*
X157117801Y-94692041D01*
X157067513Y-94693950D01*
X157049962Y-94695998D01*
X157052686Y-94702603D01*
X157071869Y-94731638D01*
X157103373Y-94773105D01*
X157145740Y-94833220D01*
X157208165Y-94946169D01*
X157263848Y-95075264D01*
X157307151Y-95208457D01*
X157329232Y-95320363D01*
X157343308Y-95459735D01*
X157348184Y-95610574D01*
X157343856Y-95761241D01*
X157330317Y-95900094D01*
X157307561Y-96015493D01*
X157269229Y-96132995D01*
X157176305Y-96329017D01*
X157052768Y-96510519D01*
X156901464Y-96674152D01*
X156725236Y-96816567D01*
X156526930Y-96934418D01*
X156466120Y-96963676D01*
X156261006Y-97045666D01*
X156038391Y-97109767D01*
X155794351Y-97156790D01*
X155524963Y-97187543D01*
X155226302Y-97202838D01*
X155169236Y-97203548D01*
X155032139Y-97205253D01*
X154864243Y-97201403D01*
X154716174Y-97190395D01*
X154579878Y-97171377D01*
X154447301Y-97143497D01*
X154310390Y-97105902D01*
X154146740Y-97048891D01*
X153925819Y-96944184D01*
X153727942Y-96815746D01*
X153554979Y-96665541D01*
X153408800Y-96495535D01*
X153291275Y-96307693D01*
X153204274Y-96103980D01*
X153149667Y-95886360D01*
X153149229Y-95883741D01*
X153133926Y-95724701D01*
X153135969Y-95549957D01*
X153154097Y-95371968D01*
X153164997Y-95316144D01*
X154131454Y-95316144D01*
X154132010Y-95379128D01*
X154138301Y-95426014D01*
X154152050Y-95468068D01*
X154174984Y-95516557D01*
X154236417Y-95609743D01*
X154323318Y-95690472D01*
X154435307Y-95755093D01*
X154574137Y-95804221D01*
X154741565Y-95838469D01*
X154939347Y-95858454D01*
X155169236Y-95864789D01*
X155221501Y-95864481D01*
X155463661Y-95855373D01*
X155674374Y-95833257D01*
X155855862Y-95797595D01*
X156010349Y-95747849D01*
X156140057Y-95683481D01*
X156247210Y-95603953D01*
X156279913Y-95570960D01*
X156348044Y-95468708D01*
X156389503Y-95348674D01*
X156404054Y-95216058D01*
X156391462Y-95076061D01*
X156351491Y-94933881D01*
X156283905Y-94794720D01*
X156224092Y-94694934D01*
X154338120Y-94694934D01*
X154278619Y-94785648D01*
X154257185Y-94820534D01*
X154214365Y-94900413D01*
X154180266Y-94976148D01*
X154168721Y-95009316D01*
X154145672Y-95114853D01*
X154133903Y-95248291D01*
X154131454Y-95316144D01*
X153164997Y-95316144D01*
X153187052Y-95203194D01*
X153233575Y-95056096D01*
X153261885Y-94993309D01*
X153304915Y-94911535D01*
X153354130Y-94827507D01*
X153404113Y-94749993D01*
X153449447Y-94687760D01*
X153484716Y-94649577D01*
X153494399Y-94640811D01*
X153497784Y-94630362D01*
X153480980Y-94623377D01*
X153438631Y-94618230D01*
X153365381Y-94613291D01*
X153212747Y-94604220D01*
X153203243Y-93214508D01*
X153285283Y-93262587D01*
G37*
X153213783Y-97534698D02*
X153238299Y-97546136D01*
X153284359Y-97570110D01*
X153343658Y-97602327D01*
X153466747Y-97670363D01*
X154745819Y-97680862D01*
X154932115Y-97682423D01*
X155169711Y-97684606D01*
X155375978Y-97686898D01*
X155553834Y-97689483D01*
X155706195Y-97692548D01*
X155835980Y-97696276D01*
X155946104Y-97700853D01*
X156039486Y-97706464D01*
X156119041Y-97713295D01*
X156187688Y-97721531D01*
X156248343Y-97731356D01*
X156303924Y-97742956D01*
X156357347Y-97756516D01*
X156411530Y-97772221D01*
X156469390Y-97790257D01*
X156650778Y-97861309D01*
X156818418Y-97958612D01*
X156961944Y-98079789D01*
X157082106Y-98225951D01*
X157179656Y-98398205D01*
X157255345Y-98597663D01*
X157309923Y-98825433D01*
X157344141Y-99082625D01*
X157350946Y-99172516D01*
X157355921Y-99323908D01*
X157351441Y-99473962D01*
X157336749Y-99629702D01*
X157311092Y-99798153D01*
X157273714Y-99986341D01*
X157223858Y-100201291D01*
X157211795Y-100250976D01*
X157182111Y-100375749D01*
X157154778Y-100494009D01*
X157131413Y-100598584D01*
X157113629Y-100682302D01*
X157103040Y-100737993D01*
X157081936Y-100866481D01*
X156644127Y-100685843D01*
X156534817Y-100640660D01*
X156427707Y-100596209D01*
X156336258Y-100558071D01*
X156264943Y-100528117D01*
X156218239Y-100508219D01*
X156200618Y-100500251D01*
X156200366Y-100498998D01*
X156208233Y-100475906D01*
X156228393Y-100430501D01*
X156257259Y-100370972D01*
X156313473Y-100247244D01*
X156374936Y-100076985D01*
X156422006Y-99902726D01*
X156453499Y-99731281D01*
X156468233Y-99569465D01*
X156465026Y-99424092D01*
X156442697Y-99301977D01*
X156407267Y-99216749D01*
X156334659Y-99119957D01*
X156236158Y-99045445D01*
X156114793Y-98995347D01*
X155973596Y-98971797D01*
X155843461Y-98963503D01*
X155842276Y-99396433D01*
X155841052Y-99542433D01*
X155836704Y-99703919D01*
X155828498Y-99841873D01*
X155815637Y-99963429D01*
X155797322Y-100075725D01*
X155772757Y-100185895D01*
X155741143Y-100301077D01*
X155680967Y-100473416D01*
X155581870Y-100676123D01*
X155460486Y-100854024D01*
X155318521Y-101005365D01*
X155157683Y-101128391D01*
X154979679Y-101221347D01*
X154786216Y-101282478D01*
X154734111Y-101292052D01*
X154605143Y-101304325D01*
X154482525Y-101305870D01*
X154461239Y-101306138D01*
X154314954Y-101297990D01*
X154178843Y-101280380D01*
X154065462Y-101253807D01*
X153948809Y-101211407D01*
X153756566Y-101113124D01*
X153587429Y-100987498D01*
X153442550Y-100835829D01*
X153323082Y-100659419D01*
X153230177Y-100459568D01*
X153164987Y-100237577D01*
X153150284Y-100147055D01*
X153140065Y-100017700D01*
X153137767Y-99876823D01*
X153143204Y-99736198D01*
X153156191Y-99607597D01*
X153173065Y-99520703D01*
X154043982Y-99520703D01*
X154045499Y-99645380D01*
X154066102Y-99763775D01*
X154108665Y-99862597D01*
X154175105Y-99948096D01*
X154199681Y-99972148D01*
X154283491Y-100034770D01*
X154373826Y-100068652D01*
X154482525Y-100078827D01*
X154539951Y-100076070D01*
X154658169Y-100048809D01*
X154759637Y-99991538D01*
X154845497Y-99903216D01*
X154916892Y-99782799D01*
X154974962Y-99629245D01*
X154990201Y-99567341D01*
X155000635Y-99492399D01*
X155006430Y-99398085D01*
X155008378Y-99276005D01*
X155008377Y-99256174D01*
X155007262Y-99164844D01*
X155004568Y-99086392D01*
X155000647Y-99028619D01*
X154995852Y-98999327D01*
X154994296Y-98995956D01*
X154984522Y-98985058D01*
X154964882Y-98977340D01*
X154930091Y-98972267D01*
X154874867Y-98969305D01*
X154793926Y-98967920D01*
X154681987Y-98967577D01*
X154585973Y-98968083D01*
X154485089Y-98970535D01*
X154412169Y-98975338D01*
X154362464Y-98982843D01*
X154331227Y-98993398D01*
X154308921Y-99006976D01*
X154248115Y-99058110D01*
X154184813Y-99126623D01*
X154128411Y-99201716D01*
X154088306Y-99272588D01*
X154073591Y-99311909D01*
X154053999Y-99402450D01*
X154043982Y-99520703D01*
X153173065Y-99520703D01*
X153176543Y-99502791D01*
X153192567Y-99450127D01*
X153239457Y-99330517D01*
X153298988Y-99208931D01*
X153364705Y-99097913D01*
X153430152Y-99010007D01*
X153431097Y-99008926D01*
X153471940Y-98960755D01*
X153501023Y-98923693D01*
X153512104Y-98905685D01*
X153509459Y-98903716D01*
X153480882Y-98899261D01*
X153427582Y-98896166D01*
X153357890Y-98895005D01*
X153203676Y-98895005D01*
X153203676Y-98214648D01*
X153203679Y-98196537D01*
X153203945Y-98044638D01*
X153204606Y-97905226D01*
X153205614Y-97782266D01*
X153206918Y-97679727D01*
X153208471Y-97601574D01*
X153210222Y-97551773D01*
X153212123Y-97534291D01*
X153213783Y-97534698D01*
G36*
X153213783Y-97534698D02*
G01*
X153238299Y-97546136D01*
X153284359Y-97570110D01*
X153343658Y-97602327D01*
X153466747Y-97670363D01*
X154745819Y-97680862D01*
X154932115Y-97682423D01*
X155169711Y-97684606D01*
X155375978Y-97686898D01*
X155553834Y-97689483D01*
X155706195Y-97692548D01*
X155835980Y-97696276D01*
X155946104Y-97700853D01*
X156039486Y-97706464D01*
X156119041Y-97713295D01*
X156187688Y-97721531D01*
X156248343Y-97731356D01*
X156303924Y-97742956D01*
X156357347Y-97756516D01*
X156411530Y-97772221D01*
X156469390Y-97790257D01*
X156650778Y-97861309D01*
X156818418Y-97958612D01*
X156961944Y-98079789D01*
X157082106Y-98225951D01*
X157179656Y-98398205D01*
X157255345Y-98597663D01*
X157309923Y-98825433D01*
X157344141Y-99082625D01*
X157350946Y-99172516D01*
X157355921Y-99323908D01*
X157351441Y-99473962D01*
X157336749Y-99629702D01*
X157311092Y-99798153D01*
X157273714Y-99986341D01*
X157223858Y-100201291D01*
X157211795Y-100250976D01*
X157182111Y-100375749D01*
X157154778Y-100494009D01*
X157131413Y-100598584D01*
X157113629Y-100682302D01*
X157103040Y-100737993D01*
X157081936Y-100866481D01*
X156644127Y-100685843D01*
X156534817Y-100640660D01*
X156427707Y-100596209D01*
X156336258Y-100558071D01*
X156264943Y-100528117D01*
X156218239Y-100508219D01*
X156200618Y-100500251D01*
X156200366Y-100498998D01*
X156208233Y-100475906D01*
X156228393Y-100430501D01*
X156257259Y-100370972D01*
X156313473Y-100247244D01*
X156374936Y-100076985D01*
X156422006Y-99902726D01*
X156453499Y-99731281D01*
X156468233Y-99569465D01*
X156465026Y-99424092D01*
X156442697Y-99301977D01*
X156407267Y-99216749D01*
X156334659Y-99119957D01*
X156236158Y-99045445D01*
X156114793Y-98995347D01*
X155973596Y-98971797D01*
X155843461Y-98963503D01*
X155842276Y-99396433D01*
X155841052Y-99542433D01*
X155836704Y-99703919D01*
X155828498Y-99841873D01*
X155815637Y-99963429D01*
X155797322Y-100075725D01*
X155772757Y-100185895D01*
X155741143Y-100301077D01*
X155680967Y-100473416D01*
X155581870Y-100676123D01*
X155460486Y-100854024D01*
X155318521Y-101005365D01*
X155157683Y-101128391D01*
X154979679Y-101221347D01*
X154786216Y-101282478D01*
X154734111Y-101292052D01*
X154605143Y-101304325D01*
X154482525Y-101305870D01*
X154461239Y-101306138D01*
X154314954Y-101297990D01*
X154178843Y-101280380D01*
X154065462Y-101253807D01*
X153948809Y-101211407D01*
X153756566Y-101113124D01*
X153587429Y-100987498D01*
X153442550Y-100835829D01*
X153323082Y-100659419D01*
X153230177Y-100459568D01*
X153164987Y-100237577D01*
X153150284Y-100147055D01*
X153140065Y-100017700D01*
X153137767Y-99876823D01*
X153143204Y-99736198D01*
X153156191Y-99607597D01*
X153173065Y-99520703D01*
X154043982Y-99520703D01*
X154045499Y-99645380D01*
X154066102Y-99763775D01*
X154108665Y-99862597D01*
X154175105Y-99948096D01*
X154199681Y-99972148D01*
X154283491Y-100034770D01*
X154373826Y-100068652D01*
X154482525Y-100078827D01*
X154539951Y-100076070D01*
X154658169Y-100048809D01*
X154759637Y-99991538D01*
X154845497Y-99903216D01*
X154916892Y-99782799D01*
X154974962Y-99629245D01*
X154990201Y-99567341D01*
X155000635Y-99492399D01*
X155006430Y-99398085D01*
X155008378Y-99276005D01*
X155008377Y-99256174D01*
X155007262Y-99164844D01*
X155004568Y-99086392D01*
X155000647Y-99028619D01*
X154995852Y-98999327D01*
X154994296Y-98995956D01*
X154984522Y-98985058D01*
X154964882Y-98977340D01*
X154930091Y-98972267D01*
X154874867Y-98969305D01*
X154793926Y-98967920D01*
X154681987Y-98967577D01*
X154585973Y-98968083D01*
X154485089Y-98970535D01*
X154412169Y-98975338D01*
X154362464Y-98982843D01*
X154331227Y-98993398D01*
X154308921Y-99006976D01*
X154248115Y-99058110D01*
X154184813Y-99126623D01*
X154128411Y-99201716D01*
X154088306Y-99272588D01*
X154073591Y-99311909D01*
X154053999Y-99402450D01*
X154043982Y-99520703D01*
X153173065Y-99520703D01*
X153176543Y-99502791D01*
X153192567Y-99450127D01*
X153239457Y-99330517D01*
X153298988Y-99208931D01*
X153364705Y-99097913D01*
X153430152Y-99010007D01*
X153431097Y-99008926D01*
X153471940Y-98960755D01*
X153501023Y-98923693D01*
X153512104Y-98905685D01*
X153509459Y-98903716D01*
X153480882Y-98899261D01*
X153427582Y-98896166D01*
X153357890Y-98895005D01*
X153203676Y-98895005D01*
X153203676Y-98214648D01*
X153203679Y-98196537D01*
X153203945Y-98044638D01*
X153204606Y-97905226D01*
X153205614Y-97782266D01*
X153206918Y-97679727D01*
X153208471Y-97601574D01*
X153210222Y-97551773D01*
X153212123Y-97534291D01*
X153213783Y-97534698D01*
G37*
X158354278Y-105863988D02*
X158564490Y-105864462D01*
X158750616Y-105865260D01*
X158914159Y-105866422D01*
X159056621Y-105867992D01*
X159179506Y-105870012D01*
X159284317Y-105872525D01*
X159372557Y-105875572D01*
X159445729Y-105879197D01*
X159505336Y-105883441D01*
X159552881Y-105888346D01*
X159589868Y-105893956D01*
X159617798Y-105900313D01*
X159638176Y-105907459D01*
X159652505Y-105915436D01*
X159662286Y-105924287D01*
X159669025Y-105934054D01*
X159674222Y-105944780D01*
X159679383Y-105956506D01*
X159686009Y-105969276D01*
X159688120Y-105973013D01*
X159708558Y-106029553D01*
X159716959Y-106091448D01*
X159716956Y-106161220D01*
X159558209Y-106162382D01*
X159539941Y-106162677D01*
X159354249Y-106184854D01*
X159179529Y-106241336D01*
X159017633Y-106331340D01*
X158870411Y-106454080D01*
X158810365Y-106519946D01*
X158710838Y-106666602D01*
X158641434Y-106826618D01*
X158602189Y-106995333D01*
X158593139Y-107168087D01*
X158614323Y-107340220D01*
X158665777Y-107507070D01*
X158747538Y-107663978D01*
X158859644Y-107806284D01*
X158899166Y-107845843D01*
X159045501Y-107962768D01*
X159204309Y-108045736D01*
X159376613Y-108095191D01*
X159563438Y-108111577D01*
X159716961Y-108111577D01*
X159716962Y-110715978D01*
X159716969Y-110878688D01*
X159717016Y-111228237D01*
X159717050Y-111544004D01*
X159717003Y-111827736D01*
X159716804Y-112081179D01*
X159716385Y-112306079D01*
X159715678Y-112504182D01*
X159714611Y-112677235D01*
X159713118Y-112826983D01*
X159711129Y-112955173D01*
X159708574Y-113063551D01*
X159705385Y-113153863D01*
X159701493Y-113227855D01*
X159696828Y-113287273D01*
X159691322Y-113333864D01*
X159684905Y-113369374D01*
X159677509Y-113395548D01*
X159669065Y-113414134D01*
X159659503Y-113426876D01*
X159648754Y-113435522D01*
X159636750Y-113441818D01*
X159623421Y-113447508D01*
X159608698Y-113454341D01*
X159608458Y-113454464D01*
X159598820Y-113457781D01*
X159582683Y-113460824D01*
X159558555Y-113463604D01*
X159524949Y-113466133D01*
X159480375Y-113468422D01*
X159423343Y-113470482D01*
X159352365Y-113472327D01*
X159265951Y-113473965D01*
X159162612Y-113475411D01*
X159040858Y-113476674D01*
X158899201Y-113477767D01*
X158736150Y-113478701D01*
X158550218Y-113479488D01*
X158339914Y-113480139D01*
X158103749Y-113480665D01*
X157840234Y-113481079D01*
X157547879Y-113481392D01*
X157225196Y-113481615D01*
X156870695Y-113481760D01*
X156482887Y-113481839D01*
X156060283Y-113481862D01*
X155977262Y-113481863D01*
X155559062Y-113481903D01*
X155175363Y-113481965D01*
X154824667Y-113482002D01*
X154505472Y-113481965D01*
X154216278Y-113481810D01*
X153955585Y-113481487D01*
X153721892Y-113480949D01*
X153513700Y-113480149D01*
X153329508Y-113479040D01*
X153221819Y-113478064D01*
X153167816Y-113477576D01*
X153027123Y-113475708D01*
X152905930Y-113473389D01*
X152802736Y-113470573D01*
X152716041Y-113467212D01*
X152644344Y-113463258D01*
X152586146Y-113458665D01*
X152539946Y-113453386D01*
X152504243Y-113447373D01*
X152477539Y-113440578D01*
X152458331Y-113432956D01*
X152445121Y-113424457D01*
X152436408Y-113415037D01*
X152430691Y-113404646D01*
X152426470Y-113393238D01*
X152422246Y-113380766D01*
X152416517Y-113367182D01*
X152413646Y-113359539D01*
X152410511Y-113345519D01*
X152407639Y-113324686D01*
X152405017Y-113295569D01*
X152402636Y-113256692D01*
X152400482Y-113206582D01*
X152398546Y-113143765D01*
X152396814Y-113066768D01*
X152395276Y-112974117D01*
X152393920Y-112864338D01*
X152392735Y-112735958D01*
X152391708Y-112587502D01*
X152390830Y-112417498D01*
X152390087Y-112224471D01*
X152389469Y-112006948D01*
X152388963Y-111763456D01*
X152388560Y-111492519D01*
X152388246Y-111192665D01*
X152388011Y-110862421D01*
X152387842Y-110500312D01*
X152387737Y-110134505D01*
X153221743Y-110134505D01*
X153335401Y-110128612D01*
X153341112Y-110128327D01*
X153386549Y-110127208D01*
X153430083Y-110129329D01*
X153474100Y-110136106D01*
X153520983Y-110148960D01*
X153573118Y-110169308D01*
X153632890Y-110198568D01*
X153702682Y-110238160D01*
X153784879Y-110289501D01*
X153881867Y-110354010D01*
X153996029Y-110433105D01*
X154129751Y-110528205D01*
X154285416Y-110640729D01*
X154465411Y-110772094D01*
X154672119Y-110923720D01*
X155400765Y-111458934D01*
X154555921Y-111463649D01*
X154477114Y-111464067D01*
X154264844Y-111464804D01*
X154084295Y-111464469D01*
X153932048Y-111462667D01*
X153804688Y-111459004D01*
X153698798Y-111453084D01*
X153610961Y-111444515D01*
X153537760Y-111432899D01*
X153475778Y-111417845D01*
X153421600Y-111398955D01*
X153371807Y-111375837D01*
X153322983Y-111348095D01*
X153271712Y-111315335D01*
X153221819Y-111282404D01*
X153221819Y-112993852D01*
X153280783Y-112949644D01*
X153290111Y-112942720D01*
X153375606Y-112887369D01*
X153462032Y-112849212D01*
X153561063Y-112824156D01*
X153684372Y-112808107D01*
X153689747Y-112807666D01*
X153740609Y-112805337D01*
X153825470Y-112803235D01*
X153942390Y-112801367D01*
X154089430Y-112799744D01*
X154264650Y-112798375D01*
X154466113Y-112797268D01*
X154691878Y-112796433D01*
X154940007Y-112795880D01*
X155208561Y-112795616D01*
X155495599Y-112795651D01*
X155799184Y-112795995D01*
X156117376Y-112796656D01*
X156402795Y-112797357D01*
X156713480Y-112798106D01*
X156991450Y-112798844D01*
X157238654Y-112799663D01*
X157457039Y-112800655D01*
X157648551Y-112801914D01*
X157815139Y-112803531D01*
X157958751Y-112805600D01*
X158081332Y-112808213D01*
X158184832Y-112811463D01*
X158271197Y-112815441D01*
X158342375Y-112820242D01*
X158400313Y-112825957D01*
X158446959Y-112832680D01*
X158484260Y-112840502D01*
X158514164Y-112849516D01*
X158538618Y-112859815D01*
X158559570Y-112871492D01*
X158578967Y-112884640D01*
X158598756Y-112899350D01*
X158620885Y-112915715D01*
X158643061Y-112931544D01*
X158686907Y-112962139D01*
X158714569Y-112980465D01*
X158715727Y-112980907D01*
X158720958Y-112974508D01*
X158725323Y-112951927D01*
X158728888Y-112910650D01*
X158731722Y-112848165D01*
X158733889Y-112761960D01*
X158735459Y-112649521D01*
X158736497Y-112508336D01*
X158737071Y-112335893D01*
X158737247Y-112129678D01*
X158737247Y-111265208D01*
X158683102Y-111310769D01*
X158645913Y-111337174D01*
X158558230Y-111381126D01*
X158449177Y-111419643D01*
X158328208Y-111449041D01*
X158316724Y-111450914D01*
X158256184Y-111456489D01*
X158162620Y-111460711D01*
X158035384Y-111463591D01*
X157873830Y-111465140D01*
X157677308Y-111465369D01*
X157445172Y-111464291D01*
X156670168Y-111458934D01*
X157369934Y-110905577D01*
X157389978Y-110889727D01*
X157567624Y-110749401D01*
X157719762Y-110629601D01*
X157848978Y-110528418D01*
X157957859Y-110443948D01*
X158048991Y-110374283D01*
X158124962Y-110317516D01*
X158188359Y-110271742D01*
X158241768Y-110235054D01*
X158287775Y-110205544D01*
X158328969Y-110181307D01*
X158367935Y-110160436D01*
X158407261Y-110141025D01*
X158476871Y-110111163D01*
X158550304Y-110091872D01*
X158629511Y-110086740D01*
X158737247Y-110087256D01*
X158737247Y-108251275D01*
X158679814Y-108331105D01*
X158625835Y-108398618D01*
X158537790Y-108493751D01*
X158427446Y-108601655D01*
X158299006Y-108718245D01*
X158156676Y-108839433D01*
X158118614Y-108870642D01*
X158053333Y-108923777D01*
X157967688Y-108993231D01*
X157864536Y-109076704D01*
X157746737Y-109171894D01*
X157617148Y-109276502D01*
X157478629Y-109388225D01*
X157334037Y-109504763D01*
X157267676Y-109558215D01*
X157186232Y-109623815D01*
X157038073Y-109743080D01*
X156892416Y-109860257D01*
X156752122Y-109973044D01*
X156620049Y-110079142D01*
X156499055Y-110176249D01*
X156391998Y-110262064D01*
X156301738Y-110334286D01*
X156231133Y-110390614D01*
X156183041Y-110428747D01*
X156160321Y-110446385D01*
X156151783Y-110447840D01*
X156135544Y-110442998D01*
X156109997Y-110430450D01*
X156073329Y-110408945D01*
X156023727Y-110377228D01*
X155959381Y-110334048D01*
X155878478Y-110278153D01*
X155779205Y-110208289D01*
X155659750Y-110123205D01*
X155518302Y-110021647D01*
X155353047Y-109902364D01*
X155162175Y-109764102D01*
X154943872Y-109605610D01*
X154770105Y-109479325D01*
X154558269Y-109325253D01*
X154372236Y-109189728D01*
X154209942Y-109071172D01*
X154069322Y-108968009D01*
X153948311Y-108878663D01*
X153844844Y-108801559D01*
X153756858Y-108735120D01*
X153682286Y-108677771D01*
X153619066Y-108627934D01*
X153565131Y-108584034D01*
X153518418Y-108544495D01*
X153476862Y-108507741D01*
X153438397Y-108472195D01*
X153400961Y-108436283D01*
X153362487Y-108398426D01*
X153221819Y-108258919D01*
X153221743Y-110134505D01*
X152387737Y-110134505D01*
X152387729Y-110104864D01*
X152387660Y-109674604D01*
X152387647Y-109538256D01*
X152387638Y-109117334D01*
X152387691Y-108730795D01*
X152387816Y-108377182D01*
X152388024Y-108055038D01*
X152388153Y-107929462D01*
X153221819Y-107929462D01*
X153344283Y-107861769D01*
X153466747Y-107794077D01*
X157022747Y-107794077D01*
X157145211Y-107861769D01*
X157267676Y-107929462D01*
X157267676Y-106498141D01*
X155385354Y-106492966D01*
X153503033Y-106487791D01*
X153394668Y-106437051D01*
X153340957Y-106410299D01*
X153287152Y-106380008D01*
X153254061Y-106357132D01*
X153253997Y-106357074D01*
X153246309Y-106351521D01*
X153239951Y-106352046D01*
X153234799Y-106361669D01*
X153230726Y-106383412D01*
X153227606Y-106420296D01*
X153225311Y-106475341D01*
X153223717Y-106551567D01*
X153222697Y-106651996D01*
X153222125Y-106779649D01*
X153221874Y-106937546D01*
X153221819Y-107128707D01*
X153221819Y-107929462D01*
X152388153Y-107929462D01*
X152388325Y-107762909D01*
X152388730Y-107499336D01*
X152389250Y-107262864D01*
X152389894Y-107052038D01*
X152390674Y-106865399D01*
X152391600Y-106701493D01*
X152392683Y-106558863D01*
X152393933Y-106436053D01*
X152395361Y-106331606D01*
X152396978Y-106244067D01*
X152398793Y-106171978D01*
X152400818Y-106113884D01*
X152403063Y-106068328D01*
X152405539Y-106033855D01*
X152408256Y-106009007D01*
X152411225Y-105992329D01*
X152414456Y-105982365D01*
X152415894Y-105979194D01*
X152420618Y-105966215D01*
X152424068Y-105954313D01*
X152427746Y-105943440D01*
X152433155Y-105933546D01*
X152441797Y-105924585D01*
X152455174Y-105916507D01*
X152474790Y-105909264D01*
X152502145Y-105902809D01*
X152538743Y-105897093D01*
X152586086Y-105892067D01*
X152645676Y-105887684D01*
X152719017Y-105883895D01*
X152807609Y-105880652D01*
X152912956Y-105877907D01*
X153036559Y-105875611D01*
X153179922Y-105873716D01*
X153344547Y-105872174D01*
X153531936Y-105870937D01*
X153743591Y-105869956D01*
X153981015Y-105869183D01*
X154245710Y-105868570D01*
X154539178Y-105868069D01*
X154862923Y-105867632D01*
X155218446Y-105867209D01*
X155607250Y-105866753D01*
X156030836Y-105866216D01*
X156082116Y-105866147D01*
X156503019Y-105865548D01*
X156889314Y-105864975D01*
X157242504Y-105864471D01*
X157564092Y-105864078D01*
X157855582Y-105863838D01*
X158118476Y-105863794D01*
X158354278Y-105863988D01*
G36*
X158354278Y-105863988D02*
G01*
X158564490Y-105864462D01*
X158750616Y-105865260D01*
X158914159Y-105866422D01*
X159056621Y-105867992D01*
X159179506Y-105870012D01*
X159284317Y-105872525D01*
X159372557Y-105875572D01*
X159445729Y-105879197D01*
X159505336Y-105883441D01*
X159552881Y-105888346D01*
X159589868Y-105893956D01*
X159617798Y-105900313D01*
X159638176Y-105907459D01*
X159652505Y-105915436D01*
X159662286Y-105924287D01*
X159669025Y-105934054D01*
X159674222Y-105944780D01*
X159679383Y-105956506D01*
X159686009Y-105969276D01*
X159688120Y-105973013D01*
X159708558Y-106029553D01*
X159716959Y-106091448D01*
X159716956Y-106161220D01*
X159558209Y-106162382D01*
X159539941Y-106162677D01*
X159354249Y-106184854D01*
X159179529Y-106241336D01*
X159017633Y-106331340D01*
X158870411Y-106454080D01*
X158810365Y-106519946D01*
X158710838Y-106666602D01*
X158641434Y-106826618D01*
X158602189Y-106995333D01*
X158593139Y-107168087D01*
X158614323Y-107340220D01*
X158665777Y-107507070D01*
X158747538Y-107663978D01*
X158859644Y-107806284D01*
X158899166Y-107845843D01*
X159045501Y-107962768D01*
X159204309Y-108045736D01*
X159376613Y-108095191D01*
X159563438Y-108111577D01*
X159716961Y-108111577D01*
X159716962Y-110715978D01*
X159716969Y-110878688D01*
X159717016Y-111228237D01*
X159717050Y-111544004D01*
X159717003Y-111827736D01*
X159716804Y-112081179D01*
X159716385Y-112306079D01*
X159715678Y-112504182D01*
X159714611Y-112677235D01*
X159713118Y-112826983D01*
X159711129Y-112955173D01*
X159708574Y-113063551D01*
X159705385Y-113153863D01*
X159701493Y-113227855D01*
X159696828Y-113287273D01*
X159691322Y-113333864D01*
X159684905Y-113369374D01*
X159677509Y-113395548D01*
X159669065Y-113414134D01*
X159659503Y-113426876D01*
X159648754Y-113435522D01*
X159636750Y-113441818D01*
X159623421Y-113447508D01*
X159608698Y-113454341D01*
X159608458Y-113454464D01*
X159598820Y-113457781D01*
X159582683Y-113460824D01*
X159558555Y-113463604D01*
X159524949Y-113466133D01*
X159480375Y-113468422D01*
X159423343Y-113470482D01*
X159352365Y-113472327D01*
X159265951Y-113473965D01*
X159162612Y-113475411D01*
X159040858Y-113476674D01*
X158899201Y-113477767D01*
X158736150Y-113478701D01*
X158550218Y-113479488D01*
X158339914Y-113480139D01*
X158103749Y-113480665D01*
X157840234Y-113481079D01*
X157547879Y-113481392D01*
X157225196Y-113481615D01*
X156870695Y-113481760D01*
X156482887Y-113481839D01*
X156060283Y-113481862D01*
X155977262Y-113481863D01*
X155559062Y-113481903D01*
X155175363Y-113481965D01*
X154824667Y-113482002D01*
X154505472Y-113481965D01*
X154216278Y-113481810D01*
X153955585Y-113481487D01*
X153721892Y-113480949D01*
X153513700Y-113480149D01*
X153329508Y-113479040D01*
X153221819Y-113478064D01*
X153167816Y-113477576D01*
X153027123Y-113475708D01*
X152905930Y-113473389D01*
X152802736Y-113470573D01*
X152716041Y-113467212D01*
X152644344Y-113463258D01*
X152586146Y-113458665D01*
X152539946Y-113453386D01*
X152504243Y-113447373D01*
X152477539Y-113440578D01*
X152458331Y-113432956D01*
X152445121Y-113424457D01*
X152436408Y-113415037D01*
X152430691Y-113404646D01*
X152426470Y-113393238D01*
X152422246Y-113380766D01*
X152416517Y-113367182D01*
X152413646Y-113359539D01*
X152410511Y-113345519D01*
X152407639Y-113324686D01*
X152405017Y-113295569D01*
X152402636Y-113256692D01*
X152400482Y-113206582D01*
X152398546Y-113143765D01*
X152396814Y-113066768D01*
X152395276Y-112974117D01*
X152393920Y-112864338D01*
X152392735Y-112735958D01*
X152391708Y-112587502D01*
X152390830Y-112417498D01*
X152390087Y-112224471D01*
X152389469Y-112006948D01*
X152388963Y-111763456D01*
X152388560Y-111492519D01*
X152388246Y-111192665D01*
X152388011Y-110862421D01*
X152387842Y-110500312D01*
X152387737Y-110134505D01*
X153221743Y-110134505D01*
X153335401Y-110128612D01*
X153341112Y-110128327D01*
X153386549Y-110127208D01*
X153430083Y-110129329D01*
X153474100Y-110136106D01*
X153520983Y-110148960D01*
X153573118Y-110169308D01*
X153632890Y-110198568D01*
X153702682Y-110238160D01*
X153784879Y-110289501D01*
X153881867Y-110354010D01*
X153996029Y-110433105D01*
X154129751Y-110528205D01*
X154285416Y-110640729D01*
X154465411Y-110772094D01*
X154672119Y-110923720D01*
X155400765Y-111458934D01*
X154555921Y-111463649D01*
X154477114Y-111464067D01*
X154264844Y-111464804D01*
X154084295Y-111464469D01*
X153932048Y-111462667D01*
X153804688Y-111459004D01*
X153698798Y-111453084D01*
X153610961Y-111444515D01*
X153537760Y-111432899D01*
X153475778Y-111417845D01*
X153421600Y-111398955D01*
X153371807Y-111375837D01*
X153322983Y-111348095D01*
X153271712Y-111315335D01*
X153221819Y-111282404D01*
X153221819Y-112993852D01*
X153280783Y-112949644D01*
X153290111Y-112942720D01*
X153375606Y-112887369D01*
X153462032Y-112849212D01*
X153561063Y-112824156D01*
X153684372Y-112808107D01*
X153689747Y-112807666D01*
X153740609Y-112805337D01*
X153825470Y-112803235D01*
X153942390Y-112801367D01*
X154089430Y-112799744D01*
X154264650Y-112798375D01*
X154466113Y-112797268D01*
X154691878Y-112796433D01*
X154940007Y-112795880D01*
X155208561Y-112795616D01*
X155495599Y-112795651D01*
X155799184Y-112795995D01*
X156117376Y-112796656D01*
X156402795Y-112797357D01*
X156713480Y-112798106D01*
X156991450Y-112798844D01*
X157238654Y-112799663D01*
X157457039Y-112800655D01*
X157648551Y-112801914D01*
X157815139Y-112803531D01*
X157958751Y-112805600D01*
X158081332Y-112808213D01*
X158184832Y-112811463D01*
X158271197Y-112815441D01*
X158342375Y-112820242D01*
X158400313Y-112825957D01*
X158446959Y-112832680D01*
X158484260Y-112840502D01*
X158514164Y-112849516D01*
X158538618Y-112859815D01*
X158559570Y-112871492D01*
X158578967Y-112884640D01*
X158598756Y-112899350D01*
X158620885Y-112915715D01*
X158643061Y-112931544D01*
X158686907Y-112962139D01*
X158714569Y-112980465D01*
X158715727Y-112980907D01*
X158720958Y-112974508D01*
X158725323Y-112951927D01*
X158728888Y-112910650D01*
X158731722Y-112848165D01*
X158733889Y-112761960D01*
X158735459Y-112649521D01*
X158736497Y-112508336D01*
X158737071Y-112335893D01*
X158737247Y-112129678D01*
X158737247Y-111265208D01*
X158683102Y-111310769D01*
X158645913Y-111337174D01*
X158558230Y-111381126D01*
X158449177Y-111419643D01*
X158328208Y-111449041D01*
X158316724Y-111450914D01*
X158256184Y-111456489D01*
X158162620Y-111460711D01*
X158035384Y-111463591D01*
X157873830Y-111465140D01*
X157677308Y-111465369D01*
X157445172Y-111464291D01*
X156670168Y-111458934D01*
X157369934Y-110905577D01*
X157389978Y-110889727D01*
X157567624Y-110749401D01*
X157719762Y-110629601D01*
X157848978Y-110528418D01*
X157957859Y-110443948D01*
X158048991Y-110374283D01*
X158124962Y-110317516D01*
X158188359Y-110271742D01*
X158241768Y-110235054D01*
X158287775Y-110205544D01*
X158328969Y-110181307D01*
X158367935Y-110160436D01*
X158407261Y-110141025D01*
X158476871Y-110111163D01*
X158550304Y-110091872D01*
X158629511Y-110086740D01*
X158737247Y-110087256D01*
X158737247Y-108251275D01*
X158679814Y-108331105D01*
X158625835Y-108398618D01*
X158537790Y-108493751D01*
X158427446Y-108601655D01*
X158299006Y-108718245D01*
X158156676Y-108839433D01*
X158118614Y-108870642D01*
X158053333Y-108923777D01*
X157967688Y-108993231D01*
X157864536Y-109076704D01*
X157746737Y-109171894D01*
X157617148Y-109276502D01*
X157478629Y-109388225D01*
X157334037Y-109504763D01*
X157267676Y-109558215D01*
X157186232Y-109623815D01*
X157038073Y-109743080D01*
X156892416Y-109860257D01*
X156752122Y-109973044D01*
X156620049Y-110079142D01*
X156499055Y-110176249D01*
X156391998Y-110262064D01*
X156301738Y-110334286D01*
X156231133Y-110390614D01*
X156183041Y-110428747D01*
X156160321Y-110446385D01*
X156151783Y-110447840D01*
X156135544Y-110442998D01*
X156109997Y-110430450D01*
X156073329Y-110408945D01*
X156023727Y-110377228D01*
X155959381Y-110334048D01*
X155878478Y-110278153D01*
X155779205Y-110208289D01*
X155659750Y-110123205D01*
X155518302Y-110021647D01*
X155353047Y-109902364D01*
X155162175Y-109764102D01*
X154943872Y-109605610D01*
X154770105Y-109479325D01*
X154558269Y-109325253D01*
X154372236Y-109189728D01*
X154209942Y-109071172D01*
X154069322Y-108968009D01*
X153948311Y-108878663D01*
X153844844Y-108801559D01*
X153756858Y-108735120D01*
X153682286Y-108677771D01*
X153619066Y-108627934D01*
X153565131Y-108584034D01*
X153518418Y-108544495D01*
X153476862Y-108507741D01*
X153438397Y-108472195D01*
X153400961Y-108436283D01*
X153362487Y-108398426D01*
X153221819Y-108258919D01*
X153221743Y-110134505D01*
X152387737Y-110134505D01*
X152387729Y-110104864D01*
X152387660Y-109674604D01*
X152387647Y-109538256D01*
X152387638Y-109117334D01*
X152387691Y-108730795D01*
X152387816Y-108377182D01*
X152388024Y-108055038D01*
X152388153Y-107929462D01*
X153221819Y-107929462D01*
X153344283Y-107861769D01*
X153466747Y-107794077D01*
X157022747Y-107794077D01*
X157145211Y-107861769D01*
X157267676Y-107929462D01*
X157267676Y-106498141D01*
X155385354Y-106492966D01*
X153503033Y-106487791D01*
X153394668Y-106437051D01*
X153340957Y-106410299D01*
X153287152Y-106380008D01*
X153254061Y-106357132D01*
X153253997Y-106357074D01*
X153246309Y-106351521D01*
X153239951Y-106352046D01*
X153234799Y-106361669D01*
X153230726Y-106383412D01*
X153227606Y-106420296D01*
X153225311Y-106475341D01*
X153223717Y-106551567D01*
X153222697Y-106651996D01*
X153222125Y-106779649D01*
X153221874Y-106937546D01*
X153221819Y-107128707D01*
X153221819Y-107929462D01*
X152388153Y-107929462D01*
X152388325Y-107762909D01*
X152388730Y-107499336D01*
X152389250Y-107262864D01*
X152389894Y-107052038D01*
X152390674Y-106865399D01*
X152391600Y-106701493D01*
X152392683Y-106558863D01*
X152393933Y-106436053D01*
X152395361Y-106331606D01*
X152396978Y-106244067D01*
X152398793Y-106171978D01*
X152400818Y-106113884D01*
X152403063Y-106068328D01*
X152405539Y-106033855D01*
X152408256Y-106009007D01*
X152411225Y-105992329D01*
X152414456Y-105982365D01*
X152415894Y-105979194D01*
X152420618Y-105966215D01*
X152424068Y-105954313D01*
X152427746Y-105943440D01*
X152433155Y-105933546D01*
X152441797Y-105924585D01*
X152455174Y-105916507D01*
X152474790Y-105909264D01*
X152502145Y-105902809D01*
X152538743Y-105897093D01*
X152586086Y-105892067D01*
X152645676Y-105887684D01*
X152719017Y-105883895D01*
X152807609Y-105880652D01*
X152912956Y-105877907D01*
X153036559Y-105875611D01*
X153179922Y-105873716D01*
X153344547Y-105872174D01*
X153531936Y-105870937D01*
X153743591Y-105869956D01*
X153981015Y-105869183D01*
X154245710Y-105868570D01*
X154539178Y-105868069D01*
X154862923Y-105867632D01*
X155218446Y-105867209D01*
X155607250Y-105866753D01*
X156030836Y-105866216D01*
X156082116Y-105866147D01*
X156503019Y-105865548D01*
X156889314Y-105864975D01*
X157242504Y-105864471D01*
X157564092Y-105864078D01*
X157855582Y-105863838D01*
X158118476Y-105863794D01*
X158354278Y-105863988D01*
G37*
%TD*%
M02*
