%TF.GenerationSoftware,KiCad,Pcbnew,7.0.7*%
%TF.CreationDate,2023-12-09T08:55:25-03:00*%
%TF.ProjectId,led_torch,6c65645f-746f-4726-9368-2e6b69636164,A*%
%TF.SameCoordinates,Original*%
%TF.FileFunction,Copper,L1,Top*%
%TF.FilePolarity,Positive*%
%FSLAX46Y46*%
G04 Gerber Fmt 4.6, Leading zero omitted, Abs format (unit mm)*
G04 Created by KiCad (PCBNEW 7.0.7) date 2023-12-09 08:55:25*
%MOMM*%
%LPD*%
G01*
G04 APERTURE LIST*
%TA.AperFunction,ComponentPad*%
%ADD10R,1.700000X1.700000*%
%TD*%
%TA.AperFunction,ComponentPad*%
%ADD11C,1.700000*%
%TD*%
%TA.AperFunction,ComponentPad*%
%ADD12C,1.400000*%
%TD*%
%TA.AperFunction,ComponentPad*%
%ADD13O,1.400000X1.400000*%
%TD*%
%TA.AperFunction,ComponentPad*%
%ADD14R,1.800000X1.800000*%
%TD*%
%TA.AperFunction,ComponentPad*%
%ADD15C,1.800000*%
%TD*%
%TA.AperFunction,ComponentPad*%
%ADD16R,3.000000X3.000000*%
%TD*%
%TA.AperFunction,ComponentPad*%
%ADD17C,3.000000*%
%TD*%
G04 APERTURE END LIST*
D10*
%TO.P,SW1,1,1*%
%TO.N,/VCC*%
X130378676Y-101183148D03*
D11*
X136878676Y-101183148D03*
%TO.P,SW1,2,2*%
%TO.N,/SW*%
X130378676Y-105683148D03*
X136878676Y-105683148D03*
%TD*%
D12*
%TO.P,R1,1*%
%TO.N,/SW*%
X125003676Y-107368148D03*
D13*
%TO.P,R1,2*%
%TO.N,/ANODE*%
X125003676Y-99748148D03*
%TD*%
D14*
%TO.P,D1,1,K*%
%TO.N,/GND*%
X119653676Y-102383148D03*
D15*
%TO.P,D1,2,A*%
%TO.N,/ANODE*%
X119653676Y-104923148D03*
%TD*%
D16*
%TO.P,BT1,1,+*%
%TO.N,/VCC*%
X168303677Y-103658148D03*
D17*
%TO.P,BT1,2,-*%
%TO.N,/GND*%
X147813677Y-103658148D03*
%TD*%
%TA.AperFunction,Conductor*%
%TO.N,/GND*%
G36*
X153271835Y-90656550D02*
G01*
X153277108Y-90656693D01*
X153651513Y-90666905D01*
X153988376Y-90685800D01*
X154367063Y-90716803D01*
X154702120Y-90754491D01*
X155078803Y-90806081D01*
X155410939Y-90862406D01*
X155784550Y-90934465D01*
X156112670Y-91009205D01*
X156466879Y-91097749D01*
X156482205Y-91101580D01*
X156805127Y-91194417D01*
X156856346Y-91210225D01*
X157169641Y-91306925D01*
X157486134Y-91417429D01*
X157844688Y-91549857D01*
X158122525Y-91664679D01*
X158153718Y-91677570D01*
X158505366Y-91829664D01*
X158805658Y-91973933D01*
X159149663Y-92145504D01*
X159440002Y-92305571D01*
X159775547Y-92496385D01*
X160049306Y-92667952D01*
X160054824Y-92671410D01*
X160381164Y-92881269D01*
X160646732Y-93069182D01*
X160647946Y-93070041D01*
X160870308Y-93230779D01*
X160962302Y-93297279D01*
X160966910Y-93300773D01*
X161194778Y-93481963D01*
X161217438Y-93499981D01*
X161521912Y-93746364D01*
X161526486Y-93750248D01*
X161761168Y-93959324D01*
X161976042Y-94153463D01*
X162055937Y-94225649D01*
X162060417Y-94229902D01*
X162276614Y-94445379D01*
X162322931Y-94492047D01*
X162562696Y-94733630D01*
X162567083Y-94738279D01*
X162759976Y-94953350D01*
X163040725Y-95268839D01*
X163044976Y-95273874D01*
X163201663Y-95469585D01*
X163488508Y-95829588D01*
X163492593Y-95835007D01*
X163527466Y-95883944D01*
X163884975Y-96386467D01*
X163897134Y-96408380D01*
X163897898Y-96409303D01*
X163901739Y-96410048D01*
X163901740Y-96410050D01*
X163901741Y-96410049D01*
X163928294Y-96415206D01*
X163928757Y-96415012D01*
X163979598Y-96409843D01*
X171778676Y-96408648D01*
X172303236Y-96427818D01*
X172312430Y-96428490D01*
X172680570Y-96468997D01*
X172835435Y-96486446D01*
X172844200Y-96487747D01*
X173169626Y-96547856D01*
X173362242Y-96584302D01*
X173370665Y-96586197D01*
X173674259Y-96665566D01*
X173880352Y-96720789D01*
X173888429Y-96723246D01*
X174176429Y-96821498D01*
X174386973Y-96895170D01*
X174394632Y-96898134D01*
X174588979Y-96980723D01*
X174669281Y-97014848D01*
X174879273Y-97106466D01*
X174886490Y-97109890D01*
X175072528Y-97205539D01*
X175148376Y-97244536D01*
X175354619Y-97353538D01*
X175361390Y-97357388D01*
X175532046Y-97461538D01*
X175610274Y-97509280D01*
X175810420Y-97635041D01*
X175816725Y-97639271D01*
X176052059Y-97807638D01*
X176052489Y-97807955D01*
X176244181Y-97949430D01*
X176249949Y-97953952D01*
X176403042Y-98081357D01*
X176471113Y-98138006D01*
X176653499Y-98294962D01*
X176658774Y-98299768D01*
X176864984Y-98498579D01*
X177036170Y-98669765D01*
X177040935Y-98674799D01*
X177231416Y-98887388D01*
X177390111Y-99071795D01*
X177394353Y-99076997D01*
X177568330Y-99302305D01*
X177713378Y-99498838D01*
X177717078Y-99504129D01*
X177862845Y-99724457D01*
X177873833Y-99741065D01*
X178004200Y-99948543D01*
X178007402Y-99953930D01*
X178016357Y-99969885D01*
X178146205Y-100201250D01*
X178261036Y-100418523D01*
X178263735Y-100423938D01*
X178383943Y-100680364D01*
X178482451Y-100906147D01*
X178484659Y-100911544D01*
X178585723Y-101175785D01*
X178668171Y-101411406D01*
X178750431Y-101684828D01*
X178815112Y-101926221D01*
X178877145Y-102204698D01*
X178923642Y-102450441D01*
X178965161Y-102732553D01*
X178993177Y-102981203D01*
X179013987Y-103265530D01*
X179023345Y-103515619D01*
X179023345Y-103800680D01*
X179013987Y-104050769D01*
X178993177Y-104335096D01*
X178965161Y-104583746D01*
X178923642Y-104865858D01*
X178877145Y-105111601D01*
X178815112Y-105390078D01*
X178750431Y-105631471D01*
X178668171Y-105904893D01*
X178585723Y-106140514D01*
X178484659Y-106404754D01*
X178482451Y-106410151D01*
X178383943Y-106635935D01*
X178263735Y-106892360D01*
X178261036Y-106897775D01*
X178146205Y-107115049D01*
X178007404Y-107362364D01*
X178004201Y-107367755D01*
X177873833Y-107575234D01*
X177717099Y-107812139D01*
X177713379Y-107817460D01*
X177568330Y-108013994D01*
X177394352Y-108239301D01*
X177390111Y-108244503D01*
X177231416Y-108428911D01*
X177040935Y-108641499D01*
X177036170Y-108646533D01*
X176864984Y-108817720D01*
X176658774Y-109016530D01*
X176653488Y-109021346D01*
X176471120Y-109178287D01*
X176249969Y-109362330D01*
X176244167Y-109366878D01*
X176052059Y-109508661D01*
X175816725Y-109677027D01*
X175810421Y-109681257D01*
X175610274Y-109807019D01*
X175361410Y-109958898D01*
X175354619Y-109962760D01*
X175148376Y-110071762D01*
X174886516Y-110206395D01*
X174879259Y-110209839D01*
X174669281Y-110301451D01*
X174394651Y-110418156D01*
X174386955Y-110421135D01*
X174176436Y-110494799D01*
X173888437Y-110593049D01*
X173880331Y-110595515D01*
X173674179Y-110650753D01*
X173370709Y-110730091D01*
X173362228Y-110731999D01*
X173169429Y-110768479D01*
X172844221Y-110828547D01*
X172835405Y-110829856D01*
X172680535Y-110847306D01*
X172312453Y-110887807D01*
X172303234Y-110888481D01*
X171778775Y-110907648D01*
X163979270Y-110906451D01*
X163940423Y-110898717D01*
X163898292Y-110906917D01*
X163896387Y-110909235D01*
X163884935Y-110929887D01*
X163529411Y-111429621D01*
X163492559Y-111481332D01*
X163488476Y-111486748D01*
X163202416Y-111845768D01*
X163044941Y-112042462D01*
X163040690Y-112047497D01*
X162760477Y-112362384D01*
X162567054Y-112578047D01*
X162562666Y-112582697D01*
X162276960Y-112870570D01*
X162060374Y-113086434D01*
X162055880Y-113090699D01*
X161761486Y-113356689D01*
X161526428Y-113566095D01*
X161521856Y-113569978D01*
X161217698Y-113816107D01*
X160966887Y-114015540D01*
X160962264Y-114019046D01*
X160648159Y-114246103D01*
X160381104Y-114435068D01*
X160055008Y-114644770D01*
X159775492Y-114819944D01*
X159440223Y-115010601D01*
X159149582Y-115170835D01*
X158805845Y-115342271D01*
X158505313Y-115486657D01*
X158153849Y-115638671D01*
X157844628Y-115766463D01*
X157486311Y-115898804D01*
X157169542Y-116009403D01*
X156805270Y-116121837D01*
X156482124Y-116214739D01*
X156112836Y-116307052D01*
X155784453Y-116381852D01*
X155411110Y-116453859D01*
X155078696Y-116510232D01*
X154702271Y-116561787D01*
X154366938Y-116599505D01*
X153988508Y-116630488D01*
X153651388Y-116649397D01*
X153271945Y-116659745D01*
X152934255Y-116659765D01*
X152554795Y-116649458D01*
X152217690Y-116630587D01*
X151839249Y-116599646D01*
X151503907Y-116561965D01*
X151127486Y-116510454D01*
X150795075Y-116454120D01*
X150421685Y-116382147D01*
X150093352Y-116307396D01*
X149724013Y-116215115D01*
X149400861Y-116122251D01*
X149036583Y-116009860D01*
X148719802Y-115899296D01*
X148361469Y-115766994D01*
X148052215Y-115639230D01*
X147700758Y-115487265D01*
X147400173Y-115342896D01*
X147056461Y-115171519D01*
X146852106Y-115058887D01*
X146765731Y-115011280D01*
X146764537Y-115010601D01*
X146430500Y-114820693D01*
X146429304Y-114819944D01*
X146150950Y-114645540D01*
X145824843Y-114435883D01*
X145557735Y-114246925D01*
X145243648Y-114019935D01*
X145239024Y-114016429D01*
X144988176Y-113817012D01*
X144683983Y-113570914D01*
X144679409Y-113567030D01*
X144444339Y-113357657D01*
X144149927Y-113091712D01*
X144145432Y-113087448D01*
X143928728Y-112871513D01*
X143643075Y-112583759D01*
X143638687Y-112579110D01*
X143637733Y-112578047D01*
X143445147Y-112363365D01*
X143164993Y-112048616D01*
X143160742Y-112043582D01*
X143120682Y-111993557D01*
X143003191Y-111846838D01*
X142856561Y-111662854D01*
X142717139Y-111487912D01*
X142713054Y-111482494D01*
X142676006Y-111430518D01*
X142320956Y-110931570D01*
X142309350Y-110910537D01*
X142307398Y-110908159D01*
X142277388Y-110902257D01*
X142276374Y-110902680D01*
X142226482Y-110907648D01*
X114128676Y-110907648D01*
X113604118Y-110888476D01*
X113594900Y-110887802D01*
X113223775Y-110846966D01*
X113072056Y-110829871D01*
X113063240Y-110828562D01*
X112735951Y-110768109D01*
X112545255Y-110732027D01*
X112536774Y-110730119D01*
X112231864Y-110650405D01*
X112027126Y-110595546D01*
X112019020Y-110593080D01*
X111729983Y-110494474D01*
X111650091Y-110466518D01*
X111520498Y-110421172D01*
X111512820Y-110418200D01*
X111237340Y-110301134D01*
X111028202Y-110209887D01*
X111020946Y-110206443D01*
X110758377Y-110071448D01*
X110552841Y-109962817D01*
X110546050Y-109958956D01*
X110296577Y-109806705D01*
X110097044Y-109681330D01*
X110090749Y-109677106D01*
X109854863Y-109508344D01*
X109663296Y-109366960D01*
X109657495Y-109362412D01*
X109435874Y-109177977D01*
X109253970Y-109021436D01*
X109248684Y-109016620D01*
X109042050Y-108817401D01*
X108871291Y-108646642D01*
X108866538Y-108641622D01*
X108720231Y-108478333D01*
X108675669Y-108428599D01*
X108661242Y-108411834D01*
X108517323Y-108244598D01*
X108513141Y-108239469D01*
X108338800Y-108013690D01*
X108310025Y-107974702D01*
X108194055Y-107817567D01*
X108190374Y-107812303D01*
X108083224Y-107650346D01*
X108033343Y-107574949D01*
X107983343Y-107495376D01*
X107903403Y-107368151D01*
X123790560Y-107368151D01*
X123808988Y-107578793D01*
X123808990Y-107578803D01*
X123863719Y-107783057D01*
X123953084Y-107974702D01*
X123953087Y-107974706D01*
X124074375Y-108147924D01*
X124223900Y-108297449D01*
X124397118Y-108418737D01*
X124397121Y-108418739D01*
X124505042Y-108469063D01*
X124588766Y-108508104D01*
X124793021Y-108562834D01*
X124793028Y-108562834D01*
X124793030Y-108562835D01*
X125003673Y-108581264D01*
X125003676Y-108581264D01*
X125003679Y-108581264D01*
X125214321Y-108562835D01*
X125214322Y-108562834D01*
X125214331Y-108562834D01*
X125418586Y-108508104D01*
X125610234Y-108418737D01*
X125783452Y-108297449D01*
X125932977Y-108147924D01*
X126054265Y-107974706D01*
X126143632Y-107783058D01*
X126198362Y-107578803D01*
X126216792Y-107368148D01*
X126216766Y-107367854D01*
X126198363Y-107157502D01*
X126198362Y-107157500D01*
X126198362Y-107157493D01*
X126143632Y-106953238D01*
X126133490Y-106931488D01*
X126054267Y-106761593D01*
X126001369Y-106686047D01*
X125932977Y-106588372D01*
X125783452Y-106438847D01*
X125610234Y-106317559D01*
X125610230Y-106317556D01*
X125418584Y-106228191D01*
X125418585Y-106228191D01*
X125214331Y-106173462D01*
X125214321Y-106173460D01*
X125003679Y-106155032D01*
X125003673Y-106155032D01*
X124793030Y-106173460D01*
X124793020Y-106173462D01*
X124588766Y-106228191D01*
X124397121Y-106317556D01*
X124223898Y-106438848D01*
X124074376Y-106588370D01*
X123953084Y-106761593D01*
X123863719Y-106953238D01*
X123808990Y-107157492D01*
X123808988Y-107157502D01*
X123790560Y-107368144D01*
X123790560Y-107368151D01*
X107903403Y-107368151D01*
X107903216Y-107367854D01*
X107900039Y-107362508D01*
X107784979Y-107157493D01*
X107761000Y-107114766D01*
X107691266Y-106982823D01*
X107646390Y-106897915D01*
X107643697Y-106892509D01*
X107523289Y-106635655D01*
X107502659Y-106588370D01*
X107424973Y-106410312D01*
X107422769Y-106404924D01*
X107394743Y-106331648D01*
X107321534Y-106140236D01*
X107309674Y-106106342D01*
X107239243Y-105905060D01*
X107156854Y-105631209D01*
X107147372Y-105595823D01*
X107092292Y-105390260D01*
X107030162Y-105111354D01*
X106994552Y-104923148D01*
X118240349Y-104923148D01*
X118242262Y-104946231D01*
X118259624Y-105155771D01*
X118259625Y-105155777D01*
X118315966Y-105378262D01*
X118316927Y-105382055D01*
X118410692Y-105595817D01*
X118410695Y-105595823D01*
X118467747Y-105683147D01*
X118538362Y-105791231D01*
X118696456Y-105962966D01*
X118696460Y-105962969D01*
X118696462Y-105962971D01*
X118880657Y-106106337D01*
X118880666Y-106106342D01*
X118943323Y-106140250D01*
X119085949Y-106217435D01*
X119306725Y-106293228D01*
X119306729Y-106293228D01*
X119306730Y-106293229D01*
X119536960Y-106331648D01*
X119536964Y-106331648D01*
X119770391Y-106331648D01*
X120000621Y-106293229D01*
X120000620Y-106293229D01*
X120000627Y-106293228D01*
X120221403Y-106217435D01*
X120426693Y-106106338D01*
X120610896Y-105962966D01*
X120768990Y-105791231D01*
X120839605Y-105683147D01*
X129015520Y-105683147D01*
X129034111Y-105907513D01*
X129034112Y-105907518D01*
X129089379Y-106125760D01*
X129089382Y-106125768D01*
X129179814Y-106331937D01*
X129302954Y-106520417D01*
X129455429Y-106686047D01*
X129455431Y-106686049D01*
X129455436Y-106686054D01*
X129633100Y-106824337D01*
X129831102Y-106931490D01*
X130044041Y-107004592D01*
X130265294Y-107041512D01*
X130266101Y-107041647D01*
X130266104Y-107041648D01*
X130266107Y-107041648D01*
X130491248Y-107041648D01*
X130491249Y-107041647D01*
X130713311Y-107004592D01*
X130926250Y-106931490D01*
X131124252Y-106824337D01*
X131301916Y-106686054D01*
X131454398Y-106520416D01*
X131577536Y-106331939D01*
X131667972Y-106125764D01*
X131723240Y-105907516D01*
X131741832Y-105683148D01*
X131741832Y-105683147D01*
X135515520Y-105683147D01*
X135534111Y-105907513D01*
X135534112Y-105907518D01*
X135589379Y-106125760D01*
X135589382Y-106125768D01*
X135679814Y-106331937D01*
X135802954Y-106520417D01*
X135955429Y-106686047D01*
X135955431Y-106686049D01*
X135955436Y-106686054D01*
X136133100Y-106824337D01*
X136331102Y-106931490D01*
X136544041Y-107004592D01*
X136765294Y-107041512D01*
X136766101Y-107041647D01*
X136766104Y-107041648D01*
X136766107Y-107041648D01*
X136991248Y-107041648D01*
X136991249Y-107041647D01*
X137213311Y-107004592D01*
X137426250Y-106931490D01*
X137624252Y-106824337D01*
X137801916Y-106686054D01*
X137954398Y-106520416D01*
X138077536Y-106331939D01*
X138167972Y-106125764D01*
X138223240Y-105907516D01*
X138241832Y-105683148D01*
X138223240Y-105458780D01*
X138167972Y-105240532D01*
X138094995Y-105074160D01*
X138077537Y-105034358D01*
X137954397Y-104845878D01*
X137801922Y-104680248D01*
X137801919Y-104680245D01*
X137801916Y-104680242D01*
X137624252Y-104541959D01*
X137426250Y-104434806D01*
X137213311Y-104361704D01*
X137213310Y-104361703D01*
X137213308Y-104361703D01*
X136991249Y-104324648D01*
X136991245Y-104324648D01*
X136766107Y-104324648D01*
X136766103Y-104324648D01*
X136544043Y-104361703D01*
X136502092Y-104376105D01*
X136331102Y-104434806D01*
X136331100Y-104434806D01*
X136331100Y-104434807D01*
X136133099Y-104541959D01*
X135955437Y-104680241D01*
X135955429Y-104680248D01*
X135802954Y-104845878D01*
X135679814Y-105034358D01*
X135589382Y-105240527D01*
X135589379Y-105240535D01*
X135534112Y-105458777D01*
X135534111Y-105458782D01*
X135515520Y-105683147D01*
X131741832Y-105683147D01*
X131723240Y-105458780D01*
X131667972Y-105240532D01*
X131594995Y-105074160D01*
X131577537Y-105034358D01*
X131454397Y-104845878D01*
X131301922Y-104680248D01*
X131301919Y-104680245D01*
X131301916Y-104680242D01*
X131124252Y-104541959D01*
X130926250Y-104434806D01*
X130713311Y-104361704D01*
X130713310Y-104361703D01*
X130713308Y-104361703D01*
X130491249Y-104324648D01*
X130491245Y-104324648D01*
X130266107Y-104324648D01*
X130266103Y-104324648D01*
X130044043Y-104361703D01*
X130002092Y-104376105D01*
X129831102Y-104434806D01*
X129831100Y-104434806D01*
X129831100Y-104434807D01*
X129633099Y-104541959D01*
X129455437Y-104680241D01*
X129455429Y-104680248D01*
X129302954Y-104845878D01*
X129179814Y-105034358D01*
X129089382Y-105240527D01*
X129089379Y-105240535D01*
X129034112Y-105458777D01*
X129034111Y-105458782D01*
X129015520Y-105683147D01*
X120839605Y-105683147D01*
X120896660Y-105595817D01*
X120990425Y-105382055D01*
X121047727Y-105155774D01*
X121067003Y-104923148D01*
X121066698Y-104919472D01*
X121053597Y-104761366D01*
X121047727Y-104690522D01*
X120990425Y-104464241D01*
X120896660Y-104250479D01*
X120768990Y-104055065D01*
X120768989Y-104055064D01*
X120767819Y-104053273D01*
X120730987Y-103961687D01*
X120732007Y-103862976D01*
X120770724Y-103772170D01*
X120828005Y-103712358D01*
X120900417Y-103658151D01*
X145800985Y-103658151D01*
X145819731Y-103932213D01*
X145819731Y-103932216D01*
X145875619Y-104201160D01*
X145875620Y-104201165D01*
X145967611Y-104460002D01*
X146093994Y-104703909D01*
X146149899Y-104783109D01*
X146840730Y-104092278D01*
X146922809Y-104037435D01*
X147019628Y-104018176D01*
X147116447Y-104037434D01*
X147198526Y-104092278D01*
X147222560Y-104120088D01*
X147264433Y-104176333D01*
X147325511Y-104227584D01*
X147362793Y-104258868D01*
X147424581Y-104335855D01*
X147452203Y-104430627D01*
X147441456Y-104528756D01*
X147393974Y-104615303D01*
X147379064Y-104631574D01*
X146687313Y-105323325D01*
X146887703Y-105445184D01*
X146887707Y-105445186D01*
X147139651Y-105554623D01*
X147139669Y-105554629D01*
X147404181Y-105628742D01*
X147404183Y-105628743D01*
X147676330Y-105666147D01*
X147676332Y-105666148D01*
X147951022Y-105666148D01*
X147951023Y-105666147D01*
X148223170Y-105628743D01*
X148223172Y-105628742D01*
X148487684Y-105554629D01*
X148487702Y-105554623D01*
X148739648Y-105445186D01*
X148940039Y-105323325D01*
X148823496Y-105206782D01*
X166295177Y-105206782D01*
X166295178Y-105206802D01*
X166301686Y-105267344D01*
X166301688Y-105267349D01*
X166352788Y-105404352D01*
X166352789Y-105404353D01*
X166352790Y-105404356D01*
X166440414Y-105521407D01*
X166440417Y-105521410D01*
X166557468Y-105609034D01*
X166557469Y-105609034D01*
X166557473Y-105609037D01*
X166694476Y-105660137D01*
X166694479Y-105660137D01*
X166694481Y-105660138D01*
X166694479Y-105660138D01*
X166742742Y-105665326D01*
X166755039Y-105666648D01*
X166755042Y-105666648D01*
X169852312Y-105666648D01*
X169852315Y-105666648D01*
X169875156Y-105664192D01*
X169912873Y-105660138D01*
X169912874Y-105660137D01*
X169912878Y-105660137D01*
X170049881Y-105609037D01*
X170166938Y-105521409D01*
X170254566Y-105404352D01*
X170305666Y-105267349D01*
X170312177Y-105206786D01*
X170312177Y-103693180D01*
X171766375Y-103693180D01*
X171777787Y-103761560D01*
X171781238Y-103803206D01*
X171781238Y-103865359D01*
X171793308Y-103904411D01*
X171793823Y-103907496D01*
X171792767Y-103941610D01*
X171815280Y-104007189D01*
X171825537Y-104047692D01*
X171835771Y-104109021D01*
X171854127Y-104145614D01*
X171855142Y-104148573D01*
X171859696Y-104182332D01*
X171892682Y-104243284D01*
X171909467Y-104281550D01*
X171929648Y-104340335D01*
X171953740Y-104373347D01*
X171955233Y-104376105D01*
X171965316Y-104408722D01*
X172007900Y-104463435D01*
X172030753Y-104498413D01*
X172060340Y-104553084D01*
X172089532Y-104581675D01*
X172091451Y-104584140D01*
X172106759Y-104614643D01*
X172157763Y-104661597D01*
X172186062Y-104692338D01*
X172224246Y-104741398D01*
X172257734Y-104764783D01*
X172258927Y-104765881D01*
X172258932Y-104765886D01*
X172258936Y-104765889D01*
X172260038Y-104766903D01*
X172280182Y-104794496D01*
X172338207Y-104832406D01*
X172371185Y-104858074D01*
X172416922Y-104900179D01*
X172453838Y-104917754D01*
X172456468Y-104919472D01*
X172480854Y-104943356D01*
X172544332Y-104971199D01*
X172581087Y-104991089D01*
X172633117Y-105025082D01*
X172672412Y-105036338D01*
X172673862Y-105036974D01*
X172673866Y-105036976D01*
X172673869Y-105036977D01*
X172675276Y-105037594D01*
X172703261Y-105057139D01*
X172770477Y-105074160D01*
X172809997Y-105087726D01*
X172866921Y-105112694D01*
X172907502Y-105117324D01*
X172909059Y-105117718D01*
X172909062Y-105117719D01*
X172909064Y-105117719D01*
X172910537Y-105118092D01*
X172941366Y-105132763D01*
X173010460Y-105138490D01*
X173051674Y-105145368D01*
X173111952Y-105160632D01*
X173152805Y-105158521D01*
X173155928Y-105158780D01*
X173188717Y-105168176D01*
X173257781Y-105162452D01*
X173299576Y-105162452D01*
X173361496Y-105167584D01*
X173401409Y-105158781D01*
X173404530Y-105158522D01*
X173438456Y-105162390D01*
X173505679Y-105145368D01*
X173546890Y-105138490D01*
X173608849Y-105133354D01*
X173646776Y-105118102D01*
X173648285Y-105117719D01*
X173648290Y-105117719D01*
X173648294Y-105117717D01*
X173649809Y-105117334D01*
X173683868Y-105115573D01*
X173747355Y-105087726D01*
X173786875Y-105074160D01*
X173847146Y-105058897D01*
X173882054Y-105037604D01*
X173884915Y-105036349D01*
X173918235Y-105029001D01*
X173976259Y-104991092D01*
X174013015Y-104971200D01*
X174069939Y-104946231D01*
X174100890Y-104919467D01*
X174102177Y-104918626D01*
X174102185Y-104918622D01*
X174102192Y-104918616D01*
X174103514Y-104917753D01*
X174135159Y-104905029D01*
X174186162Y-104858076D01*
X174219142Y-104832406D01*
X174271175Y-104798410D01*
X174297288Y-104766927D01*
X174298413Y-104765890D01*
X174298420Y-104765886D01*
X174298425Y-104765880D01*
X174299587Y-104764811D01*
X174328699Y-104747056D01*
X174371288Y-104692338D01*
X174399587Y-104661596D01*
X174445320Y-104619494D01*
X174465858Y-104584194D01*
X174466834Y-104582939D01*
X174466840Y-104582933D01*
X174466844Y-104582925D01*
X174467772Y-104581734D01*
X174493597Y-104559390D01*
X174526596Y-104498415D01*
X174549451Y-104463433D01*
X174587636Y-104414373D01*
X174602112Y-104376115D01*
X174602843Y-104374762D01*
X174602849Y-104374755D01*
X174602852Y-104374746D01*
X174603601Y-104373364D01*
X174625376Y-104347112D01*
X174647882Y-104281554D01*
X174664668Y-104243285D01*
X174694246Y-104188630D01*
X174702212Y-104148562D01*
X174702733Y-104147040D01*
X174702739Y-104147029D01*
X174702742Y-104147016D01*
X174703224Y-104145612D01*
X174720400Y-104116081D01*
X174731812Y-104047698D01*
X174742070Y-104007192D01*
X174762260Y-103948380D01*
X174763251Y-103916427D01*
X174762920Y-103916400D01*
X174763451Y-103909979D01*
X174763529Y-103907498D01*
X174763784Y-103905968D01*
X174767346Y-103862976D01*
X174771557Y-103812151D01*
X174772847Y-103801801D01*
X174776114Y-103782229D01*
X174776114Y-103782225D01*
X174789796Y-103700238D01*
X174784319Y-103659705D01*
X174784319Y-103656588D01*
X174790975Y-103623120D01*
X174772850Y-103514505D01*
X174771556Y-103504123D01*
X174763784Y-103410325D01*
X174763527Y-103408785D01*
X174763562Y-103407641D01*
X174762920Y-103399897D01*
X174763804Y-103399823D01*
X174764584Y-103374686D01*
X174742071Y-103309108D01*
X174731814Y-103268603D01*
X174721582Y-103207288D01*
X174703249Y-103170753D01*
X174702235Y-103167800D01*
X174697660Y-103133973D01*
X174664667Y-103073008D01*
X174647881Y-103034738D01*
X174627698Y-102975946D01*
X174603562Y-102942859D01*
X174602072Y-102940104D01*
X174592025Y-102907561D01*
X174549452Y-102852863D01*
X174526599Y-102817883D01*
X174497008Y-102763204D01*
X174467769Y-102734557D01*
X174465852Y-102732093D01*
X174450581Y-102701643D01*
X174399584Y-102654694D01*
X174371288Y-102623956D01*
X174333096Y-102574887D01*
X174299572Y-102551470D01*
X174297268Y-102549349D01*
X174277160Y-102521792D01*
X174219141Y-102483886D01*
X174186165Y-102458220D01*
X174140430Y-102416117D01*
X174103492Y-102398528D01*
X174100861Y-102396809D01*
X174076489Y-102372934D01*
X174013015Y-102345093D01*
X173976262Y-102325203D01*
X173924244Y-102291217D01*
X173884953Y-102279963D01*
X173882084Y-102278705D01*
X173854087Y-102259155D01*
X173786873Y-102242134D01*
X173747355Y-102228568D01*
X173690422Y-102203596D01*
X173649757Y-102198948D01*
X173646719Y-102198178D01*
X173615961Y-102183525D01*
X173546885Y-102177802D01*
X173505669Y-102170924D01*
X173445404Y-102155663D01*
X173404516Y-102157773D01*
X173401398Y-102157514D01*
X173368645Y-102148123D01*
X173299568Y-102153847D01*
X173257784Y-102153847D01*
X173195844Y-102148714D01*
X173155946Y-102157514D01*
X173152827Y-102157773D01*
X173118892Y-102153904D01*
X173051683Y-102170924D01*
X173010471Y-102177801D01*
X172948533Y-102182933D01*
X172910650Y-102198174D01*
X172907609Y-102198945D01*
X172873485Y-102200719D01*
X172809992Y-102228569D01*
X172770476Y-102242135D01*
X172710205Y-102257397D01*
X172675284Y-102278697D01*
X172672411Y-102279957D01*
X172639106Y-102287298D01*
X172581087Y-102325204D01*
X172544337Y-102345092D01*
X172487422Y-102370056D01*
X172456476Y-102396818D01*
X172453840Y-102398540D01*
X172422185Y-102411268D01*
X172371183Y-102458221D01*
X172338208Y-102483888D01*
X172286190Y-102517873D01*
X172260098Y-102549336D01*
X172257790Y-102551461D01*
X172228649Y-102569238D01*
X172186061Y-102623956D01*
X172157766Y-102654694D01*
X172112036Y-102696793D01*
X172091488Y-102732107D01*
X172089566Y-102734577D01*
X172063749Y-102756910D01*
X172030752Y-102817883D01*
X172007899Y-102852862D01*
X171969716Y-102901919D01*
X171955240Y-102940177D01*
X171953745Y-102942939D01*
X171931973Y-102969186D01*
X171909467Y-103034743D01*
X171892683Y-103073008D01*
X171863100Y-103127671D01*
X171855120Y-103167789D01*
X171854103Y-103170751D01*
X171836946Y-103200228D01*
X171825536Y-103268603D01*
X171815279Y-103309104D01*
X171795094Y-103367901D01*
X171793829Y-103408756D01*
X171793314Y-103411844D01*
X171781238Y-103443771D01*
X171781238Y-103513091D01*
X171777787Y-103554735D01*
X171767554Y-103616050D01*
X171773033Y-103656583D01*
X171773033Y-103659711D01*
X171766375Y-103693180D01*
X170312177Y-103693180D01*
X170312177Y-102109510D01*
X170309198Y-102081802D01*
X170305667Y-102048951D01*
X170298336Y-102029295D01*
X170254566Y-101911944D01*
X170254563Y-101911940D01*
X170254563Y-101911939D01*
X170166939Y-101794888D01*
X170166936Y-101794885D01*
X170049885Y-101707261D01*
X170049882Y-101707260D01*
X170049881Y-101707259D01*
X169912878Y-101656159D01*
X169912877Y-101656158D01*
X169912872Y-101656157D01*
X169912874Y-101656157D01*
X169852331Y-101649649D01*
X169852317Y-101649648D01*
X169852315Y-101649648D01*
X166755039Y-101649648D01*
X166755036Y-101649648D01*
X166755022Y-101649649D01*
X166694480Y-101656157D01*
X166557468Y-101707261D01*
X166440417Y-101794885D01*
X166440414Y-101794888D01*
X166352790Y-101911939D01*
X166301686Y-102048951D01*
X166295178Y-102109493D01*
X166295177Y-102109513D01*
X166295177Y-105206782D01*
X148823496Y-105206782D01*
X148249770Y-104633056D01*
X148194926Y-104550977D01*
X148175668Y-104454158D01*
X148194926Y-104357339D01*
X148249770Y-104275260D01*
X148289643Y-104242779D01*
X148299050Y-104236593D01*
X148332475Y-104201165D01*
X148427055Y-104100915D01*
X148507504Y-104043707D01*
X148603721Y-104021640D01*
X148701059Y-104038074D01*
X148784699Y-104090507D01*
X148789979Y-104095635D01*
X149477454Y-104783110D01*
X149533354Y-104703918D01*
X149533357Y-104703912D01*
X149659742Y-104460002D01*
X149751733Y-104201165D01*
X149751734Y-104201160D01*
X149807622Y-103932216D01*
X149807622Y-103932213D01*
X149826369Y-103658151D01*
X149826369Y-103658144D01*
X149807622Y-103384082D01*
X149807622Y-103384079D01*
X149751734Y-103115135D01*
X149751733Y-103115130D01*
X149659742Y-102856293D01*
X149533358Y-102612384D01*
X149533355Y-102612377D01*
X149477455Y-102533185D01*
X149477453Y-102533185D01*
X148786622Y-103224016D01*
X148704543Y-103278860D01*
X148607724Y-103298118D01*
X148510905Y-103278859D01*
X148428826Y-103224016D01*
X148404789Y-103196202D01*
X148362921Y-103139963D01*
X148362920Y-103139962D01*
X148264559Y-103057426D01*
X148202771Y-102980439D01*
X148175149Y-102885666D01*
X148185896Y-102787537D01*
X148233378Y-102700991D01*
X148248288Y-102684720D01*
X148940038Y-101992970D01*
X148739643Y-101871107D01*
X148487702Y-101761672D01*
X148487684Y-101761666D01*
X148223172Y-101687553D01*
X148223170Y-101687552D01*
X147951023Y-101650148D01*
X147676331Y-101650148D01*
X147404183Y-101687552D01*
X147404181Y-101687553D01*
X147139669Y-101761666D01*
X147139651Y-101761672D01*
X146887710Y-101871107D01*
X146687314Y-101992970D01*
X147377583Y-102683239D01*
X147432427Y-102765318D01*
X147451685Y-102862137D01*
X147432427Y-102958956D01*
X147377583Y-103041035D01*
X147337717Y-103073512D01*
X147328301Y-103079705D01*
X147328299Y-103079706D01*
X147200297Y-103215381D01*
X147119848Y-103272589D01*
X147023630Y-103294655D01*
X146926292Y-103278220D01*
X146842653Y-103225787D01*
X146837374Y-103220660D01*
X146149899Y-102533185D01*
X146093995Y-102612384D01*
X146093991Y-102612390D01*
X145967611Y-102856293D01*
X145875620Y-103115130D01*
X145875619Y-103115135D01*
X145819731Y-103384079D01*
X145819731Y-103384082D01*
X145800985Y-103658144D01*
X145800985Y-103658151D01*
X120900417Y-103658151D01*
X120916579Y-103646052D01*
X120916581Y-103646050D01*
X121004120Y-103529113D01*
X121004123Y-103529107D01*
X121055170Y-103392244D01*
X121055172Y-103392237D01*
X121061675Y-103331753D01*
X121061676Y-103331735D01*
X121061676Y-102764148D01*
X120345540Y-102764148D01*
X120248721Y-102744890D01*
X120166642Y-102690046D01*
X120111798Y-102607967D01*
X120092540Y-102511148D01*
X120098883Y-102454852D01*
X120107485Y-102417160D01*
X120107485Y-102417159D01*
X120107486Y-102417156D01*
X120097349Y-102281883D01*
X120097348Y-102281882D01*
X120096762Y-102274053D01*
X120108732Y-102176066D01*
X120157289Y-102090118D01*
X120167945Y-102081782D01*
X129020176Y-102081782D01*
X129020177Y-102081802D01*
X129026685Y-102142344D01*
X129030997Y-102153904D01*
X129077787Y-102279352D01*
X129077788Y-102279353D01*
X129077789Y-102279356D01*
X129165413Y-102396407D01*
X129165416Y-102396410D01*
X129282467Y-102484034D01*
X129282468Y-102484034D01*
X129282472Y-102484037D01*
X129419475Y-102535137D01*
X129419478Y-102535137D01*
X129419480Y-102535138D01*
X129419478Y-102535138D01*
X129467741Y-102540326D01*
X129480038Y-102541648D01*
X129480041Y-102541648D01*
X131277311Y-102541648D01*
X131277314Y-102541648D01*
X131300155Y-102539192D01*
X131337872Y-102535138D01*
X131337873Y-102535137D01*
X131337877Y-102535137D01*
X131474880Y-102484037D01*
X131591937Y-102396409D01*
X131679565Y-102279352D01*
X131730665Y-102142349D01*
X131734196Y-102109510D01*
X131737174Y-102081802D01*
X131737176Y-102081782D01*
X131737176Y-101183147D01*
X135515520Y-101183147D01*
X135534111Y-101407513D01*
X135534112Y-101407518D01*
X135540960Y-101434560D01*
X135589380Y-101625764D01*
X135602712Y-101656159D01*
X135679814Y-101831937D01*
X135802954Y-102020417D01*
X135955429Y-102186047D01*
X135955431Y-102186049D01*
X135955436Y-102186054D01*
X136133100Y-102324337D01*
X136331102Y-102431490D01*
X136544041Y-102504592D01*
X136765294Y-102541512D01*
X136766101Y-102541647D01*
X136766104Y-102541648D01*
X136766107Y-102541648D01*
X136991248Y-102541648D01*
X136991249Y-102541647D01*
X137213311Y-102504592D01*
X137426250Y-102431490D01*
X137624252Y-102324337D01*
X137801916Y-102186054D01*
X137954398Y-102020416D01*
X138077536Y-101831939D01*
X138167972Y-101625764D01*
X138223240Y-101407516D01*
X138241832Y-101183148D01*
X138223240Y-100958780D01*
X138167972Y-100740532D01*
X138096931Y-100578574D01*
X138077537Y-100534358D01*
X137954397Y-100345878D01*
X137801922Y-100180248D01*
X137801919Y-100180245D01*
X137801916Y-100180242D01*
X137624252Y-100041959D01*
X137426250Y-99934806D01*
X137213311Y-99861704D01*
X137213310Y-99861703D01*
X137213308Y-99861703D01*
X136991249Y-99824648D01*
X136991245Y-99824648D01*
X136766107Y-99824648D01*
X136766103Y-99824648D01*
X136544043Y-99861703D01*
X136486112Y-99881591D01*
X136331102Y-99934806D01*
X136331100Y-99934806D01*
X136331100Y-99934807D01*
X136133099Y-100041959D01*
X135955437Y-100180241D01*
X135955429Y-100180248D01*
X135802954Y-100345878D01*
X135679814Y-100534358D01*
X135589382Y-100740527D01*
X135589379Y-100740535D01*
X135534112Y-100958777D01*
X135534111Y-100958782D01*
X135515520Y-101183147D01*
X131737176Y-101183147D01*
X131737176Y-100284513D01*
X131737174Y-100284493D01*
X131730666Y-100223951D01*
X131722199Y-100201250D01*
X131679565Y-100086944D01*
X131679562Y-100086940D01*
X131679562Y-100086939D01*
X131591938Y-99969888D01*
X131591935Y-99969885D01*
X131474884Y-99882261D01*
X131474881Y-99882260D01*
X131474880Y-99882259D01*
X131337877Y-99831159D01*
X131337876Y-99831158D01*
X131337871Y-99831157D01*
X131337873Y-99831157D01*
X131277330Y-99824649D01*
X131277316Y-99824648D01*
X131277314Y-99824648D01*
X129480038Y-99824648D01*
X129480035Y-99824648D01*
X129480021Y-99824649D01*
X129419479Y-99831157D01*
X129311243Y-99871527D01*
X129284253Y-99881595D01*
X129282467Y-99882261D01*
X129165416Y-99969885D01*
X129165413Y-99969888D01*
X129077789Y-100086939D01*
X129026685Y-100223951D01*
X129020177Y-100284493D01*
X129020176Y-100284513D01*
X129020176Y-102081782D01*
X120167945Y-102081782D01*
X120235040Y-102029295D01*
X120330150Y-102002855D01*
X120349055Y-102002148D01*
X121061676Y-102002148D01*
X121061676Y-101434560D01*
X121061675Y-101434542D01*
X121055172Y-101374058D01*
X121055170Y-101374051D01*
X121004123Y-101237188D01*
X121004120Y-101237182D01*
X120916581Y-101120245D01*
X120916578Y-101120242D01*
X120799641Y-101032703D01*
X120799635Y-101032700D01*
X120662772Y-100981653D01*
X120662765Y-100981651D01*
X120602281Y-100975148D01*
X120034676Y-100975148D01*
X120034676Y-101686946D01*
X120015418Y-101783765D01*
X119960574Y-101865844D01*
X119878495Y-101920688D01*
X119781676Y-101939946D01*
X119740581Y-101933756D01*
X119740247Y-101935974D01*
X119721506Y-101933149D01*
X119721503Y-101933148D01*
X119619952Y-101933148D01*
X119619950Y-101933148D01*
X119563383Y-101941674D01*
X119464775Y-101937061D01*
X119375439Y-101895063D01*
X119308975Y-101822074D01*
X119275502Y-101729207D01*
X119272676Y-101691500D01*
X119272676Y-100975148D01*
X118705070Y-100975148D01*
X118644586Y-100981651D01*
X118644579Y-100981653D01*
X118507716Y-101032700D01*
X118507710Y-101032703D01*
X118390773Y-101120242D01*
X118390770Y-101120245D01*
X118303231Y-101237182D01*
X118303228Y-101237188D01*
X118252181Y-101374051D01*
X118252179Y-101374058D01*
X118245676Y-101434542D01*
X118245676Y-102002148D01*
X118961812Y-102002148D01*
X119058631Y-102021406D01*
X119140710Y-102076250D01*
X119195554Y-102158329D01*
X119214812Y-102255148D01*
X119208469Y-102311444D01*
X119199866Y-102349135D01*
X119199866Y-102349136D01*
X119199866Y-102349139D01*
X119199866Y-102349140D01*
X119206037Y-102431488D01*
X119210590Y-102492243D01*
X119198620Y-102590230D01*
X119150063Y-102676178D01*
X119072312Y-102737001D01*
X118977202Y-102763441D01*
X118958297Y-102764148D01*
X118245676Y-102764148D01*
X118245676Y-103331753D01*
X118252179Y-103392237D01*
X118252181Y-103392244D01*
X118303228Y-103529107D01*
X118303231Y-103529113D01*
X118390769Y-103646049D01*
X118479347Y-103712358D01*
X118545313Y-103785797D01*
X118578154Y-103878890D01*
X118572870Y-103977464D01*
X118539532Y-104053273D01*
X118410695Y-104250472D01*
X118316927Y-104464241D01*
X118316926Y-104464244D01*
X118259625Y-104690518D01*
X118259624Y-104690524D01*
X118240349Y-104923146D01*
X118240349Y-104923148D01*
X106994552Y-104923148D01*
X106983750Y-104866060D01*
X106942164Y-104583488D01*
X106914203Y-104335326D01*
X106893358Y-104050516D01*
X106884019Y-103800894D01*
X106884019Y-103515405D01*
X106886699Y-103443771D01*
X106893357Y-103265786D01*
X106914203Y-102980975D01*
X106942165Y-102732805D01*
X106983752Y-102450224D01*
X107030160Y-102204955D01*
X107092295Y-101926026D01*
X107108422Y-101865844D01*
X107156850Y-101685102D01*
X107239244Y-101411233D01*
X107300148Y-101237182D01*
X107321533Y-101176066D01*
X107422780Y-100911345D01*
X107424960Y-100906017D01*
X107523284Y-100680655D01*
X107643715Y-100423752D01*
X107646373Y-100418417D01*
X107760981Y-100201566D01*
X107900059Y-99953755D01*
X107903194Y-99948480D01*
X108029068Y-99748151D01*
X123790560Y-99748151D01*
X123808988Y-99958793D01*
X123808990Y-99958803D01*
X123863719Y-100163057D01*
X123953084Y-100354702D01*
X123953087Y-100354706D01*
X124074375Y-100527924D01*
X124223900Y-100677449D01*
X124313997Y-100740535D01*
X124397121Y-100798739D01*
X124505042Y-100849063D01*
X124588766Y-100888104D01*
X124793021Y-100942834D01*
X124793028Y-100942834D01*
X124793030Y-100942835D01*
X125003673Y-100961264D01*
X125003676Y-100961264D01*
X125003679Y-100961264D01*
X125214321Y-100942835D01*
X125214322Y-100942834D01*
X125214331Y-100942834D01*
X125418586Y-100888104D01*
X125610234Y-100798737D01*
X125783452Y-100677449D01*
X125932977Y-100527924D01*
X126054265Y-100354706D01*
X126143632Y-100163058D01*
X126198362Y-99958803D01*
X126199265Y-99948480D01*
X126216792Y-99748151D01*
X126216792Y-99748144D01*
X126198363Y-99537502D01*
X126198362Y-99537500D01*
X126198362Y-99537493D01*
X126143632Y-99333238D01*
X126092635Y-99223874D01*
X126054267Y-99141593D01*
X126054265Y-99141590D01*
X125932977Y-98968372D01*
X125783452Y-98818847D01*
X125610234Y-98697559D01*
X125610230Y-98697556D01*
X125418584Y-98608191D01*
X125418585Y-98608191D01*
X125214331Y-98553462D01*
X125214321Y-98553460D01*
X125003679Y-98535032D01*
X125003673Y-98535032D01*
X124793030Y-98553460D01*
X124793020Y-98553462D01*
X124588766Y-98608191D01*
X124397121Y-98697556D01*
X124223898Y-98818848D01*
X124074376Y-98968370D01*
X123953084Y-99141593D01*
X123863719Y-99333238D01*
X123808990Y-99537492D01*
X123808988Y-99537502D01*
X123790560Y-99748144D01*
X123790560Y-99748151D01*
X108029068Y-99748151D01*
X108033330Y-99741368D01*
X108190399Y-99503959D01*
X108194047Y-99498742D01*
X108338795Y-99302615D01*
X108513170Y-99076792D01*
X108517292Y-99071737D01*
X108675643Y-98887728D01*
X108866572Y-98674640D01*
X108871255Y-98669693D01*
X109042022Y-98498925D01*
X109248693Y-98299669D01*
X109253971Y-98294862D01*
X109435874Y-98138322D01*
X109445082Y-98130658D01*
X109657506Y-97953878D01*
X109663288Y-97949344D01*
X109854864Y-97807955D01*
X110090809Y-97639150D01*
X110096990Y-97635003D01*
X110296528Y-97509624D01*
X110546084Y-97357322D01*
X110552815Y-97353494D01*
X110758300Y-97244891D01*
X111020959Y-97109848D01*
X111028178Y-97106422D01*
X111237246Y-97015206D01*
X111512868Y-96898079D01*
X111520454Y-96895143D01*
X111729954Y-96821835D01*
X112019061Y-96723205D01*
X112027082Y-96720765D01*
X112231820Y-96665905D01*
X112536818Y-96586169D01*
X112545234Y-96584275D01*
X112735728Y-96548231D01*
X113063262Y-96487732D01*
X113072030Y-96486430D01*
X113223730Y-96469338D01*
X113594924Y-96428495D01*
X113604112Y-96427823D01*
X114128676Y-96408652D01*
X114128676Y-96408651D01*
X114128778Y-96408648D01*
X114129176Y-96408648D01*
X142226482Y-96408648D01*
X142265500Y-96416409D01*
X142303811Y-96408841D01*
X142303813Y-96408842D01*
X142303813Y-96408840D01*
X142307670Y-96408079D01*
X142309415Y-96405962D01*
X142321375Y-96384136D01*
X142679199Y-95881293D01*
X142713041Y-95833815D01*
X142717068Y-95828475D01*
X143004032Y-95468405D01*
X143160724Y-95272733D01*
X143164908Y-95267778D01*
X143445797Y-94952202D01*
X143638671Y-94737201D01*
X143643005Y-94732609D01*
X143929236Y-94444272D01*
X144145418Y-94228859D01*
X144149815Y-94224686D01*
X144444658Y-93958352D01*
X144679427Y-93749247D01*
X144683868Y-93745477D01*
X144988454Y-93499060D01*
X145239010Y-93299875D01*
X145243553Y-93296431D01*
X145558033Y-93069157D01*
X145824761Y-92880468D01*
X146151181Y-92670609D01*
X146430433Y-92495643D01*
X146766050Y-92304837D01*
X147056358Y-92144830D01*
X147400450Y-91973265D01*
X147700656Y-91829077D01*
X148052468Y-91676959D01*
X148361374Y-91549338D01*
X148720014Y-91416924D01*
X149036467Y-91306474D01*
X149401066Y-91193984D01*
X149723907Y-91101210D01*
X150093535Y-91008856D01*
X150421567Y-90934174D01*
X150795240Y-90862146D01*
X151127383Y-90805858D01*
X151504070Y-90754311D01*
X151839147Y-90716660D01*
X152217812Y-90685701D01*
X152554672Y-90666844D01*
X152934402Y-90656530D01*
X153271835Y-90656550D01*
G37*
%TD.AperFunction*%
%TD*%
M02*
